<svg viewBox="0 80 369 194" fill="none" xmlns="http://www.w3.org/2000/svg">
<path d="M3.84572 223.988L3.30327 221.812L18.4948 218.025L19.0373 220.201L12.6679 221.788L17.1752 239.868L14.7224 240.48L10.2151 222.4L3.84572 223.988ZM25.4361 237.809L21.6488 222.617L23.9038 222.055L24.4759 224.349L24.6341 224.31C24.7236 223.489 25.0727 222.754 25.6813 222.105C26.2899 221.456 27.0491 221.019 27.959 220.792C28.1305 220.749 28.3456 220.699 28.6044 220.641C28.8632 220.584 29.0601 220.545 29.1953 220.526L29.7871 222.899C29.703 222.899 29.5143 222.915 29.2209 222.946C28.9325 222.969 28.6333 223.019 28.3234 223.096C27.5849 223.28 26.9642 223.599 26.4612 224.054C25.9632 224.5 25.6134 225.036 25.412 225.66C25.2154 226.277 25.2026 226.928 25.3736 227.613L27.7703 237.227L25.4361 237.809ZM39.1847 240.432C38.7891 240.531 38.4281 240.586 38.1018 240.597C37.7771 240.615 37.548 240.609 37.4145 240.579L37.4951 238.374C38.0983 238.378 38.6126 238.305 39.0379 238.157C39.4632 238.009 39.8004 237.719 40.0496 237.285C40.307 236.857 40.4812 236.222 40.5724 235.38L40.7117 234.084L31.287 220.214L33.8189 219.583L41.0304 230.643L41.1887 230.604L42.3642 217.453L44.8961 216.821L42.7872 235.836C42.6927 236.693 42.4953 237.432 42.1949 238.053C41.8962 238.681 41.4945 239.191 40.99 239.583C40.492 239.973 39.8902 240.256 39.1847 240.432ZM59.5974 229.292L55.8101 214.1L58.1442 213.519L61.9315 228.71L59.5974 229.292ZM56.3657 211.273C55.9108 211.386 55.4798 211.329 55.0729 211.101C54.6725 210.872 54.4181 210.54 54.3096 210.104C54.2011 209.669 54.2698 209.256 54.5156 208.866C54.768 208.474 55.1217 208.221 55.5767 208.108C56.0316 207.994 56.4593 208.052 56.8596 208.282C57.2666 208.509 57.5243 208.841 57.6328 209.276C57.7413 209.711 57.6693 210.125 57.4169 210.517C57.1711 210.907 56.8207 211.159 56.3657 211.273ZM69.0261 210.806L69.5192 212.784L61.6465 214.746L61.1534 212.768L69.0261 210.806ZM62.5405 208.557L64.8747 207.975L68.4845 222.454C68.6488 223.114 68.8677 223.584 69.1411 223.866C69.4195 224.14 69.7243 224.295 70.0555 224.332C70.3917 224.36 70.7313 224.331 71.0741 224.246C71.3313 224.182 71.539 224.116 71.6972 224.048C71.8539 223.974 71.9792 223.915 72.0731 223.871L73.0706 225.849C72.9272 225.948 72.7211 226.062 72.4523 226.192C72.1852 226.329 71.8341 226.451 71.3989 226.56C70.7396 226.724 70.0581 226.744 69.3544 226.618C68.6573 226.491 68.0288 226.189 67.4687 225.712C66.9153 225.234 66.5284 224.553 66.3081 223.669L62.5405 208.557ZM90.4081 221.947C89.0367 222.289 87.752 222.262 86.554 221.868C85.3627 221.471 84.3306 220.759 83.4578 219.73C82.5915 218.699 81.9628 217.399 81.5716 215.83C81.1771 214.247 81.1195 212.795 81.3989 211.471C81.6849 210.146 82.2608 209.029 83.1267 208.12C83.9992 207.209 85.1211 206.583 86.4926 206.241C87.864 205.899 89.1454 205.926 90.3368 206.323C91.5347 206.717 92.5676 207.433 93.4355 208.471C94.31 209.506 94.9444 210.815 95.339 212.398C95.7302 213.967 95.782 215.411 95.4943 216.729C95.2133 218.046 94.6366 219.159 93.7641 220.07C92.8982 220.979 91.7796 221.605 90.4081 221.947ZM89.8854 219.85C90.9272 219.59 91.7178 219.11 92.2572 218.408C92.7965 217.706 93.1193 216.88 93.2254 215.929C93.3315 214.978 93.258 213.995 93.0048 212.98C92.7517 211.964 92.3543 211.058 91.8126 210.262C91.2708 209.465 90.5963 208.881 89.789 208.508C88.9816 208.135 88.0571 208.078 87.0153 208.338C85.9735 208.598 85.1837 209.082 84.646 209.79C84.1082 210.498 83.7871 211.331 83.6827 212.289C83.5782 213.246 83.6526 214.233 83.9057 215.248C84.1589 216.263 84.5555 217.166 85.0955 217.956C85.6356 218.746 86.3085 219.324 87.1142 219.69C87.9199 220.057 88.8436 220.11 89.8854 219.85ZM108.801 210.428L106.562 201.448L108.897 200.866L112.684 216.057L110.35 216.639L109.709 214.068L109.55 214.107C109.387 214.967 108.996 215.762 108.38 216.49C107.761 217.211 106.878 217.715 105.731 218.001C104.781 218.238 103.886 218.24 103.044 218.009C102.2 217.771 101.462 217.283 100.829 216.544C100.195 215.799 99.7173 214.78 99.3951 213.487L96.9886 203.834L99.3227 203.253L101.69 212.747C101.966 213.855 102.496 214.661 103.28 215.166C104.071 215.669 104.951 215.8 105.92 215.558C106.501 215.414 107.054 215.118 107.58 214.672C108.112 214.224 108.507 213.643 108.763 212.927C109.025 212.211 109.038 211.378 108.801 210.428ZM119.778 198.153L120.272 200.131L112.399 202.094L111.906 200.116L119.778 198.153ZM113.293 195.904L115.627 195.322L119.237 209.801C119.401 210.461 119.62 210.931 119.893 211.213C120.172 211.487 120.477 211.642 120.808 211.679C121.144 211.707 121.484 211.678 121.826 211.593C122.084 211.529 122.291 211.463 122.45 211.396C122.606 211.322 122.731 211.262 122.825 211.218L123.823 213.196C123.679 213.295 123.473 213.409 123.205 213.54C122.938 213.676 122.586 213.799 122.151 213.907C121.492 214.072 120.81 214.091 120.107 213.965C119.41 213.838 118.781 213.536 118.221 213.059C117.668 212.581 117.281 211.9 117.06 211.016L113.293 195.904ZM134.966 200.796L137.244 209.934L134.91 210.516L129.86 190.261L132.194 189.679L134.049 197.116L134.246 197.067C134.407 196.194 134.786 195.438 135.383 194.798C135.985 194.151 136.882 193.679 138.076 193.381C139.111 193.123 140.069 193.105 140.951 193.326C141.831 193.541 142.591 194.02 143.232 194.764C143.877 195.5 144.363 196.52 144.688 197.826L147.095 207.479L144.761 208.06L142.394 198.566C142.093 197.359 141.547 196.504 140.756 196.001C139.97 195.49 139.027 195.371 137.926 195.646C137.161 195.836 136.516 196.169 135.99 196.643C135.47 197.116 135.113 197.706 134.918 198.412C134.73 199.118 134.746 199.912 134.966 200.796ZM157.813 205.143C156.35 205.507 155.006 205.499 153.784 205.118C152.566 204.728 151.525 204.021 150.66 202.997C149.801 201.965 149.177 200.67 148.789 199.114C148.401 197.558 148.343 196.116 148.614 194.788C148.89 193.452 149.456 192.323 150.312 191.402C151.173 190.473 152.289 189.838 153.66 189.496C154.452 189.299 155.266 189.236 156.103 189.307C156.94 189.378 157.749 189.632 158.53 190.068C159.31 190.497 160.008 191.149 160.625 192.024C161.243 192.9 161.728 194.047 162.082 195.464L162.328 196.453L150.618 199.373L150.115 197.355L159.452 195.027C159.238 194.17 158.876 193.448 158.365 192.861C157.861 192.272 157.248 191.862 156.524 191.629C155.807 191.394 155.027 191.382 154.183 191.593C153.253 191.824 152.507 192.256 151.942 192.887C151.383 193.509 151.014 194.232 150.834 195.054C150.653 195.876 150.668 196.706 150.876 197.543L151.212 198.889C151.498 200.036 151.938 200.959 152.533 201.658C153.132 202.349 153.84 202.814 154.655 203.051C155.469 203.283 156.348 203.281 157.291 203.046C157.904 202.893 158.436 202.669 158.888 202.374C159.345 202.071 159.711 201.7 159.986 201.26C160.26 200.814 160.43 200.302 160.497 199.725L162.91 199.796C162.863 200.62 162.632 201.392 162.216 202.112C161.798 202.825 161.218 203.446 160.474 203.975C159.729 204.497 158.842 204.886 157.813 205.143ZM167.575 202.373L163.788 187.181L166.043 186.619L166.615 188.913L166.773 188.874C166.863 188.053 167.212 187.318 167.82 186.67C168.429 186.021 169.188 185.583 170.098 185.356C170.27 185.313 170.485 185.263 170.744 185.205C171.002 185.148 171.199 185.109 171.334 185.09L171.926 187.463C171.842 187.463 171.653 187.479 171.36 187.51C171.072 187.533 170.772 187.583 170.463 187.66C169.724 187.844 169.103 188.164 168.6 188.618C168.102 189.064 167.753 189.6 167.551 190.224C167.355 190.841 167.342 191.492 167.513 192.177L169.909 201.791L167.575 202.373ZM183.924 198.633C182.46 198.998 181.117 198.99 179.894 198.608C178.677 198.218 177.635 197.512 176.771 196.487C175.911 195.455 175.287 194.161 174.899 192.605C174.511 191.049 174.453 189.607 174.724 188.278C175 186.942 175.566 185.813 176.422 184.893C177.283 183.964 178.399 183.328 179.771 182.986C180.562 182.789 181.376 182.726 182.214 182.798C183.051 182.869 183.86 183.123 184.641 183.558C185.42 183.987 186.118 184.639 186.736 185.515C187.353 186.391 187.839 187.537 188.192 188.955L188.439 189.944L176.729 192.863L176.226 190.846L185.562 188.518C185.348 187.661 184.986 186.939 184.476 186.352C183.972 185.763 183.358 185.352 182.635 185.119C181.918 184.885 181.138 184.873 180.294 185.083C179.364 185.315 178.617 185.746 178.053 186.377C177.494 187 177.124 187.722 176.944 188.544C176.764 189.367 176.778 190.197 176.987 191.034L177.322 192.379C177.608 193.526 178.049 194.45 178.643 195.149C179.243 195.84 179.95 196.304 180.766 196.542C181.58 196.773 182.458 196.771 183.401 196.536C184.014 196.383 184.547 196.16 184.999 195.865C185.455 195.562 185.821 195.191 186.097 194.751C186.371 194.304 186.541 193.793 186.607 193.216L189.02 193.287C188.973 194.111 188.742 194.883 188.326 195.603C187.909 196.316 187.328 196.937 186.585 197.465C185.839 197.987 184.952 198.377 183.924 198.633ZM191.722 174.838L195.154 189.446L192.859 190.018L189.032 175.509L191.722 174.838ZM195.466 195.587C194.978 195.709 194.516 195.639 194.079 195.376C193.643 195.114 193.364 194.739 193.242 194.251C193.12 193.763 193.191 193.301 193.453 192.864C193.715 192.428 194.09 192.149 194.578 192.027C195.066 191.905 195.529 191.976 195.965 192.238C196.402 192.5 196.681 192.875 196.802 193.363C196.883 193.686 196.875 194.004 196.777 194.315C196.686 194.625 196.526 194.896 196.297 195.128C196.073 195.352 195.796 195.505 195.466 195.587Z" fill="#F9FAFB"/>
<path d="M3.84572 223.988L2.68526 224.277C2.84504 224.918 3.49412 225.308 4.13503 225.148L3.84572 223.988ZM3.30327 221.812L3.01396 220.652C2.37305 220.811 1.98302 221.46 2.1428 222.101L3.30327 221.812ZM18.4948 218.025L19.6553 217.735C19.4955 217.094 18.8464 216.704 18.2055 216.864L18.4948 218.025ZM19.0373 220.201L19.3266 221.361C19.9675 221.201 20.3576 220.552 20.1978 219.911L19.0373 220.201ZM12.6679 221.788L12.3786 220.628C11.7377 220.788 11.3477 221.437 11.5074 222.078L12.6679 221.788ZM17.1752 239.868L17.4645 241.029C18.1054 240.869 18.4955 240.22 18.3357 239.579L17.1752 239.868ZM14.7224 240.48L13.562 240.769C13.7217 241.41 14.3708 241.8 15.0117 241.64L14.7224 240.48ZM10.2151 222.4L11.3756 222.111C11.2158 221.47 10.5667 221.08 9.9258 221.24L10.2151 222.4ZM5.00619 223.699L4.46374 221.523L2.1428 222.101L2.68526 224.277L5.00619 223.699ZM3.59258 222.972L18.7842 219.185L18.2055 216.864L3.01396 220.652L3.59258 222.972ZM17.3344 218.314L17.8768 220.49L20.1978 219.911L19.6553 217.735L17.3344 218.314ZM18.748 219.04L12.3786 220.628L12.9572 222.949L19.3266 221.361L18.748 219.04ZM11.5074 222.078L16.0148 240.157L18.3357 239.579L13.8284 221.499L11.5074 222.078ZM16.8859 238.708L14.4331 239.319L15.0117 241.64L17.4645 241.029L16.8859 238.708ZM15.8829 240.19L11.3756 222.111L9.05464 222.689L13.562 240.769L15.8829 240.19ZM9.9258 221.24L3.55641 222.827L4.13503 225.148L10.5044 223.56L9.9258 221.24ZM25.4361 237.809L24.2757 238.098C24.4355 238.739 25.0845 239.129 25.7255 238.969L25.4361 237.809ZM21.6488 222.617L21.3595 221.457C20.7186 221.616 20.3286 222.265 20.4884 222.906L21.6488 222.617ZM23.9038 222.055L25.0643 221.766C24.9045 221.125 24.2554 220.735 23.6145 220.894L23.9038 222.055ZM24.4759 224.349L23.3154 224.639C23.4752 225.28 24.1243 225.67 24.7652 225.51L24.4759 224.349ZM24.6341 224.31L24.9234 225.47C25.4096 225.349 25.7687 224.938 25.823 224.44L24.6341 224.31ZM25.6813 222.105L24.8089 221.287L24.8089 221.287L25.6813 222.105ZM29.1953 220.526L30.3558 220.236C30.2071 219.64 29.6309 219.253 29.0229 219.342L29.1953 220.526ZM29.7871 222.899L29.7863 224.095C30.1546 224.095 30.5024 223.926 30.7293 223.636C30.9561 223.346 31.0366 222.967 30.9475 222.61L29.7871 222.899ZM29.2209 222.946L29.3155 224.138C29.326 224.137 29.3366 224.136 29.3471 224.135L29.2209 222.946ZM26.4612 224.054L27.2594 224.945L27.2631 224.941L26.4612 224.054ZM25.412 225.66L24.2737 225.293L24.2725 225.297L25.412 225.66ZM27.7703 237.227L28.0596 238.387C28.7005 238.227 29.0905 237.578 28.9307 236.937L27.7703 237.227ZM26.5966 237.519L22.8093 222.328L20.4884 222.906L24.2757 238.098L26.5966 237.519ZM21.9381 223.777L24.1931 223.215L23.6145 220.894L21.3595 221.457L21.9381 223.777ZM22.7433 222.344L23.3154 224.639L25.6363 224.06L25.0643 221.766L22.7433 222.344ZM24.7652 225.51L24.9234 225.47L24.3448 223.149L24.1866 223.189L24.7652 225.51ZM25.823 224.44C25.8822 223.897 26.1078 223.399 26.5537 222.924L24.8089 221.287C24.0376 222.11 23.5651 223.081 23.4452 224.18L25.823 224.44ZM26.5537 222.924C26.9962 222.452 27.549 222.127 28.2483 221.952L27.6697 219.631C26.5492 219.911 25.5836 220.461 24.8089 221.287L26.5537 222.924ZM28.2483 221.952C28.4063 221.913 28.6106 221.865 28.8638 221.809L28.3449 219.474C28.0805 219.533 27.8546 219.585 27.6697 219.631L28.2483 221.952ZM28.8638 221.809C29.1152 221.753 29.2775 221.722 29.3677 221.709L29.0229 219.342C28.8428 219.368 28.6111 219.415 28.3449 219.474L28.8638 221.809ZM28.0348 220.815L28.6266 223.189L30.9475 222.61L30.3558 220.236L28.0348 220.815ZM29.7878 221.703C29.6273 221.703 29.3702 221.727 29.0947 221.756L29.3471 224.135C29.4889 224.12 29.5992 224.109 29.6806 224.103C29.7723 224.095 29.7978 224.095 29.7863 224.095L29.7878 221.703ZM29.1263 221.754C28.7658 221.782 28.4014 221.844 28.0341 221.936L28.6127 224.256C28.8652 224.194 29.0991 224.155 29.3155 224.138L29.1263 221.754ZM28.0341 221.936C27.1286 222.161 26.3252 222.565 25.6593 223.167L27.2631 224.941C27.6031 224.634 28.0412 224.399 28.6127 224.256L28.0341 221.936ZM25.663 223.163C25.0105 223.748 24.5415 224.463 24.2737 225.293L26.5502 226.027C26.6854 225.608 26.9159 225.253 27.2594 224.945L25.663 223.163ZM24.2725 225.297C24.0024 226.144 23.9936 227.022 24.2131 227.903L26.5341 227.324C26.4116 226.833 26.4285 226.409 26.5514 226.024L24.2725 225.297ZM24.2131 227.903L26.6098 237.516L28.9307 236.937L26.5341 227.324L24.2131 227.903ZM27.481 236.066L25.1468 236.648L25.7255 238.969L28.0596 238.387L27.481 236.066ZM38.1018 240.597L38.0603 239.402C38.0522 239.402 38.044 239.402 38.0359 239.403L38.1018 240.597ZM37.4145 240.579L36.2193 240.535C36.1983 241.112 36.5915 241.621 37.1543 241.746L37.4145 240.579ZM37.4951 238.374L37.5024 237.178C36.856 237.174 36.3235 237.684 36.2999 238.33L37.4951 238.374ZM39.0379 238.157L38.6447 237.028L38.6447 237.028L39.0379 238.157ZM40.0496 237.285L39.0244 236.669C39.0205 236.676 39.0166 236.683 39.0128 236.689L40.0496 237.285ZM40.5724 235.38L41.7615 235.508L41.7616 235.508L40.5724 235.38ZM40.7117 234.084L41.9009 234.212C41.9312 233.93 41.8603 233.647 41.701 233.412L40.7117 234.084ZM31.287 220.214L30.9977 219.054C30.6183 219.148 30.3092 219.422 30.1697 219.787C30.0302 220.153 30.078 220.563 30.2977 220.886L31.287 220.214ZM33.8189 219.583L34.8207 218.93C34.5424 218.503 34.0241 218.299 33.5296 218.422L33.8189 219.583ZM41.0304 230.643L40.0286 231.296C40.3069 231.723 40.8252 231.927 41.3197 231.804L41.0304 230.643ZM41.1887 230.604L41.478 231.764C41.9725 231.641 42.3345 231.218 42.3799 230.71L41.1887 230.604ZM42.3642 217.453L42.0748 216.292C41.5803 216.415 41.2183 216.838 41.1729 217.346L42.3642 217.453ZM44.8961 216.821L46.0848 216.953C46.1279 216.564 45.978 216.179 45.6833 215.921C45.3887 215.663 44.9866 215.566 44.6068 215.661L44.8961 216.821ZM42.7872 235.836L41.5985 235.704L41.5984 235.705L42.7872 235.836ZM42.1949 238.053L41.1182 237.533L41.115 237.539L42.1949 238.053ZM40.99 239.583L40.2563 238.638L40.2522 238.641L40.99 239.583ZM38.8954 239.271C38.5619 239.355 38.2854 239.394 38.0603 239.402L38.1433 241.792C38.5708 241.777 39.0163 241.706 39.474 241.592L38.8954 239.271ZM38.0359 239.403C37.8936 239.411 37.7894 239.412 37.7173 239.41C37.6819 239.409 37.6601 239.408 37.6497 239.407C37.6378 239.406 37.6484 239.406 37.6747 239.412L37.1543 241.746C37.4651 241.816 37.8424 241.809 38.1677 241.791L38.0359 239.403ZM38.6097 240.623L38.6903 238.418L36.2999 238.33L36.2193 240.535L38.6097 240.623ZM37.4878 239.57C38.1839 239.574 38.8416 239.492 39.4311 239.287L38.6447 237.028C38.3835 237.119 38.0127 237.181 37.5024 237.178L37.4878 239.57ZM39.4311 239.287C40.1585 239.034 40.7107 238.535 41.0864 237.882L39.0128 236.689C38.8901 236.902 38.7679 236.985 38.6447 237.028L39.4311 239.287ZM41.0747 237.901C41.4629 237.255 41.6629 236.419 41.7615 235.508L39.3834 235.251C39.2996 236.024 39.151 236.459 39.0244 236.669L41.0747 237.901ZM41.7616 235.508L41.9009 234.212L39.5226 233.956L39.3833 235.252L41.7616 235.508ZM41.701 233.412L32.2762 219.542L30.2977 220.886L39.7225 234.757L41.701 233.412ZM31.5763 221.375L34.1082 220.743L33.5296 218.422L30.9977 219.054L31.5763 221.375ZM32.8171 220.236L40.0286 231.296L42.0323 229.99L34.8207 218.93L32.8171 220.236ZM41.3197 231.804L41.478 231.764L40.8994 229.443L40.7411 229.483L41.3197 231.804ZM42.3799 230.71L43.5554 217.559L41.1729 217.346L39.9974 230.497L42.3799 230.71ZM42.6535 218.613L45.1854 217.982L44.6068 215.661L42.0748 216.292L42.6535 218.613ZM43.7074 216.69L41.5985 235.704L43.9759 235.968L46.0848 216.953L43.7074 216.69ZM41.5984 235.705C41.5153 236.459 41.3466 237.06 41.1182 237.533L43.2716 238.574C43.6439 237.804 43.8702 236.927 43.976 235.967L41.5984 235.705ZM41.115 237.539C40.8893 238.014 40.6007 238.371 40.2563 238.638L41.7236 240.527C42.3884 240.011 42.9031 239.348 43.2749 238.567L41.115 237.539ZM40.2522 238.641C39.905 238.913 39.4619 239.13 38.8954 239.271L39.474 241.592C40.3185 241.382 41.079 241.032 41.7277 240.524L40.2522 238.641ZM59.5974 229.292L58.437 229.581C58.5967 230.222 59.2458 230.612 59.8867 230.452L59.5974 229.292ZM55.8101 214.1L55.5208 212.94C54.8799 213.1 54.4898 213.749 54.6496 214.39L55.8101 214.1ZM58.1442 213.519L59.3047 213.229C59.1449 212.588 58.4958 212.198 57.8549 212.358L58.1442 213.519ZM61.9315 228.71L62.2209 229.871C62.8618 229.711 63.2518 229.062 63.092 228.421L61.9315 228.71ZM55.0729 211.101L54.4783 212.139L54.4889 212.145L55.0729 211.101ZM54.5156 208.866L53.51 208.219L53.5035 208.229L54.5156 208.866ZM56.8596 208.282L56.2651 209.319L56.2756 209.325L56.8596 208.282ZM57.4169 210.517L56.4112 209.869L56.4048 209.88L57.4169 210.517ZM60.7579 229.003L56.9706 213.811L54.6496 214.39L58.437 229.581L60.7579 229.003ZM56.0994 215.261L58.4335 214.679L57.8549 212.358L55.5208 212.94L56.0994 215.261ZM56.9837 213.808L60.7711 228.999L63.092 228.421L59.3047 213.229L56.9837 213.808ZM61.6422 227.55L59.3081 228.132L59.8867 230.452L62.2209 229.871L61.6422 227.55ZM56.0764 210.112C55.915 210.152 55.7966 210.136 55.6569 210.058L54.4889 212.145C55.1631 212.522 55.9065 212.62 56.655 212.433L56.0764 210.112ZM55.6674 210.063C55.5406 209.991 55.4972 209.924 55.4701 209.815L53.1492 210.394C53.339 211.155 53.8044 211.753 54.4784 212.139L55.6674 210.063ZM55.4701 209.815C55.4429 209.706 55.4499 209.627 55.5277 209.503L53.5035 208.229C53.0897 208.886 52.9593 209.632 53.1492 210.394L55.4701 209.815ZM55.5212 209.513C55.6079 209.379 55.7046 209.308 55.866 209.268L55.2874 206.947C54.5389 207.134 53.9282 207.569 53.51 208.219L55.5212 209.513ZM55.866 209.268C56.027 209.228 56.1373 209.246 56.2651 209.319L57.4542 207.244C56.7812 206.858 56.0363 206.761 55.2874 206.947L55.866 209.268ZM56.2756 209.325C56.4074 209.399 56.4472 209.464 56.4723 209.565L58.7932 208.987C58.6014 208.217 58.1257 207.62 57.4437 207.238L56.2756 209.325ZM56.4723 209.565C56.4975 209.666 56.493 209.742 56.4113 209.869L58.4225 211.164C58.8456 210.507 58.9851 209.756 58.7932 208.987L56.4723 209.565ZM56.4048 209.88C56.3263 210.004 56.2374 210.072 56.0764 210.112L56.655 212.433C57.404 212.246 58.0158 211.81 58.429 211.154L56.4048 209.88ZM69.0261 210.806L70.1865 210.516C70.0268 209.875 69.3777 209.485 68.7368 209.645L69.0261 210.806ZM69.5192 212.784L69.8085 213.944C70.4494 213.784 70.8395 213.135 70.6797 212.494L69.5192 212.784ZM61.6465 214.746L60.486 215.036C60.6458 215.677 61.2949 216.067 61.9358 215.907L61.6465 214.746ZM61.1534 212.768L60.864 211.608C60.2231 211.768 59.8331 212.417 59.9929 213.058L61.1534 212.768ZM62.5405 208.557L62.2512 207.396C61.6103 207.556 61.2203 208.205 61.3801 208.846L62.5405 208.557ZM64.8747 207.975L66.0351 207.685C65.8753 207.045 65.2263 206.654 64.5853 206.814L64.8747 207.975ZM69.1411 223.866L68.2824 224.699C68.289 224.706 68.2957 224.712 68.3025 224.719L69.1411 223.866ZM70.0555 224.332L69.9246 225.52C69.9349 225.522 69.9452 225.523 69.9554 225.523L70.0555 224.332ZM71.6972 224.048L72.1663 225.149C72.1805 225.143 72.1946 225.136 72.2085 225.13L71.6972 224.048ZM72.0731 223.871L73.1411 223.332C72.849 222.753 72.1483 222.512 71.5619 222.789L72.0731 223.871ZM73.0706 225.849L73.749 226.834C74.2413 226.495 74.4077 225.844 74.1385 225.311L73.0706 225.849ZM72.4523 226.192L71.9314 225.116C71.9235 225.12 71.9156 225.123 71.9077 225.128L72.4523 226.192ZM69.3544 226.618L69.1394 227.794L69.1441 227.795L69.3544 226.618ZM67.4687 225.712L66.6867 226.617L66.6935 226.623L67.4687 225.712ZM67.8656 211.095L68.3587 213.073L70.6797 212.494L70.1865 210.516L67.8656 211.095ZM69.2299 211.623L61.3572 213.586L61.9358 215.907L69.8085 213.944L69.2299 211.623ZM62.807 214.457L62.3138 212.479L59.9929 213.058L60.486 215.036L62.807 214.457ZM61.4427 213.929L69.3154 211.966L68.7368 209.645L60.864 211.608L61.4427 213.929ZM62.8298 209.717L65.164 209.135L64.5853 206.814L62.2512 207.396L62.8298 209.717ZM63.7142 208.264L67.324 222.744L69.6449 222.165L66.0351 207.685L63.7142 208.264ZM67.324 222.744C67.5069 223.477 67.7909 224.192 68.2824 224.699L69.9998 223.034C69.9446 222.977 69.7908 222.75 69.6449 222.165L67.324 222.744ZM68.3025 224.719C68.7381 225.147 69.2823 225.45 69.9246 225.52L70.1864 223.143C70.1663 223.141 70.1009 223.133 69.9798 223.014L68.3025 224.719ZM69.9554 225.523C70.4284 225.563 70.8994 225.522 71.3634 225.406L70.7848 223.085C70.5631 223.141 70.3551 223.157 70.1556 223.14L69.9554 225.523ZM71.3634 225.406C71.653 225.334 71.9276 225.25 72.1663 225.149L71.2282 222.948C71.1504 222.981 71.0096 223.029 70.7848 223.085L71.3634 225.406ZM72.2085 225.13C72.3651 225.056 72.4904 224.996 72.5844 224.952L71.5619 222.789C71.4679 222.834 71.3426 222.893 71.186 222.967L72.2085 225.13ZM71.0052 224.409L72.0027 226.387L74.1385 225.311L73.1411 223.332L71.0052 224.409ZM72.3922 224.864C72.3219 224.913 72.1781 224.996 71.9314 225.116L72.9732 227.269C73.264 227.128 73.5325 226.983 73.749 226.834L72.3922 224.864ZM71.9077 225.128C71.7511 225.208 71.4953 225.303 71.1096 225.399L71.6883 227.72C72.1729 227.6 72.6194 227.45 72.997 227.257L71.9077 225.128ZM71.1096 225.399C70.6222 225.521 70.1113 225.538 69.5648 225.441L69.1441 227.795C70.0048 227.949 70.8569 227.928 71.6883 227.72L71.1096 225.399ZM69.5694 225.441C69.0872 225.353 68.6501 225.147 68.2439 224.801L66.6935 226.623C67.4074 227.23 68.2275 227.628 69.1394 227.794L69.5694 225.441ZM68.2508 224.807C67.9252 224.526 67.644 224.083 67.4686 223.38L65.1477 223.958C65.4129 225.022 65.9053 225.941 66.6867 226.617L68.2508 224.807ZM67.4686 223.38L63.701 208.267L61.3801 208.846L65.1477 223.958L67.4686 223.38ZM86.554 221.868L86.1765 223.003L86.1798 223.004L86.554 221.868ZM83.4578 219.73L82.5422 220.499L82.5457 220.503L83.4578 219.73ZM81.3989 211.471L80.2298 211.219L80.2287 211.224L81.3989 211.471ZM83.1267 208.12L82.263 207.293L82.2606 207.295L83.1267 208.12ZM90.3368 206.323L89.9592 207.458L89.9625 207.459L90.3368 206.323ZM93.4355 208.471L92.5182 209.238L92.5217 209.242L93.4355 208.471ZM95.4943 216.729L94.3258 216.474L94.3247 216.479L95.4943 216.729ZM93.7641 220.07L92.9004 219.243L92.898 219.245L93.7641 220.07ZM92.2572 218.408L91.3089 217.679L91.3089 217.679L92.2572 218.408ZM93.2254 215.929L94.414 216.062L94.414 216.062L93.2254 215.929ZM91.8126 210.262L92.8015 209.589L92.8015 209.589L91.8126 210.262ZM89.789 208.508L90.2906 207.422L90.2906 207.422L89.789 208.508ZM84.646 209.79L83.6934 209.067L83.6934 209.067L84.646 209.79ZM83.6827 212.289L82.4937 212.159L82.4937 212.159L83.6827 212.289ZM85.0955 217.956L84.1083 218.631L84.1083 218.631L85.0955 217.956ZM87.1142 219.69L87.6093 218.601L87.6093 218.601L87.1142 219.69ZM90.1188 220.786C88.9392 221.081 87.8866 221.048 86.9283 220.732L86.1798 223.004C87.6173 223.477 89.1341 223.497 90.6974 223.107L90.1188 220.786ZM86.9316 220.733C85.9637 220.411 85.1119 219.831 84.3698 218.956L82.5457 220.503C83.5493 221.687 84.7617 222.532 86.1765 223.003L86.9316 220.733ZM84.3733 218.96C83.6455 218.094 83.088 216.968 82.7321 215.541L80.4111 216.119C80.8376 217.83 81.5376 219.304 82.5422 220.499L84.3733 218.96ZM82.7321 215.541C82.3725 214.098 82.334 212.832 82.5691 211.718L80.2287 211.224C79.905 212.758 79.9817 214.397 80.4111 216.119L82.7321 215.541ZM82.568 211.724C82.8114 210.596 83.2907 209.682 83.9928 208.945L82.2606 207.295C81.231 208.377 80.5584 209.697 80.2299 211.219L82.568 211.724ZM83.9904 208.947C84.6883 208.219 85.6023 207.696 86.7819 207.402L86.2033 205.081C84.64 205.47 83.31 206.2 82.263 207.293L83.9904 208.947ZM86.7819 207.402C87.9616 207.107 89.0095 207.142 89.9592 207.458L90.7143 205.188C89.2813 204.711 87.7664 204.691 86.2033 205.081L86.7819 207.402ZM89.9625 207.459C90.9332 207.778 91.7827 208.359 92.5182 209.238L94.3527 207.703C93.3525 206.508 92.1362 205.656 90.711 205.187L89.9625 207.459ZM92.5217 209.242C93.2565 210.112 93.8194 211.246 94.1785 212.687L96.4994 212.108C96.0695 210.384 95.3634 208.9 94.3493 207.699L92.5217 209.242ZM94.1785 212.687C94.534 214.113 94.5673 215.368 94.3258 216.474L96.6628 216.984C96.9967 215.454 96.9264 213.821 96.4994 212.108L94.1785 212.687ZM94.3247 216.479C94.0868 217.594 93.6088 218.503 92.9004 219.243L94.6278 220.898C95.6643 219.815 96.3398 218.497 96.664 216.979L94.3247 216.479ZM92.898 219.245C92.2078 219.97 91.2986 220.492 90.1188 220.786L90.6974 223.107C92.2606 222.718 93.5887 221.989 94.6302 220.895L92.898 219.245ZM90.1747 221.011C91.4209 220.7 92.4685 220.096 93.2054 219.137L91.3089 217.679C90.967 218.124 90.4334 218.481 89.5961 218.69L90.1747 221.011ZM93.2054 219.137C93.8886 218.248 94.2857 217.211 94.414 216.062L92.0368 215.796C91.9529 216.549 91.7045 217.164 91.3089 217.679L93.2054 219.137ZM94.414 216.062C94.5373 214.957 94.4496 213.831 94.1653 212.69L91.8444 213.269C92.0664 214.159 92.1257 214.999 92.0368 215.796L94.414 216.062ZM94.1653 212.69C93.881 211.55 93.4291 210.512 92.8015 209.589L90.8236 210.935C91.2794 211.605 91.6224 212.378 91.8444 213.269L94.1653 212.69ZM92.8015 209.589C92.1483 208.629 91.3111 207.894 90.2906 207.422L89.2874 209.593C89.8816 209.868 90.3934 210.302 90.8237 210.935L92.8015 209.589ZM90.2906 207.422C89.1875 206.912 87.9755 206.866 86.726 207.177L87.3046 209.498C88.1387 209.29 88.7758 209.357 89.2874 209.593L90.2906 207.422ZM86.726 207.177C85.4765 207.489 84.4282 208.099 83.6934 209.067L85.5986 210.513C85.9393 210.064 86.4705 209.706 87.3046 209.498L86.726 207.177ZM83.6934 209.067C83.0137 209.962 82.6197 211.004 82.4937 212.159L84.8716 212.418C84.9546 211.658 85.2028 211.034 85.5986 210.513L83.6934 209.067ZM82.4937 212.159C82.3727 213.268 82.4609 214.397 82.7452 215.537L85.0662 214.959C84.8442 214.068 84.7837 213.224 84.8716 212.418L82.4937 212.159ZM82.7452 215.537C83.0295 216.678 83.4808 217.713 84.1083 218.631L86.0828 217.281C85.6301 216.619 85.2882 215.849 85.0662 214.959L82.7452 215.537ZM84.1083 218.631C84.7612 219.586 85.5986 220.315 86.6191 220.779L87.6093 218.601C87.0184 218.333 86.51 217.905 86.0828 217.281L84.1083 218.631ZM86.6191 220.779C87.7197 221.279 88.9285 221.321 90.1747 221.011L89.5961 218.69C88.7587 218.898 88.12 218.834 87.6093 218.601L86.6191 220.779ZM106.562 201.448L106.273 200.287C105.632 200.447 105.242 201.096 105.402 201.737L106.562 201.448ZM108.897 200.866L110.057 200.576C109.897 199.936 109.248 199.546 108.607 199.705L108.897 200.866ZM112.684 216.057L112.973 217.218C113.614 217.058 114.004 216.409 113.844 215.768L112.684 216.057ZM110.35 216.639L109.189 216.929C109.349 217.569 109.998 217.959 110.639 217.8L110.35 216.639ZM109.709 214.068L110.869 213.778C110.709 213.138 110.06 212.748 109.419 212.907L109.709 214.068ZM109.55 214.107L109.261 212.947C108.808 213.06 108.463 213.425 108.376 213.884L109.55 214.107ZM108.38 216.49L109.288 217.268L109.292 217.263L108.38 216.49ZM103.044 218.009L102.719 219.16L102.727 219.162L103.044 218.009ZM100.829 216.544L99.9185 217.319L99.9209 217.322L100.829 216.544ZM96.9886 203.834L96.6993 202.674C96.0584 202.834 95.6683 203.483 95.8281 204.124L96.9886 203.834ZM99.3227 203.253L100.483 202.963C100.323 202.322 99.6743 201.932 99.0334 202.092L99.3227 203.253ZM103.28 215.166L102.633 216.172L102.638 216.175L103.28 215.166ZM107.58 214.672L106.81 213.757L106.806 213.76L107.58 214.672ZM108.763 212.927L107.64 212.516L107.637 212.524L108.763 212.927ZM109.962 210.139L107.723 201.158L105.402 201.737L107.641 210.717L109.962 210.139ZM106.852 202.608L109.186 202.026L108.607 199.705L106.273 200.287L106.852 202.608ZM107.736 201.155L111.523 216.347L113.844 215.768L110.057 200.576L107.736 201.155ZM112.395 214.897L110.06 215.479L110.639 217.8L112.973 217.218L112.395 214.897ZM111.51 216.35L110.869 213.778L108.548 214.357L109.189 216.929L111.51 216.35ZM109.419 212.907L109.261 212.947L109.84 215.268L109.998 215.228L109.419 212.907ZM108.376 213.884C108.254 214.523 107.963 215.131 107.467 215.716L109.292 217.263C110.03 216.392 110.52 215.412 110.725 214.331L108.376 213.884ZM107.472 215.711C107.05 216.203 106.407 216.6 105.442 216.84L106.02 219.161C107.349 218.83 108.472 218.22 109.288 217.268L107.472 215.711ZM105.442 216.84C104.667 217.034 103.981 217.026 103.36 216.856L102.727 219.162C103.79 219.454 104.896 219.442 106.02 219.161L105.442 216.84ZM103.368 216.858C102.776 216.691 102.234 216.346 101.738 215.766L99.9209 217.322C100.689 218.22 101.624 218.851 102.719 219.16L103.368 216.858ZM101.74 215.769C101.261 215.205 100.848 214.373 100.556 213.198L98.2346 213.777C98.5861 215.187 99.1298 216.392 99.9185 217.319L101.74 215.769ZM100.556 213.198L98.149 203.545L95.8281 204.124L98.2346 213.777L100.556 213.198ZM97.2779 204.995L99.612 204.413L99.0334 202.092L96.6993 202.674L97.2779 204.995ZM98.1622 203.542L100.529 213.037L102.85 212.458L100.483 202.963L98.1622 203.542ZM100.529 213.037C100.862 214.37 101.538 215.467 102.633 216.172L103.928 214.161C103.454 213.856 103.07 213.34 102.85 212.458L100.529 213.037ZM102.638 216.175C103.725 216.867 104.946 217.034 106.21 216.719L105.631 214.398C104.956 214.566 104.417 214.472 103.922 214.157L102.638 216.175ZM106.21 216.719C106.994 216.523 107.709 216.131 108.353 215.584L106.806 213.76C106.399 214.106 106.007 214.304 105.631 214.398L106.21 216.719ZM108.35 215.587C109.059 214.991 109.568 214.226 109.889 213.33L107.637 212.524C107.445 213.059 107.166 213.457 106.81 213.757L108.35 215.587ZM109.886 213.339C110.251 212.342 110.24 211.255 109.962 210.139L107.641 210.717C107.836 211.5 107.799 212.08 107.64 212.516L109.886 213.339ZM119.778 198.153L120.939 197.864C120.779 197.223 120.13 196.833 119.489 196.992L119.778 198.153ZM120.272 200.131L120.561 201.291C121.202 201.132 121.592 200.483 121.432 199.842L120.272 200.131ZM112.399 202.094L111.238 202.383C111.398 203.024 112.047 203.414 112.688 203.254L112.399 202.094ZM111.906 200.116L111.616 198.955C110.975 199.115 110.585 199.764 110.745 200.405L111.906 200.116ZM113.293 195.904L113.004 194.743C112.363 194.903 111.973 195.552 112.132 196.193L113.293 195.904ZM115.627 195.322L116.787 195.033C116.628 194.392 115.979 194.002 115.338 194.162L115.627 195.322ZM119.893 211.213L119.035 212.046C119.041 212.053 119.048 212.06 119.055 212.066L119.893 211.213ZM120.808 211.679L120.677 212.868C120.687 212.869 120.697 212.87 120.708 212.871L120.808 211.679ZM122.45 211.396L122.919 212.496C122.933 212.49 122.947 212.483 122.961 212.477L122.45 211.396ZM122.825 211.218L123.893 210.679C123.601 210.1 122.901 209.859 122.314 210.137L122.825 211.218ZM123.823 213.196L124.501 214.181C124.994 213.842 125.16 213.192 124.891 212.658L123.823 213.196ZM123.205 213.54L122.684 212.463C122.676 212.467 122.668 212.471 122.66 212.475L123.205 213.54ZM120.107 213.965L119.892 215.142L119.896 215.143L120.107 213.965ZM118.221 213.059L117.439 213.964L117.446 213.97L118.221 213.059ZM118.618 198.442L119.111 200.42L121.432 199.842L120.939 197.864L118.618 198.442ZM119.982 198.97L112.11 200.933L112.688 203.254L120.561 201.291L119.982 198.97ZM113.559 201.804L113.066 199.826L110.745 200.405L111.238 202.383L113.559 201.804ZM112.195 201.276L120.068 199.313L119.489 196.992L111.616 198.955L112.195 201.276ZM113.582 197.064L115.916 196.482L115.338 194.162L113.004 194.743L113.582 197.064ZM114.467 195.611L118.076 210.091L120.397 209.512L116.787 195.033L114.467 195.611ZM118.076 210.091C118.259 210.824 118.543 211.539 119.035 212.046L120.752 210.381C120.697 210.324 120.543 210.097 120.397 209.512L118.076 210.091ZM119.055 212.066C119.49 212.495 120.035 212.797 120.677 212.868L120.939 210.49C120.919 210.488 120.853 210.48 120.732 210.361L119.055 212.066ZM120.708 212.871C121.181 212.91 121.652 212.869 122.116 212.753L121.537 210.433C121.315 210.488 121.107 210.504 120.908 210.487L120.708 212.871ZM122.116 212.753C122.405 212.681 122.68 212.598 122.919 212.496L121.981 210.295C121.903 210.329 121.762 210.376 121.537 210.433L122.116 212.753ZM122.961 212.477C123.117 212.403 123.243 212.344 123.337 212.299L122.314 210.137C122.22 210.181 122.095 210.24 121.938 210.314L122.961 212.477ZM121.758 211.756L122.755 213.735L124.891 212.658L123.893 210.679L121.758 211.756ZM123.145 212.211C123.074 212.26 122.93 212.344 122.684 212.463L123.726 214.616C124.016 214.475 124.285 214.33 124.501 214.181L123.145 212.211ZM122.66 212.475C122.503 212.555 122.248 212.651 121.862 212.747L122.441 215.068C122.925 214.947 123.372 214.797 123.749 214.604L122.66 212.475ZM121.862 212.747C121.375 212.868 120.864 212.885 120.317 212.788L119.896 215.143C120.757 215.296 121.609 215.275 122.441 215.068L121.862 212.747ZM120.322 212.789C119.84 212.701 119.402 212.494 118.996 212.148L117.446 213.97C118.16 214.577 118.98 214.975 119.892 215.142L120.322 212.789ZM119.003 212.154C118.678 211.873 118.396 211.43 118.221 210.727L115.9 211.306C116.165 212.369 116.658 213.289 117.439 213.964L119.003 212.154ZM118.221 210.727L114.453 195.615L112.132 196.193L115.9 211.306L118.221 210.727ZM137.244 209.934L137.533 211.095C138.174 210.935 138.564 210.286 138.405 209.645L137.244 209.934ZM134.91 210.516L133.749 210.806C133.909 211.446 134.558 211.837 135.199 211.677L134.91 210.516ZM129.86 190.261L129.571 189.1C128.93 189.26 128.54 189.909 128.7 190.55L129.86 190.261ZM132.194 189.679L133.355 189.39C133.195 188.749 132.546 188.359 131.905 188.518L132.194 189.679ZM134.049 197.116L132.888 197.406C133.048 198.047 133.697 198.437 134.338 198.277L134.049 197.116ZM134.246 197.067L134.536 198.228C134.991 198.114 135.338 197.745 135.423 197.283L134.246 197.067ZM135.383 194.798L136.257 195.615L136.258 195.613L135.383 194.798ZM140.951 193.326L140.66 194.486L140.667 194.488L140.951 193.326ZM143.232 194.764L142.326 195.545L142.333 195.553L143.232 194.764ZM147.095 207.479L147.384 208.639C148.025 208.479 148.415 207.83 148.255 207.189L147.095 207.479ZM144.761 208.06L143.6 208.35C143.76 208.991 144.409 209.381 145.05 209.221L144.761 208.06ZM140.756 196.001L140.104 197.003L140.114 197.01L140.756 196.001ZM135.99 196.643L135.189 195.755L135.185 195.758L135.99 196.643ZM134.918 198.412L133.765 198.095L133.762 198.104L134.918 198.412ZM133.805 201.085L136.084 210.224L138.405 209.645L136.126 200.506L133.805 201.085ZM136.955 208.774L134.621 209.356L135.199 211.677L137.533 211.095L136.955 208.774ZM136.07 210.227L131.021 189.972L128.7 190.55L133.749 210.806L136.07 210.227ZM130.15 191.421L132.484 190.839L131.905 188.518L129.571 189.1L130.15 191.421ZM131.034 189.968L132.888 197.406L135.209 196.827L133.355 189.39L131.034 189.968ZM134.338 198.277L134.536 198.228L133.957 195.907L133.759 195.956L134.338 198.277ZM135.423 197.283C135.542 196.631 135.818 196.084 136.257 195.615L134.509 193.982C133.753 194.791 133.271 195.756 133.07 196.851L135.423 197.283ZM136.258 195.613C136.652 195.19 137.312 194.804 138.365 194.542L137.786 192.221C136.453 192.553 135.317 193.113 134.507 193.984L136.258 195.613ZM138.365 194.542C139.243 194.323 139.999 194.32 140.66 194.486L141.242 192.166C140.139 191.889 138.979 191.923 137.786 192.221L138.365 194.542ZM140.667 194.488C141.284 194.639 141.833 194.973 142.326 195.545L144.138 193.983C143.349 193.068 142.377 192.443 141.235 192.164L140.667 194.488ZM142.333 195.553C142.815 196.102 143.232 196.929 143.528 198.115L145.849 197.536C145.494 196.111 144.94 194.897 144.131 193.975L142.333 195.553ZM143.528 198.115L145.934 207.768L148.255 207.189L145.849 197.536L143.528 198.115ZM146.806 206.318L144.471 206.9L145.05 209.221L147.384 208.639L146.806 206.318ZM145.921 207.771L143.554 198.276L141.233 198.855L143.6 208.35L145.921 207.771ZM143.554 198.276C143.204 196.872 142.523 195.708 141.398 194.992L140.114 197.01C140.571 197.301 140.982 197.846 141.233 198.855L143.554 198.276ZM141.409 194.999C140.287 194.269 138.987 194.149 137.637 194.485L138.215 196.806C139.067 196.594 139.654 196.71 140.104 197.003L141.409 194.999ZM137.637 194.485C136.703 194.718 135.876 195.135 135.189 195.755L136.79 197.531C137.155 197.203 137.619 196.955 138.215 196.806L137.637 194.485ZM135.185 195.758C134.49 196.39 134.017 197.18 133.765 198.095L136.071 198.73C136.208 198.231 136.45 197.841 136.794 197.528L135.185 195.758ZM133.762 198.104C133.51 199.048 133.548 200.053 133.805 201.085L136.126 200.506C135.943 199.771 135.949 199.188 136.073 198.721L133.762 198.104ZM153.784 205.118L153.419 206.257L153.427 206.259L153.784 205.118ZM150.66 202.997L149.741 203.762L149.746 203.768L150.66 202.997ZM148.614 194.788L147.442 194.546L147.442 194.549L148.614 194.788ZM150.312 191.402L151.188 192.216L151.189 192.215L150.312 191.402ZM156.103 189.307L156.205 188.115L156.205 188.115L156.103 189.307ZM158.53 190.068L157.948 191.112L157.953 191.115L158.53 190.068ZM160.625 192.024L161.603 191.335L161.603 191.335L160.625 192.024ZM162.328 196.453L162.618 197.614C163.258 197.454 163.649 196.805 163.489 196.164L162.328 196.453ZM150.618 199.373L149.458 199.662C149.617 200.303 150.267 200.693 150.907 200.533L150.618 199.373ZM150.115 197.355L149.826 196.195C149.185 196.354 148.795 197.003 148.955 197.644L150.115 197.355ZM159.452 195.027L159.741 196.188C160.382 196.028 160.772 195.379 160.612 194.738L159.452 195.027ZM158.365 192.861L157.457 193.639L157.463 193.646L158.365 192.861ZM156.524 191.629L156.152 192.765L156.158 192.767L156.524 191.629ZM151.942 192.887L152.832 193.686L152.834 193.684L151.942 192.887ZM150.834 195.054L149.665 194.798L149.665 194.798L150.834 195.054ZM152.533 201.658L151.621 202.433L151.629 202.442L152.533 201.658ZM154.655 203.051L154.32 204.2L154.328 204.202L154.655 203.051ZM158.888 202.374L159.542 203.376L159.549 203.371L158.888 202.374ZM159.986 201.26L161 201.895L161.006 201.886L159.986 201.26ZM160.497 199.725L160.532 198.53C159.911 198.512 159.379 198.972 159.309 199.589L160.497 199.725ZM162.91 199.796L164.104 199.864C164.122 199.541 164.009 199.225 163.791 198.987C163.572 198.75 163.267 198.61 162.945 198.601L162.91 199.796ZM162.216 202.112L163.248 202.716L163.251 202.71L162.216 202.112ZM160.474 203.975L161.16 204.955L161.167 204.95L160.474 203.975ZM157.524 203.982C156.235 204.303 155.118 204.281 154.14 203.976L153.427 206.259C154.894 206.717 156.464 206.711 158.103 206.303L157.524 203.982ZM154.148 203.979C153.155 203.661 152.301 203.086 151.574 202.225L149.746 203.768C150.749 204.956 151.977 205.795 153.419 206.257L154.148 203.979ZM151.579 202.232C150.855 201.362 150.302 200.24 149.949 198.825L147.628 199.404C148.052 201.101 148.746 202.567 149.741 203.762L151.579 202.232ZM149.949 198.825C149.597 197.411 149.556 196.151 149.786 195.027L147.442 194.549C147.129 196.081 147.205 197.706 147.628 199.404L149.949 198.825ZM149.785 195.03C150.021 193.889 150.493 192.963 151.188 192.216L149.436 190.588C148.418 191.682 147.759 193.014 147.442 194.546L149.785 195.03ZM151.189 192.215C151.874 191.476 152.777 190.949 153.95 190.656L153.371 188.335C151.801 188.727 150.472 189.47 149.435 190.589L151.189 192.215ZM153.95 190.656C154.609 190.492 155.291 190.438 156.001 190.499L156.205 188.115C155.24 188.033 154.294 188.105 153.371 188.335L153.95 190.656ZM156.001 190.499C156.659 190.555 157.305 190.754 157.948 191.112L159.113 189.023C158.194 188.51 157.222 188.202 156.205 188.115L156.001 190.499ZM157.953 191.115C158.545 191.441 159.114 191.957 159.648 192.714L161.603 191.335C160.902 190.341 160.075 189.553 159.107 189.02L157.953 191.115ZM159.648 192.714C160.155 193.433 160.591 194.431 160.921 195.754L163.242 195.175C162.865 193.663 162.33 192.367 161.603 191.335L159.648 192.714ZM160.921 195.754L161.168 196.743L163.489 196.164L163.242 195.175L160.921 195.754ZM162.039 195.293L150.329 198.212L150.907 200.533L162.618 197.614L162.039 195.293ZM151.779 199.083L151.276 197.066L148.955 197.644L149.458 199.662L151.779 199.083ZM150.404 198.516L159.741 196.188L159.162 193.867L149.826 196.195L150.404 198.516ZM160.612 194.738C160.359 193.723 159.918 192.824 159.268 192.076L157.463 193.646C157.834 194.072 158.117 194.618 158.291 195.317L160.612 194.738ZM159.274 192.083C158.629 191.33 157.829 190.792 156.891 190.49L156.158 192.767C156.666 192.931 157.094 193.215 157.457 193.639L159.274 192.083ZM156.896 190.492C155.934 190.177 154.922 190.176 153.894 190.432L154.472 192.753C155.132 192.589 155.681 192.611 156.152 192.765L156.896 190.492ZM153.894 190.432C152.763 190.714 151.795 191.257 151.051 192.089L152.834 193.684C153.218 193.255 153.744 192.935 154.472 192.753L153.894 190.432ZM151.053 192.087C150.354 192.865 149.889 193.775 149.665 194.798L152.002 195.31C152.138 194.688 152.412 194.153 152.832 193.686L151.053 192.087ZM149.665 194.798C149.445 195.805 149.464 196.821 149.716 197.833L152.037 197.254C151.872 196.591 151.862 195.948 152.002 195.31L149.665 194.798ZM149.716 197.833L150.051 199.178L152.372 198.599L152.037 197.254L149.716 197.833ZM150.051 199.178C150.369 200.454 150.878 201.559 151.621 202.433L153.444 200.884C152.998 200.359 152.626 199.617 152.372 198.599L150.051 199.178ZM151.629 202.442C152.367 203.293 153.267 203.892 154.32 204.2L154.99 201.903C154.412 201.735 153.897 201.406 153.436 200.874L151.629 202.442ZM154.328 204.202C155.372 204.498 156.465 204.484 157.58 204.206L157.001 201.885C156.231 202.077 155.567 202.067 154.982 201.901L154.328 204.202ZM157.58 204.206C158.301 204.027 158.961 203.755 159.542 203.376L158.235 201.373C157.912 201.583 157.507 201.759 157.001 201.885L157.58 204.206ZM159.549 203.371C160.14 202.979 160.629 202.487 161 201.895L158.973 200.625C158.793 200.913 158.55 201.164 158.227 201.378L159.549 203.371ZM161.006 201.886C161.38 201.275 161.601 200.593 161.685 199.862L159.309 199.589C159.26 200.011 159.14 200.352 158.967 200.635L161.006 201.886ZM160.462 200.921L162.874 200.992L162.945 198.601L160.532 198.53L160.462 200.921ZM161.715 199.728C161.679 200.364 161.503 200.955 161.18 201.514L163.251 202.71C163.76 201.829 164.046 200.876 164.104 199.864L161.715 199.728ZM161.184 201.508C160.86 202.061 160.401 202.559 159.781 203L161.167 204.95C162.034 204.333 162.736 203.59 163.248 202.716L161.184 201.508ZM159.788 202.995C159.181 203.421 158.433 203.755 157.524 203.982L158.103 206.303C159.25 206.017 160.277 205.573 161.16 204.955L159.788 202.995ZM167.575 202.373L166.415 202.662C166.575 203.303 167.224 203.693 167.865 203.533L167.575 202.373ZM163.788 187.181L163.499 186.021C162.858 186.18 162.468 186.829 162.628 187.47L163.788 187.181ZM166.043 186.619L167.203 186.33C167.044 185.689 166.395 185.299 165.754 185.458L166.043 186.619ZM166.615 188.913L165.455 189.203C165.614 189.844 166.263 190.234 166.904 190.074L166.615 188.913ZM166.773 188.874L167.063 190.034C167.549 189.913 167.908 189.502 167.962 189.004L166.773 188.874ZM167.82 186.67L166.948 185.851L166.948 185.851L167.82 186.67ZM171.334 185.09L172.495 184.8C172.346 184.204 171.77 183.818 171.162 183.906L171.334 185.09ZM171.926 187.463L171.925 188.659C172.294 188.66 172.642 188.49 172.868 188.2C173.095 187.91 173.176 187.531 173.087 187.174L171.926 187.463ZM171.36 187.51L171.455 188.702C171.465 188.701 171.476 188.7 171.486 188.699L171.36 187.51ZM168.6 188.618L169.399 189.509L169.402 189.505L168.6 188.618ZM167.551 190.224L166.413 189.857L166.412 189.861L167.551 190.224ZM169.909 201.791L170.199 202.951C170.84 202.791 171.23 202.142 171.07 201.501L169.909 201.791ZM168.736 202.083L164.948 186.892L162.628 187.47L166.415 202.662L168.736 202.083ZM164.077 188.342L166.332 187.779L165.754 185.458L163.499 186.021L164.077 188.342ZM164.883 186.908L165.455 189.203L167.776 188.624L167.203 186.33L164.883 186.908ZM166.904 190.074L167.063 190.034L166.484 187.714L166.326 187.753L166.904 190.074ZM167.962 189.004C168.021 188.461 168.247 187.963 168.693 187.488L166.948 185.851C166.177 186.674 165.704 187.645 165.584 188.744L167.962 189.004ZM168.693 187.488C169.135 187.016 169.688 186.691 170.388 186.516L169.809 184.195C168.688 184.475 167.723 185.025 166.948 185.851L168.693 187.488ZM170.388 186.516C170.545 186.477 170.75 186.429 171.003 186.373L170.484 184.038C170.22 184.097 169.994 184.149 169.809 184.195L170.388 186.516ZM171.003 186.373C171.254 186.317 171.417 186.286 171.507 186.273L171.162 183.906C170.982 183.932 170.75 183.979 170.484 184.038L171.003 186.373ZM170.174 185.379L170.766 187.753L173.087 187.174L172.495 184.8L170.174 185.379ZM171.927 186.267C171.766 186.267 171.509 186.291 171.234 186.321L171.486 188.699C171.628 188.684 171.738 188.674 171.82 188.667C171.911 188.659 171.937 188.659 171.925 188.659L171.927 186.267ZM171.265 186.318C170.905 186.346 170.541 186.408 170.173 186.5L170.752 188.821C171.004 188.758 171.238 188.719 171.455 188.702L171.265 186.318ZM170.173 186.5C169.268 186.725 168.464 187.129 167.798 187.731L169.402 189.505C169.742 189.198 170.18 188.963 170.752 188.821L170.173 186.5ZM167.802 187.727C167.15 188.312 166.681 189.027 166.413 189.857L168.689 190.592C168.825 190.173 169.055 189.817 169.399 189.509L167.802 187.727ZM166.412 189.861C166.142 190.708 166.133 191.586 166.352 192.467L168.673 191.888C168.551 191.397 168.568 190.973 168.691 190.588L166.412 189.861ZM166.352 192.467L168.749 202.08L171.07 201.501L168.673 191.888L166.352 192.467ZM169.62 200.63L167.286 201.212L167.865 203.533L170.199 202.951L169.62 200.63ZM179.894 198.608L179.53 199.747L179.538 199.75L179.894 198.608ZM176.771 196.487L175.852 197.253L175.857 197.259L176.771 196.487ZM174.724 188.278L173.553 188.036L173.552 188.039L174.724 188.278ZM176.422 184.893L177.298 185.707L177.3 185.706L176.422 184.893ZM182.214 182.798L182.315 181.606L182.315 181.606L182.214 182.798ZM184.641 183.558L184.058 184.603L184.064 184.606L184.641 183.558ZM186.736 185.515L187.713 184.826L187.713 184.826L186.736 185.515ZM188.439 189.944L188.728 191.104C189.369 190.945 189.759 190.295 189.599 189.655L188.439 189.944ZM176.729 192.863L175.568 193.153C175.728 193.793 176.377 194.183 177.018 194.024L176.729 192.863ZM176.226 190.846L175.936 189.685C175.295 189.845 174.905 190.494 175.065 191.135L176.226 190.846ZM185.562 188.518L185.851 189.678C186.492 189.519 186.882 188.87 186.723 188.229L185.562 188.518ZM184.476 186.352L183.567 187.129L183.573 187.136L184.476 186.352ZM182.635 185.119L182.263 186.256L182.268 186.258L182.635 185.119ZM178.053 186.377L178.943 187.176L178.945 187.174L178.053 186.377ZM176.944 188.544L175.776 188.288L175.776 188.288L176.944 188.544ZM178.643 195.149L177.732 195.924L177.74 195.933L178.643 195.149ZM180.766 196.542L180.431 197.69L180.439 197.692L180.766 196.542ZM184.999 195.865L185.652 196.867L185.66 196.862L184.999 195.865ZM186.097 194.751L187.111 195.386L187.116 195.376L186.097 194.751ZM186.607 193.216L186.642 192.02C186.021 192.002 185.49 192.462 185.419 193.079L186.607 193.216ZM189.02 193.287L190.214 193.354C190.232 193.032 190.12 192.716 189.901 192.478C189.683 192.24 189.378 192.101 189.055 192.091L189.02 193.287ZM188.326 195.603L189.359 196.207L189.362 196.201L188.326 195.603ZM186.585 197.465L187.271 198.445L187.278 198.44L186.585 197.465ZM183.635 197.473C182.345 197.794 181.229 197.772 180.25 197.466L179.538 199.75C181.005 200.208 182.575 200.202 184.213 199.794L183.635 197.473ZM180.259 197.469C179.266 197.151 178.412 196.577 177.685 195.716L175.857 197.259C176.859 198.446 178.087 199.286 179.53 199.747L180.259 197.469ZM177.69 195.722C176.966 194.853 176.413 193.73 176.06 192.316L173.739 192.894C174.162 194.592 174.857 196.058 175.852 197.253L177.69 195.722ZM176.06 192.316C175.707 190.901 175.667 189.642 175.896 188.518L173.552 188.039C173.24 189.571 173.316 191.196 173.739 192.894L176.06 192.316ZM175.895 188.52C176.131 187.379 176.604 186.454 177.298 185.707L175.546 184.078C174.529 185.173 173.869 186.505 173.553 188.036L175.895 188.52ZM177.3 185.706C177.985 184.967 178.887 184.439 180.06 184.147L179.482 181.826C177.912 182.217 176.582 182.961 175.545 184.08L177.3 185.706ZM180.06 184.147C180.72 183.982 181.402 183.929 182.112 183.989L182.315 181.606C181.351 181.524 180.404 181.596 179.482 181.826L180.06 184.147ZM182.112 183.989C182.769 184.045 183.416 184.244 184.058 184.603L185.223 182.514C184.304 182.001 183.332 181.693 182.315 181.606L182.112 183.989ZM184.064 184.606C184.655 184.931 185.225 185.447 185.759 186.204L187.713 184.826C187.012 183.832 186.185 183.043 185.218 182.51L184.064 184.606ZM185.759 186.204C186.266 186.924 186.702 187.921 187.032 189.244L189.353 188.665C188.976 187.153 188.441 185.857 187.713 184.826L185.759 186.204ZM187.032 189.244L187.278 190.233L189.599 189.655L189.353 188.665L187.032 189.244ZM188.15 188.783L176.439 191.703L177.018 194.024L188.728 191.104L188.15 188.783ZM177.889 192.574L177.386 190.556L175.065 191.135L175.568 193.153L177.889 192.574ZM176.515 192.006L185.851 189.678L185.273 187.357L175.936 189.685L176.515 192.006ZM186.723 188.229C186.469 187.213 186.029 186.315 185.378 185.567L183.573 187.136C183.944 187.563 184.227 188.108 184.402 188.807L186.723 188.229ZM185.384 185.574C184.74 184.821 183.94 184.283 183.001 183.981L182.268 186.258C182.777 186.421 183.204 186.705 183.567 187.129L185.384 185.574ZM183.007 183.983C182.045 183.668 181.032 183.666 180.004 183.923L180.583 186.244C181.243 186.079 181.791 186.102 182.263 186.256L183.007 183.983ZM180.004 183.923C178.874 184.204 177.906 184.747 177.161 185.58L178.945 187.174C179.328 186.745 179.854 186.425 180.583 186.244L180.004 183.923ZM177.163 185.578C176.465 186.355 176 187.265 175.776 188.288L178.112 188.8C178.249 188.179 178.523 187.644 178.943 187.176L177.163 185.578ZM175.776 188.288C175.555 189.295 175.574 190.312 175.826 191.323L178.147 190.745C177.982 190.081 177.973 189.438 178.112 188.8L175.776 188.288ZM175.826 191.323L176.162 192.668L178.483 192.09L178.147 190.745L175.826 191.323ZM176.162 192.668C176.48 193.945 176.989 195.049 177.732 195.924L179.554 194.374C179.108 193.85 178.737 193.108 178.483 192.09L176.162 192.668ZM177.74 195.933C178.478 196.783 179.378 197.383 180.431 197.69L181.101 195.394C180.523 195.225 180.007 194.896 179.546 194.365L177.74 195.933ZM180.439 197.692C181.482 197.989 182.575 197.975 183.69 197.697L183.112 195.376C182.341 195.568 181.677 195.558 181.093 195.392L180.439 197.692ZM183.69 197.697C184.411 197.517 185.071 197.245 185.652 196.867L184.345 194.863C184.022 195.074 183.617 195.25 183.112 195.376L183.69 197.697ZM185.66 196.862C186.25 196.47 186.74 195.978 187.111 195.386L185.083 194.116C184.903 194.403 184.66 194.654 184.338 194.868L185.66 196.862ZM187.116 195.376C187.491 194.765 187.711 194.083 187.795 193.352L185.419 193.079C185.371 193.502 185.251 193.843 185.078 194.125L187.116 195.376ZM186.572 194.411L188.985 194.482L189.055 192.091L186.642 192.02L186.572 194.411ZM187.826 193.219C187.79 193.855 187.614 194.445 187.291 195.004L189.362 196.201C189.871 195.32 190.157 194.366 190.214 193.354L187.826 193.219ZM187.294 194.999C186.971 195.551 186.512 196.05 185.892 196.491L187.278 198.44C188.145 197.824 188.847 197.081 189.359 196.207L187.294 194.999ZM185.899 196.486C185.291 196.911 184.544 197.246 183.635 197.473L184.213 199.794C185.361 199.507 186.387 199.064 187.271 198.445L185.899 196.486ZM191.722 174.838L192.886 174.565C192.813 174.253 192.618 173.984 192.345 173.818C192.072 173.651 191.743 173.601 191.433 173.678L191.722 174.838ZM195.154 189.446L195.443 190.607C196.078 190.449 196.467 189.81 196.318 189.173L195.154 189.446ZM192.859 190.018L191.703 190.323C191.869 190.956 192.514 191.337 193.148 191.179L192.859 190.018ZM189.032 175.509L188.742 174.349C188.432 174.426 188.165 174.625 188.002 174.9C187.839 175.176 187.794 175.505 187.875 175.814L189.032 175.509ZM194.079 195.376L194.695 194.351L194.695 194.351L194.079 195.376ZM195.965 192.238L196.581 191.213L196.581 191.213L195.965 192.238ZM196.777 194.315L195.636 193.958C195.634 193.965 195.631 193.972 195.629 193.979L196.777 194.315ZM196.297 195.128L197.142 195.974L197.148 195.968L196.297 195.128ZM190.558 175.112L193.989 189.72L196.318 189.173L192.886 174.565L190.558 175.112ZM194.864 188.286L192.57 188.858L193.148 191.179L195.443 190.607L194.864 188.286ZM194.015 189.713L190.188 175.204L187.875 175.814L191.703 190.323L194.015 189.713ZM189.321 176.67L192.011 175.999L191.433 173.678L188.742 174.349L189.321 176.67ZM195.177 194.427C195.001 194.471 194.864 194.453 194.695 194.351L193.463 196.402C194.168 196.825 194.955 196.947 195.755 196.748L195.177 194.427ZM194.695 194.351C194.527 194.25 194.446 194.137 194.402 193.962L192.081 194.54C192.281 195.34 192.759 195.978 193.463 196.402L194.695 194.351ZM194.402 193.962C194.359 193.786 194.377 193.649 194.478 193.48L192.428 192.248C192.004 192.953 191.882 193.74 192.081 194.54L194.402 193.962ZM194.478 193.48C194.579 193.312 194.692 193.231 194.868 193.187L194.289 190.866C193.489 191.066 192.851 191.544 192.428 192.248L194.478 193.48ZM194.868 193.187C195.043 193.144 195.18 193.162 195.349 193.263L196.581 191.213C195.877 190.79 195.089 190.667 194.289 190.866L194.868 193.187ZM195.349 193.263C195.518 193.364 195.598 193.477 195.642 193.653L197.963 193.074C197.763 192.274 197.286 191.636 196.581 191.213L195.349 193.263ZM195.642 193.653C195.671 193.767 195.666 193.861 195.636 193.958L197.919 194.672C198.083 194.147 198.095 193.606 197.963 193.074L195.642 193.653ZM195.629 193.979C195.595 194.096 195.538 194.195 195.446 194.288L197.148 195.968C197.515 195.597 197.778 195.153 197.925 194.652L195.629 193.979ZM195.452 194.282C195.392 194.342 195.312 194.393 195.177 194.427L195.755 196.748C196.28 196.617 196.753 196.363 197.142 195.974L195.452 194.282Z" fill="#F9FAFB"/>
<path d="M11.7053 229.122C9.45225 229.819 8.21993 230.193 8.00838 230.246C7.50066 230.373 6.91647 230.192 6.25581 229.705C5.58987 229.197 5.17251 228.605 5.00374 227.928C4.74532 226.891 7.63068 225.621 13.6598 224.118C16.7485 223.348 19.1017 223.099 20.7197 223.369C22.3376 223.64 23.2599 224.23 23.4867 225.14C23.5553 225.415 23.4625 225.719 23.2085 226.052C22.9492 226.364 22.5762 226.58 22.0897 226.702C21.6031 226.823 20.7067 227.013 19.4004 227.271C18.0941 227.529 16.9095 227.78 15.8465 228.022C15.9944 228.255 16.1105 228.541 16.1949 228.879C16.2793 229.218 16.3185 229.916 16.3125 230.973C16.3277 232.025 16.3347 233.496 16.3334 235.383C16.3269 237.25 16.373 239.508 16.4718 242.157C16.5652 244.785 16.5668 246.369 16.4766 246.908C16.4022 247.421 16.2698 247.701 16.0794 247.749C15.6352 247.86 14.9744 247.597 14.097 246.962C13.2355 246.301 12.7415 245.716 12.6149 245.208C12.4883 244.701 12.3999 242.498 12.3495 238.601C12.2939 234.683 12.0792 231.523 11.7053 229.122ZM25.6605 233.867L24.5762 230.329C24.2808 229.144 24.5033 228.459 25.2438 228.275C25.6669 228.169 26.1189 228.225 26.6 228.442C27.1022 228.654 27.5435 229.072 27.9238 229.696C28.4848 228.882 29.141 228.179 29.8923 227.588C30.6594 226.97 31.3709 226.579 32.0267 226.415C33.571 226.03 34.4354 226.208 34.62 226.948C34.715 227.329 34.7121 227.633 34.6115 227.86C34.5268 228.061 34.4526 228.215 34.3891 228.32C34.3468 228.421 34.2488 228.569 34.0954 228.764C33.9578 228.933 33.8546 229.06 33.7858 229.145C33.3783 229.584 33.0846 229.893 32.9047 230.072C32.1004 230.902 31.4653 231.824 30.9993 232.839C30.528 233.833 30.3077 235.113 30.3384 236.678C30.3738 239.253 30.2667 241.212 30.0173 242.555C29.7838 243.872 29.3285 244.614 28.6516 244.783C27.9958 244.947 27.4195 244.753 26.9228 244.203C26.4473 243.647 26.1409 243.095 26.0038 242.545C25.8614 241.973 25.8514 241.077 25.9738 239.856C26.1174 238.629 26.163 237.595 26.1107 236.754C26.0743 235.887 25.9242 234.925 25.6605 233.867ZM46.109 223.916C46.1041 223.355 46.3872 223.004 46.9584 222.861C47.5296 222.719 48.201 222.933 48.9727 223.505C49.7655 224.071 50.2753 224.809 50.5021 225.719C50.6339 226.248 50.6519 227.131 50.5559 228.368C50.4599 229.605 50.3879 230.489 50.34 231.017C50.3132 231.541 50.2572 232.263 50.172 233.183C50.0815 234.081 49.999 234.922 49.9244 235.705C49.8658 236.461 49.7726 237.484 49.6448 238.774C49.5382 240.059 49.4423 241.251 49.3569 242.351C49.1758 244.419 48.7384 246.089 48.0449 247.363C47.3725 248.632 46.2853 249.453 44.7833 249.828C43.2813 250.202 41.8378 250.135 40.4527 249.627C39.0729 249.139 38.2827 248.494 38.0823 247.69C37.961 247.203 38.0381 246.611 38.3135 245.913C38.6101 245.21 38.9065 244.822 39.2026 244.748C39.52 244.669 39.9826 244.812 40.5904 245.177C41.2247 245.558 41.867 245.926 42.5171 246.281C43.1726 246.657 43.7013 246.795 44.1032 246.694C44.3782 246.626 44.5687 246.444 44.6747 246.147C44.8018 245.846 44.8919 245.577 44.9449 245.339C45.0243 245.117 45.0827 244.81 45.12 244.419C45.1625 244.049 45.1998 243.702 45.2317 243.38C45.2637 243.057 45.293 242.634 45.3198 242.111C45.3466 241.587 45.3654 241.122 45.3762 240.715C45.4511 239.483 45.5047 238.391 45.537 237.439C45.0657 238.523 44.5284 239.432 43.9251 240.166C43.3165 240.88 42.6949 241.316 42.0602 241.474C41.4467 241.627 40.5586 241.354 39.3957 240.655C38.2487 239.93 37.5354 239.007 37.2559 237.886C36.9711 236.743 36.8347 235.159 36.8466 233.134C36.8796 231.104 37.0818 229.256 37.453 227.59C37.8243 225.925 38.2955 225.021 38.8667 224.878C39.5225 224.715 40.2071 224.848 40.9207 225.276C41.6502 225.679 42.0809 226.144 42.2127 226.673C42.3393 227.181 42.2805 228.072 42.0365 229.346C41.8135 230.615 41.6064 231.992 41.4151 233.478C41.2237 234.964 41.2467 236.183 41.4841 237.135C41.5157 237.262 41.5844 237.312 41.6902 237.286C41.9652 237.217 42.4204 236.564 43.0557 235.327C43.6858 234.069 44.3162 232.362 44.9469 230.205C45.5934 228.021 45.9808 225.925 46.109 223.916ZM64.8915 214.177C64.7544 213.627 64.8579 213.006 65.2021 212.314C65.5621 211.595 65.9748 211.177 66.4402 211.061C66.9268 210.94 67.6404 211.369 68.581 212.347C69.5216 213.326 70.0578 214.08 70.1897 214.609C70.3162 215.117 70.2446 215.55 69.9747 215.91C69.7047 216.269 69.39 216.494 69.0303 216.583C68.4168 216.736 67.6079 216.511 66.6036 215.908C65.5993 215.304 65.0286 214.727 64.8915 214.177ZM66.3564 218.025C67.0968 217.841 67.8581 218.1 68.6402 218.804C69.4435 219.503 69.9427 220.243 70.1379 221.026C70.2381 221.428 70.2291 222.969 70.111 225.65C70.0088 228.305 69.875 230.832 69.7095 233.233C69.6613 234.121 69.2459 234.663 68.4631 234.858C67.9977 234.974 67.543 234.907 67.099 234.659C66.6709 234.383 66.3882 233.971 66.2511 233.421C66.1087 232.85 66.025 231.387 66.0002 229.034C65.9911 226.655 65.929 224.648 65.8137 223.014C65.7143 221.353 65.6914 220.135 65.7447 219.357C65.814 218.554 66.0179 218.11 66.3564 218.025ZM80.1737 218.591C80.1469 219.205 80.0934 220.072 80.0134 221.193C79.9492 222.287 79.8663 223.667 79.7648 225.333C79.6844 226.993 79.6573 227.876 79.6837 227.982C79.7048 228.067 79.8846 228.067 80.2231 227.983C80.5827 227.893 81.3603 227.452 82.5559 226.66C83.7462 225.846 84.4577 225.41 84.6904 225.352C85.2193 225.22 85.5734 225.514 85.7527 226.233C85.932 226.953 85.4396 227.997 84.2753 229.365C83.1058 230.713 81.7489 231.579 80.2046 231.964C79.5276 232.133 78.6315 231.963 77.5161 231.455C76.4006 230.947 75.748 230.312 75.5581 229.55C75.3999 228.915 75.385 227.504 75.5133 225.314C75.6575 223.099 75.7511 221.581 75.7939 220.762C75.0269 221.2 74.4318 221.472 74.0087 221.578C73.5856 221.683 73.0702 221.508 72.4624 221.053C71.8493 220.577 71.4768 220.074 71.345 219.545C71.1762 218.868 72.6733 217.888 75.8363 216.606C75.7478 214.538 75.5242 212.785 75.1655 211.346C75.0073 210.712 75.2455 210.315 75.8802 210.157C76.4302 210.02 77.2127 210.184 78.2277 210.65C79.2585 211.09 79.8557 211.638 80.0192 212.293C80.1774 212.928 80.264 213.861 80.2791 215.093C81.284 214.798 82.0509 214.584 82.5797 214.452C84.1664 214.057 85.0493 214.219 85.2287 214.938C85.3447 215.403 84.9795 215.921 84.133 216.492C83.3025 217.036 81.9827 217.736 80.1737 218.591ZM105.289 222.273C106.305 221.48 107.044 220.206 107.505 218.451C107.966 216.696 108.028 215.141 107.69 213.787C107.353 212.433 106.93 211.55 106.423 211.137C105.645 211.893 105.012 213.23 104.525 215.149C104.058 217.063 103.986 218.666 104.307 219.956C104.624 221.225 104.951 221.998 105.289 222.273ZM100.134 221.333C99.475 218.689 99.6645 215.979 100.703 213.204C101.762 210.423 103.096 208.832 104.704 208.431C106.311 208.031 107.808 208.264 109.192 209.132C110.572 209.979 111.462 211.207 111.863 212.814C112.259 214.401 112.281 216.114 111.931 217.954C111.581 219.794 110.855 221.436 109.755 222.878C108.648 224.3 107.313 225.206 105.747 225.596C104.584 225.887 103.45 225.619 102.345 224.793C101.24 223.968 100.503 222.814 100.134 221.333ZM123.348 204.66C123.385 204.089 123.657 203.74 124.165 203.613C124.673 203.487 125.363 203.775 126.235 204.479C127.128 205.178 127.654 205.844 127.812 206.479C127.87 206.712 127.771 208.388 127.515 211.508C127.259 214.627 127.075 217.089 126.963 218.892C126.888 219.854 126.502 220.422 125.804 220.596C125.381 220.702 124.984 220.643 124.614 220.421C124.26 220.172 124.001 219.72 123.838 219.064C123.674 218.408 123.569 217.446 123.522 216.177C122.124 219.851 120.78 221.849 119.489 222.171C118.812 222.339 117.89 222.109 116.721 221.479C115.548 220.828 114.858 220.089 114.653 219.264C114.146 217.233 114.071 214.5 114.428 211.063C114.806 207.621 115.502 205.773 116.518 205.52C117.131 205.367 117.739 205.507 118.342 205.941C118.965 206.37 119.359 206.912 119.522 207.568C119.586 207.822 119.498 208.597 119.259 209.892C118.522 213.783 118.332 216.448 118.691 217.887C118.722 218.014 118.791 218.064 118.897 218.038C119.214 217.959 119.683 217.314 120.302 216.103C120.937 214.866 121.563 213.183 122.177 211.052C122.808 208.895 123.198 206.764 123.348 204.66ZM136.604 204.523C136.577 205.136 136.524 206.004 136.444 207.124C136.38 208.219 136.297 209.599 136.195 211.265C136.115 212.925 136.088 213.808 136.114 213.914C136.135 213.999 136.315 213.999 136.654 213.914C137.013 213.825 137.791 213.384 138.986 212.591C140.177 211.778 140.888 211.342 141.121 211.284C141.65 211.152 142.004 211.446 142.183 212.165C142.362 212.884 141.87 213.928 140.706 215.297C139.536 216.645 138.179 217.511 136.635 217.896C135.958 218.065 135.062 217.895 133.946 217.387C132.831 216.878 132.178 216.243 131.989 215.482C131.83 214.847 131.815 213.435 131.944 211.246C132.088 209.031 132.182 207.513 132.224 206.693C131.457 207.132 130.862 207.404 130.439 207.509C130.016 207.615 129.501 207.44 128.893 206.985C128.28 206.508 127.907 206.006 127.775 205.477C127.607 204.8 129.104 203.82 132.267 202.537C132.178 200.47 131.955 198.716 131.596 197.278C131.438 196.643 131.676 196.247 132.311 196.089C132.861 195.951 133.643 196.116 134.658 196.582C135.689 197.022 136.286 197.569 136.45 198.225C136.608 198.86 136.694 199.793 136.71 201.025C137.714 200.73 138.481 200.516 139.01 200.384C140.597 199.989 141.48 200.15 141.659 200.87C141.775 201.335 141.41 201.853 140.563 202.424C139.733 202.968 138.413 203.668 136.604 204.523ZM156.054 187.641C155.833 186.753 156.071 186.222 156.769 186.048C157.34 185.905 158.115 186.218 159.092 186.985C160.07 187.752 160.643 188.475 160.812 189.152C160.981 189.829 161.081 190.815 161.112 192.11C161.143 193.406 161.136 194.598 161.093 195.688C161.072 196.772 161.01 198.326 160.908 200.351C160.801 202.355 160.734 203.754 160.707 204.547C161.386 201.412 162.268 198.776 163.353 196.641C164.46 194.5 165.532 193.3 166.568 193.042C167.224 192.878 168.12 193.273 169.256 194.226C170.387 195.157 171.069 196.088 171.301 197.019C171.528 197.929 171.691 199.303 171.79 201.144C171.889 202.984 171.719 204.824 171.279 206.664C170.839 208.504 170.174 209.535 169.286 209.756C168.588 209.93 168.115 209.52 167.867 208.526C167.687 207.806 167.606 206.58 167.623 204.845C167.63 202.259 167.568 200.702 167.436 200.173C167.304 199.644 167.154 199.401 166.984 199.443C165.757 199.749 164.468 202.239 163.117 206.912C162.661 208.509 162.242 209.714 161.861 210.529C161.501 211.337 161.078 211.802 160.591 211.924C160.104 212.045 159.415 211.801 158.521 211.193C157.649 210.579 157.16 210.06 157.055 209.637C156.944 209.193 156.868 208.526 156.826 207.638C156.806 206.744 156.78 205.47 156.749 203.815C156.74 202.154 156.647 199.167 156.47 194.852C156.309 190.51 156.17 188.107 156.054 187.641ZM187.546 194.115C187.805 195.151 187.328 196.259 186.116 197.437C184.926 198.61 183.59 199.382 182.109 199.751C180.628 200.12 179.386 200.317 178.381 200.343C178.333 200.962 178.38 201.557 178.523 202.128C178.665 202.699 178.863 203.088 179.117 203.294C179.365 203.48 179.87 203.477 180.632 203.287C182.218 202.892 183.535 202.406 184.583 201.83C185.651 201.25 186.207 200.954 186.249 200.943C187.116 200.727 187.621 200.904 187.764 201.476C187.969 202.301 187.477 203.255 186.286 204.338C185.117 205.416 183.633 206.179 181.835 206.627C180.058 207.07 178.49 206.866 177.132 206.014C175.774 205.161 174.904 203.974 174.525 202.451C174.14 200.906 174.183 199.188 174.655 197.295C175.148 195.397 175.932 193.718 177.006 192.26C178.075 190.78 179.276 189.874 180.609 189.541C181.963 189.204 183.377 189.559 184.852 190.607C186.321 191.634 187.219 192.803 187.546 194.115ZM183.739 194.525C183.686 194.313 183.387 194.062 182.843 193.771C182.299 193.479 181.825 193.384 181.423 193.484C181.043 193.579 180.617 193.989 180.146 194.713C179.669 195.416 179.267 196.28 178.938 197.306C179.134 197.279 179.412 197.221 179.771 197.132C182.669 196.409 183.992 195.54 183.739 194.525ZM190.427 192.79L189.343 189.252C189.048 188.067 189.27 187.382 190.011 187.198C190.434 187.092 190.886 187.148 191.367 187.365C191.869 187.577 192.31 187.995 192.691 188.619C193.252 187.805 193.908 187.102 194.659 186.511C195.426 185.892 196.138 185.502 196.794 185.338C198.338 184.953 199.202 185.131 199.387 185.871C199.482 186.252 199.479 186.556 199.378 186.783C199.294 186.984 199.22 187.138 199.156 187.243C199.114 187.344 199.016 187.492 198.862 187.687C198.725 187.856 198.621 187.983 198.553 188.068C198.145 188.506 197.852 188.816 197.672 188.995C196.867 189.825 196.232 190.747 195.766 191.762C195.295 192.756 195.075 194.035 195.105 195.601C195.141 198.176 195.034 200.135 194.784 201.478C194.551 202.795 194.095 203.537 193.419 203.706C192.763 203.869 192.186 203.676 191.69 203.126C191.214 202.57 190.908 202.017 190.771 201.467C190.628 200.896 190.618 200 190.741 198.779C190.884 197.552 190.93 196.518 190.878 195.677C190.841 194.81 190.691 193.848 190.427 192.79ZM214.537 187.386C214.796 188.422 214.319 189.53 213.108 190.708C211.917 191.881 210.581 192.653 209.101 193.022C207.62 193.391 206.377 193.588 205.372 193.614C205.324 194.233 205.371 194.828 205.514 195.399C205.656 195.97 205.854 196.359 206.108 196.565C206.356 196.751 206.861 196.748 207.623 196.558C209.209 196.163 210.526 195.677 211.574 195.101C212.642 194.52 213.198 194.225 213.24 194.214C214.107 193.998 214.612 194.175 214.755 194.747C214.96 195.572 214.468 196.526 213.278 197.609C212.108 198.687 210.624 199.45 208.826 199.898C207.049 200.341 205.482 200.137 204.123 199.285C202.765 198.432 201.896 197.245 201.516 195.721C201.131 194.177 201.174 192.459 201.646 190.566C202.139 188.668 202.923 186.989 203.997 185.531C205.066 184.051 206.267 183.145 207.6 182.812C208.954 182.475 210.368 182.83 211.843 183.878C213.312 184.905 214.211 186.074 214.537 187.386ZM210.73 187.796C210.677 187.584 210.379 187.333 209.834 187.042C209.29 186.75 208.816 186.655 208.415 186.755C208.034 186.85 207.608 187.26 207.137 187.984C206.66 188.687 206.258 189.551 205.929 190.577C206.125 190.55 206.403 190.492 206.762 190.403C209.661 189.68 210.983 188.811 210.73 187.796ZM220.285 194.042C220.142 193.471 220.246 192.85 220.595 192.178C220.939 191.486 221.355 191.079 221.841 190.958C222.328 190.836 223.031 191.268 223.95 192.252C224.891 193.231 225.432 194.006 225.575 194.577C225.643 194.852 225.54 195.204 225.265 195.632C225.011 196.055 224.714 196.308 224.376 196.393C223.741 196.551 222.935 196.336 221.957 195.749C220.979 195.161 220.422 194.592 220.285 194.042ZM218.071 171.237C217.918 170.623 218.169 170.235 218.825 170.071C219.481 169.908 220.464 170.157 221.775 170.819C223.107 171.475 223.826 172.015 223.932 172.438C224.28 173.834 224.502 176.846 224.6 181.473C224.713 186.074 224.41 188.463 223.691 188.643C223.12 188.785 222.485 188.629 221.788 188.174C221.09 187.718 220.651 187.176 220.472 186.547C220.372 186.324 220.288 185.626 220.22 184.452C220.146 183.257 219.944 181.454 219.612 179.043C219.276 176.61 218.762 174.008 218.071 171.237Z" fill="#1D1D1D"/>
<mask id="mask0_3_16" style="mask-type:luminance" maskUnits="userSpaceOnUse" x="35" y="0" width="354" height="364">
<path d="M388.314 0H35.6426V363.493H388.314V0Z" fill="white"/>
</mask>
<g mask="url(#mask0_3_16)">
<path d="M135.643 251.148C156.219 262.219 179.934 266.009 202.935 261.902C225.937 257.795 246.875 246.033 262.349 228.526C277.824 211.019 286.925 188.795 288.176 165.463C289.427 142.131 282.754 119.061 269.24 100" stroke="#1D1D1D" stroke-width="10" stroke-linecap="round" stroke-linejoin="round"/>
</g>
<path d="M267.675 129.959L269.24 100L294.403 116.335" stroke="#1D1D1D" stroke-width="10" stroke-linecap="round" stroke-linejoin="round"/>
</svg>
