
<svg viewBox="0 80 389 194" fill="none" xmlns="http://www.w3.org/2000/svg">
<path d="M135.385 251.114C155.957 262.182 179.666 265.971 202.663 261.865C225.66 257.759 246.593 246 262.064 228.497C277.534 210.994 286.634 188.775 287.884 165.448C289.135 142.121 282.463 119.057 268.953 100" stroke="#1D1D1D" stroke-width="10" stroke-linecap="round" stroke-linejoin="round"/>
<path d="M267.441 129.959L269.006 100L294.168 116.335" stroke="#1D1D1D" stroke-width="10" stroke-linecap="round" stroke-linejoin="round"/>
<path d="M11.4706 229.122C9.21751 229.819 7.98519 230.193 7.77364 230.246C7.26592 230.373 6.68173 230.192 6.02106 229.705C5.35513 229.197 4.93777 228.605 4.769 227.928C4.51058 226.891 7.39594 225.621 13.4251 224.118C16.5137 223.348 18.867 223.099 20.4849 223.369C22.1028 223.64 23.0252 224.23 23.252 225.14C23.3205 225.415 23.2278 225.719 22.9737 226.052C22.7144 226.364 22.3415 226.58 21.8549 226.702C21.3684 226.823 20.4719 227.013 19.1657 227.271C17.8594 227.529 16.6748 227.78 15.6117 228.022C15.7596 228.255 15.8758 228.541 15.9602 228.879C16.0446 229.218 16.0838 229.916 16.0778 230.973C16.0929 232.025 16.0999 233.496 16.0987 235.383C16.0922 237.25 16.1383 239.508 16.237 242.157C16.3305 244.785 16.3321 246.369 16.2418 246.908C16.1675 247.421 16.0351 247.701 15.8447 247.749C15.4004 247.86 14.7396 247.597 13.8623 246.962C13.0008 246.301 12.5067 245.716 12.3802 245.208C12.2536 244.701 12.1651 242.498 12.1148 238.601C12.0592 234.683 11.8445 231.523 11.4706 229.122ZM25.4258 233.867L24.3414 230.329C24.0461 229.144 24.2686 228.459 25.009 228.275C25.4321 228.169 25.8842 228.225 26.3653 228.442C26.8675 228.654 27.3087 229.072 27.689 229.696C28.2501 228.882 28.9063 228.179 29.6575 227.588C30.4247 226.97 31.1361 226.579 31.7919 226.415C33.3363 226.03 34.2007 226.208 34.3853 226.948C34.4802 227.329 34.4774 227.633 34.3768 227.86C34.292 228.061 34.2179 228.215 34.1544 228.32C34.112 228.421 34.0141 228.569 33.8606 228.764C33.723 228.933 33.6198 229.06 33.551 229.145C33.1436 229.584 32.8499 229.893 32.67 230.072C31.8657 230.902 31.2305 231.824 30.7645 232.839C30.2933 233.833 30.073 235.113 30.1037 236.678C30.139 239.253 30.032 241.212 29.7826 242.555C29.549 243.872 29.0938 244.614 28.4168 244.783C27.761 244.947 27.1848 244.753 26.6881 244.203C26.2125 243.647 25.9062 243.095 25.7691 242.545C25.6267 241.973 25.6167 241.077 25.7391 239.856C25.8827 238.629 25.9283 237.595 25.876 236.754C25.8395 235.887 25.6895 234.925 25.4258 233.867ZM45.8743 223.916C45.8694 223.355 46.1525 223.004 46.7237 222.861C47.2949 222.719 47.9663 222.933 48.7379 223.505C49.5308 224.071 50.0405 224.809 50.2673 225.719C50.3992 226.248 50.4171 227.131 50.3211 228.368C50.2251 229.605 50.1532 230.489 50.1052 231.017C50.0784 231.541 50.0224 232.263 49.9372 233.183C49.8468 234.081 49.7642 234.922 49.6897 235.705C49.631 236.461 49.5378 237.484 49.4101 238.774C49.3035 240.059 49.2075 241.251 49.1222 242.351C48.941 244.419 48.5037 246.089 47.8102 247.363C47.1378 248.632 46.0506 249.453 44.5486 249.828C43.0466 250.202 41.603 250.135 40.2179 249.627C38.8381 249.139 38.048 248.494 37.8476 247.69C37.7263 247.203 37.8033 246.611 38.0788 245.913C38.3754 245.21 38.6717 244.822 38.9679 244.748C39.2852 244.669 39.7478 244.812 40.3557 245.177C40.99 245.558 41.6322 245.926 42.2824 246.281C42.9378 246.657 43.4665 246.795 43.8685 246.694C44.1435 246.626 44.334 246.444 44.4399 246.147C44.567 245.846 44.6571 245.577 44.7101 245.339C44.7896 245.117 44.848 244.81 44.8852 244.419C44.9278 244.049 44.965 243.702 44.997 243.38C45.0289 243.057 45.0583 242.634 45.0851 242.111C45.1118 241.587 45.1306 241.122 45.1415 240.715C45.2163 239.483 45.2699 238.391 45.3023 237.439C44.8309 238.523 44.2936 239.432 43.6903 240.166C43.0818 240.88 42.4601 241.316 41.8255 241.474C41.212 241.627 40.3238 241.354 39.1609 240.655C38.0139 239.93 37.3007 239.007 37.0212 237.886C36.7364 236.743 36.5999 235.159 36.6118 233.134C36.6449 231.104 36.847 229.256 37.2183 227.59C37.5895 225.925 38.0607 225.021 38.6319 224.878C39.2877 224.715 39.9724 224.848 40.686 225.276C41.4155 225.679 41.8461 226.144 41.978 226.673C42.1045 227.181 42.0458 228.072 41.8017 229.346C41.5788 230.615 41.3717 231.992 41.1803 233.478C40.989 234.964 41.012 236.183 41.2493 237.135C41.281 237.262 41.3497 237.312 41.4554 237.286C41.7305 237.217 42.1856 236.564 42.821 235.327C43.4511 234.069 44.0815 232.362 44.7121 230.205C45.3587 228.021 45.7461 225.925 45.8743 223.916ZM64.6568 214.177C64.5196 213.627 64.6231 213.006 64.9673 212.314C65.3274 211.595 65.7401 211.177 66.2055 211.061C66.6921 210.94 67.4056 211.369 68.3462 212.347C69.2868 213.326 69.8231 214.08 69.9549 214.609C70.0815 215.117 70.0098 215.55 69.7399 215.91C69.47 216.269 69.1552 216.494 68.7956 216.583C68.1821 216.736 67.3732 216.511 66.3689 215.908C65.3646 215.304 64.7939 214.727 64.6568 214.177ZM66.1216 218.025C66.862 217.841 67.6233 218.1 68.4055 218.804C69.2088 219.503 69.708 220.243 69.9031 221.026C70.0033 221.428 69.9944 222.969 69.8763 225.65C69.7741 228.305 69.6402 230.832 69.4747 233.233C69.4266 234.121 69.0111 234.663 68.2284 234.858C67.763 234.974 67.3083 234.907 66.8642 234.659C66.4361 234.383 66.1535 233.971 66.0164 233.421C65.874 232.85 65.7903 231.387 65.7654 229.034C65.7564 226.655 65.6943 224.648 65.579 223.014C65.4796 221.353 65.4566 220.135 65.51 219.357C65.5793 218.554 65.7831 218.11 66.1216 218.025ZM79.939 218.591C79.9121 219.205 79.8587 220.072 79.7786 221.193C79.7144 222.287 79.6316 223.667 79.53 225.333C79.4496 226.993 79.4226 227.876 79.449 227.982C79.4701 228.067 79.6499 228.067 79.9883 227.983C80.348 227.893 81.1256 227.452 82.3212 226.66C83.5115 225.846 84.223 225.41 84.4557 225.352C84.9845 225.22 85.3386 225.514 85.518 226.233C85.6973 226.953 85.2048 227.997 84.0406 229.365C82.8711 230.713 81.5142 231.579 79.9699 231.964C79.2929 232.133 78.3967 231.963 77.2813 231.455C76.1659 230.947 75.5133 230.312 75.3234 229.55C75.1652 228.915 75.1502 227.504 75.2786 225.314C75.4228 223.099 75.5163 221.581 75.5592 220.762C74.7921 221.2 74.1971 221.472 73.774 221.578C73.3509 221.683 72.8354 221.508 72.2276 221.053C71.6145 220.577 71.2421 220.074 71.1102 219.545C70.9415 218.868 72.4386 217.888 75.6016 216.606C75.513 214.538 75.2894 212.785 74.9308 211.346C74.7726 210.712 75.0108 210.315 75.6454 210.157C76.1955 210.02 76.978 210.184 77.9929 210.65C79.0238 211.09 79.621 211.638 79.7844 212.293C79.9427 212.928 80.0293 213.861 80.0444 215.093C81.0493 214.798 81.8161 214.584 82.345 214.452C83.9316 214.057 84.8146 214.219 84.9939 214.938C85.1099 215.403 84.7447 215.921 83.8983 216.492C83.0678 217.036 81.748 217.736 79.939 218.591ZM105.055 222.273C106.07 221.48 106.809 220.206 107.27 218.451C107.731 216.696 107.793 215.141 107.456 213.787C107.118 212.433 106.696 211.55 106.188 211.137C105.41 211.893 104.778 213.23 104.29 215.149C103.823 217.063 103.751 218.666 104.073 219.956C104.389 221.225 104.716 221.998 105.055 222.273ZM99.8996 221.333C99.2403 218.689 99.4298 215.979 100.468 213.204C101.527 210.423 102.861 208.832 104.469 208.431C106.077 208.031 107.573 208.264 108.958 209.132C110.337 209.979 111.228 211.207 111.628 212.814C112.024 214.401 112.047 216.114 111.696 217.954C111.346 219.794 110.621 221.436 109.52 222.878C108.414 224.3 107.078 225.206 105.512 225.596C104.349 225.887 103.215 225.619 102.11 224.793C101.006 223.968 100.269 222.814 99.8996 221.333ZM123.113 204.66C123.15 204.089 123.423 203.74 123.93 203.613C124.438 203.487 125.128 203.775 126 204.479C126.893 205.178 127.419 205.844 127.577 206.479C127.635 206.712 127.536 208.388 127.28 211.508C127.025 214.627 126.841 217.089 126.728 218.892C126.654 219.854 126.267 220.422 125.569 220.596C125.146 220.702 124.749 220.643 124.379 220.421C124.025 220.172 123.767 219.72 123.603 219.064C123.44 218.408 123.334 217.446 123.288 216.177C121.889 219.851 120.545 221.849 119.254 222.171C118.577 222.339 117.655 222.109 116.487 221.479C115.313 220.828 114.624 220.089 114.418 219.264C113.912 217.233 113.837 214.5 114.193 211.063C114.571 207.621 115.267 205.773 116.283 205.52C116.896 205.367 117.504 205.507 118.107 205.941C118.731 206.37 119.124 206.912 119.288 207.568C119.351 207.822 119.263 208.597 119.024 209.892C118.287 213.783 118.097 216.448 118.456 217.887C118.488 218.014 118.556 218.064 118.662 218.038C118.98 217.959 119.448 217.314 120.067 216.103C120.703 214.866 121.328 213.183 121.943 211.052C122.573 208.895 122.963 206.764 123.113 204.66ZM136.369 204.523C136.343 205.136 136.289 206.004 136.209 207.124C136.145 208.219 136.062 209.599 135.96 211.265C135.88 212.925 135.853 213.808 135.879 213.914C135.9 213.999 136.08 213.999 136.419 213.914C136.778 213.825 137.556 213.384 138.752 212.591C139.942 211.778 140.653 211.342 140.886 211.284C141.415 211.152 141.769 211.446 141.948 212.165C142.128 212.884 141.635 213.928 140.471 215.297C139.302 216.645 137.945 217.511 136.4 217.896C135.723 218.065 134.827 217.895 133.712 217.387C132.596 216.878 131.944 216.243 131.754 215.482C131.596 214.847 131.581 213.435 131.709 211.246C131.853 209.031 131.947 207.513 131.99 206.693C131.223 207.132 130.628 207.404 130.204 207.509C129.781 207.615 129.266 207.44 128.658 206.985C128.045 206.508 127.673 206.006 127.541 205.477C127.372 204.8 128.869 203.82 132.032 202.537C131.943 200.47 131.72 198.716 131.361 197.278C131.203 196.643 131.441 196.247 132.076 196.089C132.626 195.951 133.408 196.116 134.423 196.582C135.454 197.022 136.051 197.569 136.215 198.225C136.373 198.86 136.46 199.793 136.475 201.025C137.48 200.73 138.247 200.516 138.775 200.384C140.362 199.989 141.245 200.15 141.424 200.87C141.54 201.335 141.175 201.853 140.329 202.424C139.498 202.968 138.178 203.668 136.369 204.523ZM155.819 187.641C155.598 186.753 155.836 186.222 156.534 186.048C157.105 185.905 157.88 186.218 158.858 186.985C159.835 187.752 160.409 188.475 160.577 189.152C160.746 189.829 160.846 190.815 160.877 192.11C160.908 193.406 160.902 194.598 160.859 195.688C160.837 196.772 160.775 198.326 160.673 200.351C160.566 202.355 160.499 203.754 160.472 204.547C161.151 201.412 162.033 198.776 163.119 196.641C164.225 194.5 165.297 193.3 166.333 193.042C166.989 192.878 167.885 193.273 169.021 194.226C170.152 195.157 170.834 196.088 171.066 197.019C171.293 197.929 171.456 199.303 171.555 201.144C171.654 202.984 171.484 204.824 171.044 206.664C170.604 208.504 169.939 209.535 169.051 209.756C168.353 209.93 167.88 209.52 167.632 208.526C167.453 207.806 167.372 206.58 167.389 204.845C167.396 202.259 167.333 200.702 167.201 200.173C167.069 199.644 166.919 199.401 166.75 199.443C165.523 199.749 164.233 202.239 162.882 206.912C162.426 208.509 162.008 209.714 161.626 210.529C161.266 211.337 160.843 211.802 160.356 211.924C159.87 212.045 159.18 211.801 158.287 211.193C157.414 210.579 156.926 210.06 156.82 209.637C156.709 209.193 156.633 208.526 156.591 207.638C156.571 206.744 156.545 205.47 156.515 203.815C156.505 202.154 156.412 199.167 156.235 194.852C156.074 190.51 155.935 188.107 155.819 187.641ZM187.312 194.115C187.57 195.151 187.093 196.259 185.882 197.437C184.691 198.61 183.355 199.382 181.875 199.751C180.394 200.12 179.151 200.317 178.146 200.343C178.098 200.962 178.145 201.557 178.288 202.128C178.43 202.699 178.628 203.088 178.882 203.294C179.13 203.48 179.635 203.477 180.397 203.287C181.984 202.892 183.301 202.406 184.348 201.83C185.417 201.25 185.972 200.954 186.014 200.943C186.882 200.727 187.386 200.904 187.529 201.476C187.735 202.301 187.242 203.255 186.052 204.338C184.882 205.416 183.399 206.179 181.6 206.627C179.823 207.07 178.256 206.866 176.897 206.014C175.539 205.161 174.67 203.974 174.29 202.451C173.905 200.906 173.948 199.188 174.42 197.295C174.913 195.397 175.697 193.718 176.771 192.26C177.841 190.78 179.041 189.874 180.374 189.541C181.728 189.204 183.142 189.559 184.617 190.607C186.086 191.634 186.985 192.803 187.312 194.115ZM183.504 194.525C183.451 194.313 183.153 194.062 182.608 193.771C182.064 193.479 181.591 193.384 181.189 193.484C180.808 193.579 180.382 193.989 179.911 194.713C179.434 195.416 179.032 196.28 178.703 197.306C178.899 197.279 179.177 197.221 179.536 197.132C182.435 196.409 183.757 195.54 183.504 194.525ZM190.193 192.79L189.108 189.252C188.813 188.067 189.036 187.382 189.776 187.198C190.199 187.092 190.651 187.148 191.132 187.365C191.634 187.577 192.076 187.995 192.456 188.619C193.017 187.805 193.673 187.102 194.424 186.511C195.192 185.892 195.903 185.502 196.559 185.338C198.103 184.953 198.968 185.131 199.152 185.871C199.247 186.252 199.244 186.556 199.144 186.783C199.059 186.984 198.985 187.138 198.921 187.243C198.879 187.344 198.781 187.492 198.628 187.687C198.49 187.856 198.387 187.983 198.318 188.068C197.911 188.506 197.617 188.816 197.437 188.995C196.633 189.825 195.997 190.747 195.531 191.762C195.06 192.756 194.84 194.035 194.871 195.601C194.906 198.176 194.799 200.135 194.549 201.478C194.316 202.795 193.861 203.537 193.184 203.706C192.528 203.869 191.952 203.676 191.455 203.126C190.979 202.57 190.673 202.017 190.536 201.467C190.394 200.896 190.384 200 190.506 198.779C190.65 197.552 190.695 196.518 190.643 195.677C190.606 194.81 190.456 193.848 190.193 192.79ZM214.303 187.386C214.561 188.422 214.085 189.53 212.873 190.708C211.682 191.881 210.347 192.653 208.866 193.022C207.385 193.391 206.142 193.588 205.137 193.614C205.089 194.233 205.137 194.828 205.279 195.399C205.421 195.97 205.619 196.359 205.873 196.565C206.122 196.751 206.627 196.748 207.388 196.558C208.975 196.163 210.292 195.677 211.339 195.101C212.408 194.52 212.963 194.225 213.005 194.214C213.873 193.998 214.378 194.175 214.52 194.747C214.726 195.572 214.233 196.526 213.043 197.609C211.874 198.687 210.39 199.45 208.592 199.898C206.815 200.341 205.247 200.137 203.888 199.285C202.53 198.432 201.661 197.245 201.281 195.721C200.896 194.177 200.94 192.459 201.411 190.566C201.904 188.668 202.688 186.989 203.763 185.531C204.832 184.051 206.033 183.145 207.365 182.812C208.719 182.475 210.134 182.83 211.608 183.878C213.078 184.905 213.976 186.074 214.303 187.386ZM210.495 187.796C210.442 187.584 210.144 187.333 209.599 187.042C209.055 186.75 208.582 186.655 208.18 186.755C207.799 186.85 207.373 187.26 206.902 187.984C206.426 188.687 206.023 189.551 205.695 190.577C205.89 190.55 206.168 190.492 206.528 190.403C209.426 189.68 210.748 188.811 210.495 187.796ZM220.05 194.042C219.908 193.471 220.011 192.85 220.361 192.178C220.705 191.486 221.12 191.079 221.607 190.958C222.093 190.836 222.796 191.268 223.716 192.252C224.656 193.231 225.198 194.006 225.34 194.577C225.409 194.852 225.305 195.204 225.03 195.632C224.776 196.055 224.48 196.308 224.141 196.393C223.507 196.551 222.7 196.336 221.722 195.749C220.745 195.161 220.187 194.592 220.05 194.042ZM217.836 171.237C217.683 170.623 217.935 170.235 218.59 170.071C219.246 169.908 220.23 170.157 221.54 170.819C222.873 171.475 223.591 172.015 223.697 172.438C224.045 173.834 224.268 176.846 224.365 181.473C224.478 186.074 224.175 188.463 223.456 188.643C222.885 188.785 222.251 188.629 221.553 188.174C220.855 187.718 220.417 187.176 220.237 186.547C220.137 186.324 220.053 185.626 219.985 184.452C219.912 183.257 219.709 181.454 219.378 179.043C219.041 176.61 218.527 174.008 217.836 171.237Z" fill="#1D1D1D"/>
</svg>
