<svg width="123" height="33" viewBox="0 0 123 33" fill="none" xmlns="http://www.w3.org/2000/svg">
<path fill-rule="evenodd" clip-rule="evenodd" d="M17.7318 9.2218C17.5753 9.34701 17.4842 9.53657 17.4842 9.73701V32.1828C17.4842 32.5472 17.7796 32.8426 18.144 32.8426H28.3708C28.7352 32.8426 29.0306 32.5472 29.0306 32.1828V1.55556C29.0306 1.00232 28.3906 0.694744 27.9586 1.04035L17.7318 9.2218ZM9.07184 32.8426C12.4425 32.8426 15.1749 30.1101 15.1749 26.7395C15.1749 23.3688 12.4425 20.6364 9.07184 20.6364C5.7012 20.6364 2.96875 23.3688 2.96875 26.7395C2.96875 30.1101 5.7012 32.8426 9.07184 32.8426Z" fill="#2F2B43"/>
<path d="M42.624 24.8945L48.816 8.09453H51.6L57.744 24.8945H55.056L53.616 20.7905H46.752L45.312 24.8945H42.624ZM47.472 18.7745H52.896L50.184 11.1185L47.472 18.7745ZM64.3547 24.8945V10.1585H59.3867V8.09453H71.8427V10.1585H66.8987V24.8945H64.3547ZM76.3834 24.8945V8.09453H78.9274V22.8785H86.5594V24.8945H76.3834ZM90.3774 24.8945L96.5694 8.09453H99.3534L105.497 24.8945H102.809L101.369 20.7905H94.5054L93.0654 24.8945H90.3774ZM95.2254 18.7745H100.649L97.9374 11.1185L95.2254 18.7745ZM115.544 25.1825C114.312 25.1825 113.232 24.9665 112.304 24.5345C111.376 24.1025 110.648 23.4865 110.12 22.6865C109.608 21.8865 109.344 20.9345 109.328 19.8305H112.016C112.032 20.7265 112.344 21.4865 112.952 22.1105C113.56 22.7345 114.416 23.0465 115.52 23.0465C116.496 23.0465 117.256 22.8145 117.8 22.3505C118.36 21.8705 118.64 21.2625 118.64 20.5265C118.64 19.9345 118.504 19.4545 118.232 19.0865C117.976 18.7185 117.616 18.4145 117.152 18.1745C116.704 17.9345 116.184 17.7185 115.592 17.5265C115 17.3345 114.376 17.1265 113.72 16.9025C112.424 16.4705 111.448 15.9105 110.792 15.2225C110.152 14.5345 109.832 13.6305 109.832 12.5105C109.816 11.5665 110.032 10.7425 110.48 10.0385C110.944 9.33453 111.584 8.79053 112.4 8.40653C113.232 8.00653 114.2 7.80653 115.304 7.80653C116.392 7.80653 117.344 8.00653 118.16 8.40653C118.992 8.80653 119.64 9.36653 120.104 10.0865C120.568 10.7905 120.808 11.6145 120.824 12.5585H118.136C118.136 12.1265 118.024 11.7185 117.8 11.3345C117.576 10.9345 117.248 10.6065 116.816 10.3505C116.384 10.0945 115.856 9.96653 115.232 9.96653C114.432 9.95053 113.768 10.1505 113.24 10.5665C112.728 10.9825 112.472 11.5585 112.472 12.2945C112.472 12.9505 112.664 13.4545 113.048 13.8065C113.432 14.1585 113.96 14.4545 114.632 14.6945C115.304 14.9185 116.072 15.1825 116.936 15.4865C117.768 15.7585 118.512 16.0865 119.168 16.4705C119.824 16.8545 120.344 17.3585 120.728 17.9825C121.128 18.6065 121.328 19.3985 121.328 20.3585C121.328 21.2065 121.112 21.9985 120.68 22.7345C120.248 23.4545 119.6 24.0465 118.736 24.5105C117.872 24.9585 116.808 25.1825 115.544 25.1825Z" fill="#2F2B43"/>
</svg>
