<svg width="200" height="40" viewBox="0 0 200 40" fill="none" xmlns="http://www.w3.org/2000/svg">
<g clip-path="url(#clip0_1589_11912)">
<path d="M26.8517 17.167L36.312 7.7553L34.3402 5.83277L22.9026 13.3057L20.1169 0H17.3258V15.402C17.3258 15.869 17.1401 16.3144 16.8069 16.6457C16.4737 16.9769 16.0258 17.1616 15.556 17.167H0V19.9422L13.3821 22.7174L3.91632 32.1182L5.8936 34.0788L17.3203 26.6005L20.1114 39.9115H22.9026V24.4715C22.9026 24.0045 23.0937 23.5592 23.4269 23.2279C23.7601 22.8966 24.208 22.7119 24.6777 22.7119H40.2338V19.9368L26.8517 17.167Z" fill="#ED5753"/>
<path d="M84.7553 30.25C82.1335 30.25 80.5659 29.1584 80.5659 27.3336C80.5659 26.3778 80.91 25.0907 83.865 24.9658L90.3922 24.6888C90.3539 28.2623 88.2783 30.2826 84.7607 30.2826L84.7553 30.25ZM86.0225 13.3057C80.9264 13.3057 77.7529 15.7658 77.6163 19.8933V20.2246H81.6146V19.9205C81.6911 17.873 83.2587 16.7434 86.028 16.7434C89.0376 16.7434 90.3976 17.9762 90.3976 20.6319V21.3271L83.8486 21.604C77.9222 21.8484 76.6823 24.8626 76.6823 27.3391C76.6823 31.195 79.6919 33.6878 84.3839 33.6878C87.0603 33.6878 89.0321 32.8297 90.3976 31.0483V33.1501H94.2156V20.8057C94.2211 15.9342 91.3863 13.3057 86.0225 13.3057Z" fill="white"/>
<path d="M112.437 23.4994C112.437 27.6215 110.067 30.174 106.254 30.174C102.442 30.174 100.071 27.616 100.071 23.4994C100.071 19.3774 102.442 16.814 106.254 16.814C110.067 16.814 112.437 19.3991 112.437 23.5266V23.4994ZM106.817 13.3057C103.938 13.3057 101.759 14.2452 100.333 16.108C100.311 16.1406 100.284 16.1677 100.257 16.1895V13.8487H96.3677V39.9659H100.257V30.8257L100.322 30.918C101.742 32.7699 103.922 33.7149 106.806 33.7149C111.558 33.7149 116.348 30.565 116.348 23.532C116.348 16.4936 111.591 13.3057 106.817 13.3057Z" fill="white"/>
<path d="M135.76 17.3843V13.8759H130.386V8.81975H126.497V13.8487H118.243V33.1447H122.116V17.3843H126.447V27.5128C126.447 31.347 128.326 33.2098 132.183 33.2098H135.744V29.7069H130.315V17.4223L135.76 17.3843Z" fill="white"/>
<path d="M146.597 30.174C142.785 30.174 140.414 27.616 140.414 23.4994C140.414 19.3774 142.785 16.814 146.597 16.814C150.41 16.814 152.769 19.372 152.769 23.4994C152.769 27.6269 150.41 30.2066 146.597 30.2066V30.174ZM146.597 13.3057C140.463 13.3057 136.492 17.3082 136.492 23.494C136.492 29.6852 140.463 33.6769 146.597 33.6769C152.731 33.6769 156.702 29.7069 156.702 23.5211C156.702 17.3462 152.731 13.3057 146.597 13.3057Z" fill="white"/>
<path d="M162.47 6.69627H158.581V33.1718H162.47V6.69627Z" fill="white"/>
<path d="M183.275 10.726L186.492 21.4846H180.058L183.275 10.726ZM180.326 6.69627L172.553 32.0422V33.1718H176.551L178.933 25.2101H187.623L190.004 33.1718H194.003V32.14L186.214 6.718L180.326 6.69627Z" fill="white"/>
<path d="M200 6.69627H195.893V33.1718H200V6.69627Z" fill="white"/>
<path d="M75.8139 22.8314V22.511H71.9467C71.6299 26.9969 68.9753 29.6418 64.5619 29.9893C64.2779 29.9893 63.983 29.9893 63.6771 29.9893C58.062 29.9893 54.4352 26.0411 54.4352 19.9422C54.4352 13.8433 58.062 9.8842 63.6771 9.8842C63.983 9.8842 64.2779 9.8842 64.5619 9.8842C68.9753 10.1992 71.6299 12.8766 71.9467 17.3625H75.8139V17.0475C75.8084 14.4679 74.8689 11.9697 73.1702 10.02C71.4715 8.07029 69.1228 6.7886 66.5501 6.41387H66.4737C66.0586 6.33784 65.6216 6.2781 65.1737 6.24008C64.7203 6.20206 64.1905 6.17491 63.6716 6.17491C55.6697 6.17491 50.2895 11.709 50.2895 19.9531C50.2895 28.1971 55.6697 33.7258 63.6716 33.7258C64.196 33.7258 64.6985 33.704 65.1737 33.6606C65.627 33.6606 66.0586 33.5628 66.4737 33.4868H66.5283C69.1064 33.1175 71.4606 31.8358 73.1647 29.8807C74.8744 27.9256 75.8139 25.422 75.8139 22.8314Z" fill="white"/>
<path d="M123.274 6.07172H118.243V10.7369H123.274V6.07172Z" fill="white"/>
</g>
<defs>
<clipPath id="clip0_1589_11912">
<rect width="200" height="40" fill="white"/>
</clipPath>
</defs>
</svg>
