<svg xmlns="http://www.w3.org/2000/svg" width="245" height="49" viewBox="0 0 245 49" fill="none">
    <path d="M32.8933 21.0296L44.4822 9.50024L42.0667 7.14514L28.0556 16.2994L24.6432 0H21.2241V18.8674C21.2241 19.4396 20.9966 19.9851 20.5884 20.3909C20.1803 20.7967 19.6316 21.0229 19.0562 21.0296H0V24.4292L16.3931 27.8288L4.79749 39.3448L7.21966 41.7465L21.2174 32.5856L24.6365 48.8916H28.0556V29.9776C28.0556 29.4055 28.2898 28.86 28.698 28.4542C29.1061 28.0483 29.6548 27.8221 30.2302 27.8221H49.2864V24.4225L32.8933 21.0296Z" fill="#1D76F3"/>
    <path d="M103.825 37.0561C100.613 37.0561 98.6931 35.7189 98.6931 33.4836C98.6931 32.3127 99.1147 30.736 102.735 30.5829L110.73 30.2436C110.684 34.6212 108.141 37.0961 103.832 37.0961L103.825 37.0561ZM105.378 16.2993C99.1347 16.2993 95.2472 19.313 95.08 24.3692V24.775H99.9778V24.4025C100.071 21.8943 101.992 20.5106 105.384 20.5106C109.071 20.5106 110.737 22.0208 110.737 25.274V26.1255L102.714 26.4648C95.4547 26.7642 93.9358 30.4565 93.9358 33.4902C93.9358 38.2137 97.6226 41.2674 103.37 41.2674C106.649 41.2674 109.064 40.2162 110.737 38.0341V40.6088H115.414V25.4869C115.421 19.5193 111.948 16.2993 105.378 16.2993Z" fill="#242329"/>
    <path d="M137.736 28.7867C137.736 33.8362 134.832 36.963 130.161 36.963C125.491 36.963 122.587 33.8295 122.587 28.7867C122.587 23.7372 125.491 20.597 130.161 20.597C134.832 20.597 137.736 23.7638 137.736 28.8199V28.7867ZM130.851 16.2993C127.324 16.2993 124.655 17.4503 122.908 19.7322C122.881 19.7721 122.848 19.8054 122.815 19.832V16.9646H118.051V48.9581H122.815V37.7613L122.895 37.8744C124.635 40.1431 127.304 41.3006 130.837 41.3006C136.658 41.3006 142.526 37.442 142.526 28.8266C142.526 20.2045 136.699 16.2993 130.851 16.2993Z" fill="#242329"/>
    <path d="M166.306 21.2957V16.998H159.722V10.8042H154.958V16.9647H144.848V40.6022H149.592V21.2957H154.898V33.7032C154.898 38.4001 157.2 40.6821 161.924 40.6821H166.286V36.391H159.635V21.3423L166.306 21.2957Z" fill="#242329"/>
    <path d="M179.582 36.963C174.911 36.963 172.007 33.8295 172.007 28.7867C172.007 23.7372 174.911 20.597 179.582 20.597C184.252 20.597 187.142 23.7305 187.142 28.7867C187.142 33.8428 184.252 37.0029 179.582 37.0029V36.963ZM179.582 16.2993C172.068 16.2993 167.203 21.2025 167.203 28.78C167.203 36.3643 172.068 41.2541 179.582 41.2541C187.096 41.2541 191.96 36.3909 191.96 28.8133C191.96 21.249 187.096 16.2993 179.582 16.2993Z" fill="#242329"/>
    <path d="M199.026 8.20288H194.262V40.6354H199.026V8.20288Z" fill="#242329"/>
    <path d="M224.512 13.1393L228.453 26.3185H220.571L224.512 13.1393ZM220.899 8.20288L211.377 39.2516V40.6354H216.275L219.193 30.8824H229.838L232.755 40.6354H237.653V39.3714L228.112 8.22949L220.899 8.20288Z" fill="#242329"/>
    <path d="M245 8.20288H239.968V40.6354H245V8.20288Z" fill="#242329"/>
    <path d="M92.8721 27.9684V27.5759H88.1348C87.7467 33.0712 84.4949 36.3111 79.0885 36.7369C78.7406 36.7369 78.3792 36.7369 78.0045 36.7369C71.1261 36.7369 66.6833 31.9003 66.6833 24.4291C66.6833 16.958 71.1261 12.1081 78.0045 12.1081C78.3792 12.1081 78.7406 12.1081 79.0885 12.1081C84.4949 12.494 87.7467 15.7738 88.1348 21.269H92.8721V20.8832C92.8654 17.7231 91.7145 14.6628 89.6336 12.2744C87.5527 9.88605 84.6755 8.31598 81.524 7.85693H81.4304C80.9218 7.76379 80.3866 7.69061 79.8379 7.64404C79.2825 7.59747 78.6335 7.56421 77.9978 7.56421C68.1954 7.56421 61.6047 14.3434 61.6047 24.4424C61.6047 34.5414 68.1954 41.314 77.9978 41.314C78.6402 41.314 79.2558 41.2874 79.8379 41.2342C80.3932 41.2342 80.9218 41.1144 81.4304 41.0213H81.4973C84.6555 40.5689 87.5393 38.9988 89.6269 36.6038C91.7212 34.2088 92.8721 31.1418 92.8721 27.9684Z" fill="#242329"/>
    <path d="M151.011 7.43774H144.848V13.1525H151.011V7.43774Z" fill="#242329"/>
</svg>