<svg xmlns="http://www.w3.org/2000/svg" width="1497.75" height="333.1"><path fill="#231f20" d="M666.52 4.23A31.69 31.69 0 0 0 650.21 0a30.49 30.49 0 0 0-16.05 4.22 35.35 35.35 0 0 0-12 12 31.76 31.76 0 0 0-4.19 16.25 32.49 32.49 0 0 0 4.51 16.63 32.83 32.83 0 0 0 11.76 11.94 32.33 32.33 0 0 0 32.25-.24 34.09 34.09 0 0 0 11.81-11.79 31.89 31.89 0 0 0 4.22-16.54 31.76 31.76 0 0 0-4.27-16.36 32.72 32.72 0 0 0-11.73-11.88zm306.47 81.23a63.32 63.32 0 0 0-7.67 0c-25.6 1.72-46.25 8-61.37 18.66l-4.34 3.05-4.35-3c-15.29-10.68-36-17-61.64-18.68a63.32 63.32 0 0 0-7.67 0c-65.18 4.19-96.86 37.71-96.86 102.47V325.8h61.66V187.93c0-38.77 19.9-47.56 36.59-48.11h4.57c15.77.56 34.67 8.28 36.58 41.93V325.8h61.91v-144c1.91-33.65 20.81-41.37 36.32-41.93h4.59c16.94.55 36.83 9.34 36.83 48.11V325.8h61.67V187.93c.03-64.76-31.65-98.28-96.82-102.47zm518.42-.28-1.84-.07h-4c-66.34 3.35-98.64 36.91-98.64 102.59v137.86h61.67V187.7c0-38.73 19.86-47.67 36.52-48.35h5.66a6.78 6.78 0 0 0 7-6.69V91.92a6.68 6.68 0 0 0-6.37-6.74zm-935.89 9.9h-26.88a17.53 17.53 0 0 0-11.57 4.37l-3.81 3.32-4.42-2.44a124.05 124.05 0 1 0-59.75 232.77 123 123 0 0 0 51.66-11.29l10.23-4.7v8.31h62.12V112.7a17.65 17.65 0 0 0-17.58-17.62zM511.59 214l-.09 1.22c-.1 1.21-.21 2.25-.35 3.28l-.1.85c-.2 1.32-.43 2.62-.69 3.86l-.11.48c-.27 1.21-.54 2.29-.84 3.4l-.26.87a61.59 61.59 0 0 1-2.68 7.37l-.19.43c-.55 1.22-1 2.27-1.59 3.3l-.23.46a63.29 63.29 0 0 1-2 3.5 62.62 62.62 0 1 1 0-65.51c.68 1.11 1.35 2.29 2 3.49l.17.33c.57 1.1 1.07 2.14 1.58 3.26l.26.58a60.53 60.53 0 0 1 2.69 7.39l.25.87c.29 1 .56 2.13.82 3.25l.13.59c.27 1.28.5 2.6.7 3.89l.11.87c.13 1.06.25 2.12.33 3.14l.08 1.1c.1 1.5.14 2.77.14 4s-.05 2.33-.13 3.73zM271.5 0h-.06l-26.61.08a17.44 17.44 0 0 0-17.35 17.41v308.45l61.43-.77V17.41A17.43 17.43 0 0 0 271.5 0zm1079.58 200.48c-.09-1.32-.19-2.64-.33-3.95-.07-.72-.16-1.43-.24-2.14l-.14-1.07c-.09-.73-.18-1.45-.29-2.18-.18-1.22-.38-2.43-.59-3.64l-.19-1.05a122.81 122.81 0 0 0-120.85-100.31c-1.73 0-3.46 0-5.2.11-63.37 2.7-114.91 54.47-117.33 117.86a122.8 122.8 0 0 0 122.7 127.61 123.16 123.16 0 0 0 99.69-51.09 15.81 15.81 0 0 0 1.3-16.73 15.51 15.51 0 0 0-14-8.57h-38.54a16 16 0 0 0-9.84 3.54 63.08 63.08 0 0 1-97-26.1l-1.75-4.26h167a15.65 15.65 0 0 0 15.83-14.91c.06-1.55.09-3.11.09-4.67 0-2.16-.08-4.48-.25-7.29zM1168.56 189l1.78-4.28a63.1 63.1 0 0 1 116.53 0l1.78 4.28zM79.13 164.12a64.27 64.27 0 0 1 70.62-12.8 14.57 14.57 0 0 0 15.91-2.79l20.72-20.32a17.82 17.82 0 0 0 5.21-15.37 17.53 17.53 0 0 0-9.13-13.11 124.25 124.25 0 0 0-65.12-14.53C54.02 88.49 2.53 140.71.1 204.09a123.94 123.94 0 0 0 123.83 128.8 122.69 122.69 0 0 0 56.39-13.54 17.48 17.48 0 0 0 9.37-13.09 17.8 17.8 0 0 0-5.25-15.58l-19.33-18.81a14.35 14.35 0 0 0-15.58-2.87 64.21 64.21 0 0 1-70.4-104.88z"/><path fill="#231f20" d="M666.52 4.23A31.69 31.69 0 0 0 650.21 0a30.49 30.49 0 0 0-16.05 4.22 35.35 35.35 0 0 0-12 12 31.76 31.76 0 0 0-4.19 16.25 32.49 32.49 0 0 0 4.51 16.63 32.83 32.83 0 0 0 11.76 11.94 32.33 32.33 0 0 0 32.25-.24 34.09 34.09 0 0 0 11.81-11.79 31.89 31.89 0 0 0 4.22-16.54 31.76 31.76 0 0 0-4.27-16.36 32.72 32.72 0 0 0-11.73-11.88zm-3 91.04-26.67.08a17.44 17.44 0 0 0-17.35 17.41V326h61.43V112.67a17.43 17.43 0 0 0-17.41-17.4z"/></svg>