<svg width="705" height="260" viewBox="0 0 705 260" fill="none" xmlns="http://www.w3.org/2000/svg">
<path d="M61.9493 260H198.051C232.264 260 260 232.264 260 198.051V61.9493C260 27.7357 232.264 3.05176e-05 198.051 3.05176e-05H61.9493C27.7357 3.05176e-05 3.05176e-05 27.7357 3.05176e-05 61.9493V198.051C3.05176e-05 232.264 27.7357 260 61.9493 260Z" fill="#9AEDF7"/>
<path d="M130.046 52.1544C131.034 52.1185 132.688 51.2019 134.988 49.9259C144.962 43.9772 154.577 39.8975 150.57 54.0594C148.539 60.3496 140.056 79.975 136.839 85.4744C128.644 98.1626 123.019 85.6541 118.867 76.758C114.967 68.2393 110.277 59.2533 108.569 50.2134C106.736 36.2492 126.11 52.1005 129.848 52.1724H130.046V52.1544Z" fill="black"/>
<path d="M129.956 207.845C128.967 207.881 127.314 208.798 125.013 210.074C115.039 216.022 105.424 220.102 109.432 205.94C111.463 199.65 119.945 180.025 123.162 174.525C131.358 161.837 136.983 174.345 141.134 183.242C145.034 191.76 149.725 200.746 151.432 209.786C153.265 223.75 133.892 207.899 130.153 207.827H129.956V207.845Z" fill="black"/>
<path d="M207.844 130.045C207.88 131.033 208.797 132.687 210.073 134.987C216.021 144.961 220.101 154.576 205.939 150.569C199.649 148.538 180.024 140.055 174.524 136.838C161.836 128.643 174.345 123.018 183.241 118.866C191.759 114.966 200.745 110.276 209.785 108.568C223.749 106.735 207.898 126.109 207.826 129.847V130.045H207.844Z" fill="black"/>
<path d="M52.1544 129.955C52.1185 128.966 51.2019 127.313 49.9259 125.013C43.9772 115.038 39.8975 105.423 54.0594 109.431C60.3496 111.462 79.975 119.944 85.4744 123.161C98.1626 131.357 85.6541 136.982 76.758 141.133C68.2393 145.033 59.2533 149.724 50.2134 151.431C36.2492 153.264 52.1005 133.891 52.1724 130.152V129.955H52.1544Z" fill="black"/>
<path d="M185.074 74.9794C185.793 75.6443 187.626 76.1655 190.142 76.8844C201.411 79.7239 211.079 83.6418 198.247 90.8126C192.371 93.8319 172.494 101.704 166.329 103.321C151.574 106.502 156.427 93.6702 159.788 84.4326C163.058 75.6623 166.078 65.9754 171.272 58.3733C179.844 47.1947 182.342 72.1218 184.93 74.7996L185.074 74.9434V74.9794Z" fill="black"/>
<path d="M74.9249 185.021C74.206 184.356 72.3729 183.835 69.8568 183.116C58.5884 180.277 48.9195 176.359 61.7515 169.188C67.6283 166.169 87.5053 158.297 93.6696 156.68C108.425 153.499 103.572 166.331 100.211 175.568C96.9405 184.339 93.9212 194.025 88.7273 201.628C80.1547 212.806 77.6566 187.879 75.0687 185.201L74.9249 185.057V185.021Z" fill="black"/>
<path d="M185.02 185.075C184.356 185.794 183.834 187.627 183.115 190.143C180.276 201.412 176.358 211.08 169.187 198.248C166.168 192.372 158.296 172.495 156.679 166.33C153.498 151.575 166.33 156.428 175.567 159.789C184.338 163.059 194.024 166.079 201.627 171.273C212.805 179.845 187.878 182.343 185.2 184.931L185.056 185.075H185.02Z" fill="black"/>
<path d="M74.9794 74.9249C75.6443 74.206 76.1655 72.3729 76.8844 69.8568C79.7239 58.5884 83.6418 48.9195 90.8126 61.7515C93.8319 67.6283 101.704 87.5053 103.321 93.6696C106.502 108.425 93.6702 103.572 84.4326 100.211C75.6623 96.9405 65.9754 93.9212 58.3733 88.7273C47.1947 80.1547 72.1218 77.6566 74.7996 75.0687L74.9434 74.9249H74.9794Z" fill="black"/>
<path d="M372.234 149.778C372.234 155.151 370.869 159.465 368.137 162.736C365.405 166.006 361.02 167.642 355.017 167.642C349.015 167.642 344.576 166.006 341.736 162.736C338.896 159.465 337.477 155.313 337.477 150.263V143.829H319.289V150.263C319.289 157.02 320.637 163.059 323.315 168.379C325.993 173.698 330.018 177.85 335.392 180.851C340.766 183.853 347.307 185.362 355.035 185.362C362.332 185.362 368.694 183.906 374.121 181.013C379.549 178.119 383.754 174.058 386.756 168.864C389.757 163.652 391.267 157.613 391.267 150.748V66.0645H372.27V149.796L372.234 149.778Z" fill="black"/>
<path d="M464.323 145.591C464.323 153.534 462.706 159.465 459.489 163.383C456.272 167.301 451.438 169.26 445.004 169.26C439.307 169.26 434.939 167.552 431.884 164.102C428.829 160.669 427.301 155.026 427.301 147.19V103.878H409.275V153.462C409.275 163.131 411.827 170.859 416.931 176.646C422.035 182.433 429.134 185.345 438.264 185.345C443.746 185.345 448.868 184.141 453.648 181.714C458.429 179.306 461.933 176.107 464.198 172.135L465.815 183.242H482.403V104.022H464.377V145.573L464.323 145.591Z" fill="black"/>
<path d="M591.043 101.631C584.07 101.631 578.139 103.482 573.251 107.184C569.764 109.826 567.23 113.115 565.63 116.997C563.887 113.115 561.425 109.844 558.19 107.184C553.679 103.482 547.892 101.631 540.793 101.631C534.467 101.631 529.147 103.105 524.852 106.052C521.581 108.298 519.083 110.886 517.376 113.798L515.848 104.039H499.422V183.259H517.448V137.539C517.448 133.351 518.22 129.811 519.784 126.917C521.348 124.024 523.432 121.813 526.056 120.322C528.68 118.812 531.663 118.075 534.988 118.075C539.931 118.075 543.848 119.603 546.742 122.658C549.635 125.713 551.091 130.152 551.091 135.939V183.277H569.117V137.718C569.117 133.315 569.872 129.667 571.364 126.774C572.873 123.88 574.922 121.67 577.564 120.178C580.188 118.686 583.171 117.931 586.496 117.931C591.438 117.931 595.374 119.495 598.321 122.604C601.269 125.713 602.743 130.224 602.743 136.137V183.313H620.607V131.464C620.607 122.335 618.037 115.092 612.879 109.736C607.721 104.363 600.424 101.685 590.989 101.685L591.043 101.631Z" fill="black"/>
<path d="M700.042 116.368C697.256 111.479 693.338 107.813 688.288 105.333C683.238 102.871 677.289 101.631 670.424 101.631C663.559 101.631 657.305 102.781 651.985 105.099C646.665 107.4 642.568 110.653 639.674 114.84C636.781 119.028 635.325 123.97 635.325 129.649H650.781C650.781 125.246 652.398 121.849 655.615 119.423C658.832 117.015 663.451 115.793 669.454 115.793C672.886 115.793 675.888 116.332 678.476 117.41C681.046 118.489 683.058 120.196 684.514 122.568C685.97 124.94 686.689 128.05 686.689 131.914V133.855L662.535 135.796C653.081 136.55 645.821 139.102 640.717 143.452C635.613 147.801 633.061 153.624 633.061 160.92C633.061 168.217 635.469 174.13 640.303 178.623C645.138 183.134 651.733 185.38 660.108 185.38C666.434 185.38 672.042 184.068 676.93 181.426C681.818 178.802 685.161 175.388 686.994 171.2L688.612 183.277H704.229V134.645C704.229 127.349 702.828 121.256 700.042 116.368ZM686.833 150.586C686.833 157.02 684.928 162.124 681.117 165.881C677.307 169.637 672.185 171.524 665.734 171.524C661.223 171.524 657.7 170.589 655.184 168.702C652.668 166.833 651.392 163.958 651.392 160.094C651.392 156.661 652.74 153.875 655.418 151.719C658.095 149.58 662.606 148.232 668.951 147.693L686.815 146.237V150.586H686.833Z" fill="black"/>
</svg>
