<svg width="176" height="82" viewBox="0 0 176 82" fill="none" xmlns="http://www.w3.org/2000/svg">
<path d="M85.7001 16.2816C89.9614 16.2816 93.4159 12.8165 93.4159 8.54216C93.4159 4.26779 89.9614 0.802734 85.7001 0.802734C81.4388 0.802734 77.9844 4.26779 77.9844 8.54216C77.9844 12.8165 81.4388 16.2816 85.7001 16.2816Z" fill="#131032"/>
<path d="M20.5192 41.2251L40.3121 21.3714C40.6528 21.0296 40.4105 20.4372 39.9259 20.4372H23.9341C23.7902 20.4372 23.6539 20.498 23.5479 20.5967L13.2426 30.9337V3.78111C13.2426 3.39376 12.8489 3.12793 12.493 3.27224L1.18058 7.86729C0.976138 7.95084 0.839844 8.14831 0.839844 8.37616V61.8534C0.839844 62.3547 1.24873 62.7648 1.74847 62.7648H12.334C12.8337 62.7648 13.2426 62.3547 13.2426 61.8534V51.5165L24.3127 62.6129C24.4111 62.7117 24.555 62.7724 24.6989 62.7724L40.6982 62.7648C41.1828 62.7648 41.4251 62.1724 41.0844 61.8306L20.5192 41.2251Z" fill="#131032"/>
<path d="M80.4052 62.7648H90.9907C91.4904 62.7648 91.8993 62.3547 91.8993 61.8534V21.3562C91.8993 20.855 91.4904 20.4448 90.9907 20.4448H80.4052C79.9055 20.4448 79.4966 20.855 79.4966 21.3562V61.861C79.5041 62.3623 79.9055 62.7648 80.4052 62.7648Z" fill="#131032"/>
<path fill-rule="evenodd" clip-rule="evenodd" d="M155.412 20.4904C165.816 21.2043 174.244 29.6577 174.97 40.0858C175.826 52.4659 166.073 62.7648 153.928 62.7724C150.824 62.7724 147.878 62.0889 145.228 60.8813V74.5905C145.228 74.9626 145.008 75.2968 144.66 75.4335L133.575 79.9374C133.219 80.0817 132.825 79.8235 132.825 79.4285V41.6048H132.833C132.833 29.4147 143.085 19.6398 155.412 20.4904ZM145.228 41.6048C145.228 46.4201 149.12 50.3316 153.928 50.3316C158.729 50.3316 162.621 46.4201 162.621 41.6048C162.621 36.7895 158.729 32.878 153.928 32.878C149.12 32.878 145.228 36.7895 145.228 41.6048Z" fill="#131032"/>
<path d="M112.805 30.6375C112.843 30.6375 112.889 30.6375 112.926 30.6451C114.963 30.5615 116.796 31.8679 118.287 33.911C118.53 34.2452 118.969 34.3591 119.347 34.2072L127.873 30.7666C128.343 30.5767 128.57 30.0375 128.373 29.5666C126.23 24.3867 119.711 20.4448 112.798 20.4448C103.772 20.4448 96.4425 26.2019 96.4425 33.3034C96.4425 37.1085 98.6534 40.4124 101.69 42.5694C104.416 44.5062 107.672 45.7594 110.882 46.5948C110.935 46.61 110.988 46.6233 111.041 46.6366C111.094 46.6499 111.147 46.6632 111.2 46.6784C115.531 47.643 116.152 48.7898 116.152 49.9215C116.152 51.395 114.373 52.5874 112.184 52.5874C109.92 52.7317 107.914 51.1747 106.339 48.805C106.104 48.448 105.642 48.3189 105.249 48.4784L96.8211 51.9418C96.3592 52.1317 96.1471 52.6481 96.3213 53.119C98.7367 59.6812 105.249 62.78 112.184 62.78C121.21 62.78 128.54 57.0305 128.54 49.9215C128.54 48.3721 128.191 46.891 127.548 45.5163C126.934 44.2024 125.337 41.4074 121.203 39.4706C120.172 38.9902 118.345 38.3508 116.425 37.6791C113.944 36.8111 111.309 35.8892 110.042 35.187C109.269 34.7616 108.83 34.0553 108.83 33.3034C108.83 31.8299 110.617 30.6375 112.805 30.6375Z" fill="#131032"/>
<path d="M75.1276 21.1967C75.2715 20.8398 75.0064 20.4448 74.6203 20.4448H66.6319C55.0091 20.4448 45.5821 29.9008 45.5821 41.5593V61.8534C45.5821 62.3547 45.991 62.7648 46.4907 62.7648H57.0762C57.576 62.7648 57.9773 62.3623 57.9773 61.861V41.5593C57.9773 36.7591 61.8541 32.8704 66.6395 32.8704H69.9863C70.2059 32.8704 70.4027 32.7413 70.486 32.5363L75.1276 21.1967Z" fill="#131032"/>
</svg>
