<svg width="180" height="40" viewBox="0 0 180 40" fill="none" xmlns="http://www.w3.org/2000/svg">
<path d="M25.6305 32.8312C26.7983 32.5038 27.9166 31.9062 28.6505 30.8503C29.3749 29.8163 29.5789 28.5047 29.5789 27.2425V8.75099C29.5789 8.42358 29.5611 8.09557 29.5216 7.77148C30.1016 7.99961 30.5486 8.37658 30.8626 8.90239C31.2331 9.50024 31.4184 10.2876 31.4184 11.2643V30.0464C31.4184 31.3684 31.0942 32.3578 30.4458 33.0146C29.7974 33.6714 28.8207 33.9998 27.5155 33.9998H20.4209C20.5889 33.9704 20.7574 33.9401 20.9262 33.909C22.4067 33.6444 23.9713 33.2854 25.6185 32.8346L25.6305 32.8312Z" fill="#C83F49"/>
<path fill-rule="evenodd" clip-rule="evenodd" d="M8.58203 29.655V10.8477C8.58203 9.70251 8.88938 8.83519 9.50408 8.24575C10.1272 7.65631 10.9524 7.33212 11.9797 7.27318C13.4954 7.18055 14.9311 7.05425 16.2868 6.89425C17.6425 6.72584 18.9393 6.53217 20.1771 6.31324C21.4234 6.0943 22.6359 5.85011 23.8148 5.58065C25.0274 5.29435 25.9578 5.4375 26.6062 6.0101C27.2546 6.58269 27.5788 7.49632 27.5788 8.75099V27.2425C27.5788 28.3456 27.3893 29.1666 27.0104 29.7055C26.6315 30.2529 25.9915 30.6528 25.0905 30.9054C23.4906 31.3433 21.9833 31.6886 20.5687 31.9412C19.154 32.2022 17.7731 32.4001 16.4258 32.5348C15.0785 32.6696 13.6975 32.7748 12.2829 32.8506C11.1124 32.918 10.203 32.6738 9.5546 32.118C8.90622 31.5707 8.58203 30.7497 8.58203 29.655ZM13.2087 14.2624C15.0635 14.1444 16.7632 13.9631 18.3075 13.7183C18.6822 13.6572 19.0564 13.5936 19.4291 13.5276C19.8192 13.4585 20.1013 13.1186 20.1013 12.7234C20.1013 12.2115 19.638 11.8261 19.135 11.9119C18.846 11.9612 18.5555 12.0091 18.2635 12.0556C16.7346 12.2992 15.0452 12.48 13.1952 12.5977C12.9182 12.6156 12.6978 12.7019 12.5561 12.8739C12.4221 13.0366 12.3564 13.2323 12.3564 13.4553C12.3564 13.6821 12.433 13.8795 12.5857 14.0418L12.5878 14.0439C12.7534 14.2095 12.9637 14.2811 13.2087 14.2624ZM13.208 18.456C15.0631 18.338 16.763 18.1566 18.3075 17.9119C19.8588 17.6589 21.3936 17.3638 22.9112 17.0266C23.2191 16.9581 23.4498 16.8503 23.5652 16.683C23.6786 16.5221 23.7347 16.3376 23.7347 16.1332C23.7347 15.9026 23.6469 15.704 23.476 15.5426C23.2921 15.3689 23.0348 15.3284 22.7304 15.3911L22.7285 15.3915C21.2823 15.7194 19.794 16.0053 18.2635 16.2492C16.7346 16.4928 15.0452 16.6735 13.1952 16.7913C12.9182 16.8091 12.6978 16.8954 12.5561 17.0675C12.4228 17.2294 12.3564 17.4205 12.3564 17.6363C12.3564 17.8703 12.4321 18.0723 12.5856 18.2354L12.59 18.2396C12.755 18.3949 12.9632 18.4655 13.2055 18.4562L13.208 18.456ZM13.2085 22.6494C15.0634 22.5229 16.7631 22.3374 18.3075 22.0927C19.8589 21.8482 21.3934 21.5573 22.9112 21.22C23.2199 21.1514 23.4508 21.0391 23.566 20.8627C23.6783 20.7029 23.7347 20.5233 23.7347 20.3266C23.7347 20.0961 23.6469 19.8974 23.476 19.7361C23.2921 19.5623 23.0348 19.5218 22.7304 19.5845L22.729 19.5848C21.2827 19.9043 19.7942 20.1861 18.2635 20.43C16.7345 20.6736 15.045 20.8586 13.1949 20.9847C12.918 21.0026 12.6977 21.0889 12.5561 21.2609C12.4228 21.4228 12.3564 21.6139 12.3564 21.8297C12.3564 22.0637 12.4321 22.2658 12.5856 22.4289L12.59 22.433C12.755 22.5883 12.9632 22.6589 13.2055 22.6496L13.2085 22.6494ZM18.3075 26.257C16.7632 26.5018 15.0635 26.6831 13.2087 26.8012C12.9637 26.8198 12.7534 26.7482 12.5878 26.5826L12.5857 26.5805C12.433 26.4182 12.3564 26.2208 12.3564 25.9941C12.3564 25.771 12.4221 25.5753 12.5561 25.4126C12.6978 25.2406 12.9183 25.1543 13.1953 25.1364C15.0453 25.0187 16.7346 24.838 18.2635 24.5943C18.5555 24.5478 18.846 24.4999 19.135 24.4506C19.638 24.3648 20.1013 24.7503 20.1013 25.2621C20.1013 25.6573 19.8192 25.9972 19.4291 26.0663C19.0564 26.1323 18.6822 26.1959 18.3075 26.257Z" fill="#2845C1"/>
<path d="M122.2 28.2C122.09 28.2 122 28.1105 122 28V12.45C122 12.3395 122.09 12.25 122.2 12.25H128.22C129.481 12.25 130.628 12.4627 131.661 12.888C132.694 13.3133 133.583 13.8982 134.327 14.6425C135.087 15.3716 135.664 16.2147 136.059 17.1717C136.469 18.1287 136.674 19.1465 136.674 20.225C136.674 21.3035 136.469 22.3213 136.059 23.2783C135.664 24.2353 135.087 25.086 134.327 25.8303C133.583 26.5594 132.694 27.1367 131.661 27.562C130.628 27.9873 129.481 28.2 128.22 28.2H122.2ZM128.243 14.7792H125.003C124.892 14.7792 124.803 14.8688 124.803 14.9792V25.4708C124.803 25.5812 124.892 25.6708 125.003 25.6708H128.243C129.048 25.6708 129.785 25.5341 130.453 25.2606C131.137 24.972 131.722 24.5771 132.208 24.0758C132.709 23.5745 133.097 22.9973 133.37 22.3441C133.643 21.6909 133.78 20.9845 133.78 20.225C133.78 19.4655 133.643 18.7591 133.37 18.1059C133.097 17.4375 132.709 16.8603 132.208 16.3742C131.722 15.8729 131.137 15.4856 130.453 15.2121C129.785 14.9235 129.048 14.7792 128.243 14.7792Z" fill="#2845C1"/>
<path d="M144.394 25.8531C144.91 25.8531 145.389 25.7544 145.829 25.5569C146.27 25.3443 146.65 25.0632 146.969 24.7139C147.303 24.3645 147.561 23.9619 147.743 23.5062C147.926 23.0353 148.017 22.534 148.017 22.0024C148.017 21.2732 147.857 20.62 147.538 20.0428C147.219 19.4655 146.786 19.0098 146.24 18.6756C145.693 18.3263 145.077 18.1516 144.394 18.1516C143.862 18.1516 143.369 18.2503 142.913 18.4478C142.472 18.6453 142.085 18.9187 141.751 19.2681C141.432 19.6175 141.181 20.0276 140.999 20.4985C140.817 20.9694 140.725 21.4707 140.725 22.0024C140.725 22.7163 140.885 23.3695 141.204 23.9619C141.523 24.5392 141.956 25.0025 142.503 25.3519C143.065 25.686 143.695 25.8531 144.394 25.8531ZM144.371 15.8046C145.298 15.8046 146.141 15.9641 146.9 16.2831C147.675 16.6021 148.336 17.0503 148.883 17.6275C149.445 18.1895 149.87 18.8503 150.159 19.6099C150.463 20.3542 150.614 21.1517 150.614 22.0024C150.614 22.853 150.463 23.6581 150.159 24.4176C149.87 25.162 149.445 25.8228 148.883 26.4C148.336 26.962 147.675 27.4026 146.9 27.7216C146.141 28.0406 145.298 28.2001 144.371 28.2001C143.445 28.2001 142.594 28.0406 141.819 27.7216C141.06 27.4026 140.399 26.962 139.837 26.4C139.275 25.8228 138.842 25.162 138.538 24.4176C138.249 23.6581 138.105 22.853 138.105 22.0024C138.105 21.1517 138.249 20.3542 138.538 19.6099C138.842 18.8503 139.275 18.1895 139.837 17.6275C140.399 17.0503 141.06 16.6021 141.819 16.2831C142.594 15.9641 143.445 15.8046 144.371 15.8046Z" fill="#2845C1"/>
<path d="M158.285 15.8046C159.333 15.8046 160.268 16.0173 161.088 16.4426C161.861 16.8223 162.504 17.332 163.017 17.9719C163.086 18.0576 163.068 18.1822 162.981 18.2486L161.327 19.5031C161.235 19.5732 161.103 19.5499 161.033 19.4576C160.758 19.0966 160.404 18.798 159.971 18.5617C159.485 18.2883 158.916 18.1516 158.262 18.1516C157.731 18.1516 157.237 18.2503 156.781 18.4478C156.341 18.6453 155.961 18.9187 155.642 19.2681C155.323 19.6175 155.072 20.0276 154.89 20.4985C154.708 20.9542 154.617 21.4555 154.617 22.0024C154.617 22.7315 154.776 23.3923 155.095 23.9847C155.414 24.562 155.847 25.0177 156.394 25.3519C156.941 25.686 157.579 25.8531 158.308 25.8531C158.931 25.8531 159.485 25.7164 159.971 25.443C160.404 25.2067 160.758 24.9081 161.033 24.5471C161.103 24.4548 161.235 24.4315 161.327 24.5016L162.979 25.7549C163.067 25.8217 163.084 25.9476 163.014 26.0331C162.502 26.6595 161.86 27.1691 161.088 27.5621C160.268 27.9874 159.333 28.2001 158.285 28.2001C156.994 28.2001 155.877 27.919 154.936 27.357C153.994 26.7798 153.265 26.0202 152.748 25.0784C152.247 24.1366 151.996 23.1113 151.996 22.0024C151.996 21.1669 152.141 20.377 152.429 19.6326C152.718 18.8883 153.136 18.2275 153.682 17.6503C154.229 17.073 154.89 16.6249 155.665 16.3059C156.44 15.9717 157.313 15.8046 158.285 15.8046Z" fill="#2845C1"/>
<path d="M166.917 19.1541C166.917 19.5187 167.047 19.8225 167.305 20.0656C167.578 20.2934 167.928 20.4909 168.353 20.658C168.778 20.8251 169.226 21.0074 169.697 21.2049C170.183 21.3871 170.639 21.615 171.064 21.8884C171.49 22.1467 171.832 22.496 172.09 22.9366C172.363 23.3619 172.5 23.9012 172.5 24.5544C172.5 25.3291 172.31 25.9899 171.93 26.5367C171.566 27.0684 171.08 27.4785 170.472 27.7671C169.864 28.0558 169.196 28.2001 168.467 28.2001C167.48 28.2001 166.621 28.0178 165.892 27.6532C165.22 27.3033 164.626 26.8438 164.109 26.2746C164.035 26.1936 164.044 26.0685 164.126 25.9962L165.53 24.7612C165.615 24.6858 165.746 24.6975 165.821 24.784C166.151 25.167 166.517 25.4854 166.917 25.7392C167.373 26.0278 167.882 26.1721 168.444 26.1721C168.976 26.1721 169.378 26.0354 169.652 25.762C169.94 25.4734 170.085 25.124 170.085 24.7139C170.085 24.3341 169.948 24.0303 169.675 23.8024C169.416 23.5746 169.075 23.3771 168.649 23.21C168.224 23.0429 167.768 22.8682 167.282 22.6859C166.811 22.4885 166.363 22.253 165.938 21.9796C165.512 21.7061 165.163 21.3568 164.89 20.9314C164.631 20.4909 164.502 19.9289 164.502 19.2453C164.502 18.6073 164.669 18.03 165.003 17.5136C165.338 16.9819 165.801 16.5642 166.393 16.2604C167.001 15.9565 167.692 15.8046 168.467 15.8046C169.302 15.8046 170.077 15.9869 170.791 16.3515C171.456 16.6838 171.988 17.0981 172.387 17.5944C172.453 17.6758 172.439 17.7939 172.359 17.8617L170.955 19.0597C170.867 19.1353 170.733 19.1192 170.659 19.0289C170.4 18.7096 170.102 18.44 169.766 18.2199C169.371 17.9617 168.938 17.8326 168.467 17.8326C168.133 17.8326 167.844 17.8933 167.601 18.0149C167.373 18.1364 167.199 18.2959 167.077 18.4934C166.971 18.6908 166.917 18.9111 166.917 19.1541Z" fill="#2845C1"/>
<path fill-rule="evenodd" clip-rule="evenodd" d="M109.937 15.5668C112.967 15.5668 114.964 17.5022 115.208 20.2522C115.262 20.86 115.293 21.525 115.186 22.125C115.151 22.3211 114.977 22.4584 114.778 22.4584H107.198C107.069 22.4584 106.968 22.5727 106.99 22.7002C107.334 24.6978 108.434 25.5332 110.192 25.5332C110.706 25.5332 111.231 25.3502 111.608 25.1803C111.818 25.0861 111.923 25.0389 111.992 25.0234C112.14 24.9904 112.235 24.9964 112.378 25.0468C112.445 25.0704 112.523 25.1179 112.68 25.2125L113.329 25.6044C113.751 25.8588 113.963 25.9857 114.05 26.1153C114.213 26.3599 114.208 26.6729 114.036 26.9117C113.945 27.0383 113.735 27.1553 113.316 27.3885C113.002 27.5635 112.68 27.7226 112.344 27.8428C111.184 28.2578 109.946 28.2713 108.699 28.0075C105.597 27.3514 103.948 24.7847 103.948 21.8569C103.948 18.4111 106.122 15.5669 109.937 15.5668ZM109.868 17.9719C108.452 17.9719 107.487 18.7107 107.109 20.0728C107.073 20.2043 107.175 20.3311 107.312 20.3311H112.189C112.311 20.331 112.409 20.2287 112.394 20.1079C112.255 19.0071 111.407 17.9719 109.868 17.9719Z" fill="#2845C1"/>
<path d="M69.9751 11.0774C72.1751 11.0774 73.8998 11.9715 75.2357 13.3616C75.3379 13.4679 75.3893 13.5211 75.4199 13.5877C75.4744 13.7068 75.469 13.8608 75.4063 13.9758C75.3711 14.0402 75.3118 14.0943 75.1928 14.2019L73.7246 15.5288C73.5879 15.6523 73.519 15.7148 73.4526 15.7433C73.3234 15.7984 73.1941 15.7912 73.0714 15.7228C73.0083 15.6876 72.9412 15.6127 72.8072 15.4635C71.9694 14.5303 71.042 13.9416 69.9975 13.9416C68.8431 13.9418 68.081 14.6809 68.0809 15.6506C68.0809 16.8859 69.3835 17.4541 70.8915 18.1113C72.9644 19.0147 75.4257 20.0871 75.4258 23.2958C75.3796 26.3446 73.0238 28.1693 70.0443 28.1694C67.5605 28.1694 65.8244 27.3447 64.4523 25.9047C64.3516 25.799 64.3012 25.7457 64.2709 25.6795C64.2173 25.5616 64.2224 25.4095 64.2836 25.2954C64.3181 25.2312 64.3765 25.1768 64.4932 25.0692L65.9497 23.7267C66.0871 23.6001 66.1559 23.5363 66.2207 23.5074C66.3495 23.45 66.4709 23.4533 66.5961 23.5181C66.6592 23.5508 66.7326 23.6268 66.8788 23.7784C67.7837 24.7171 68.8937 25.2592 70.0209 25.2593C71.3142 25.2593 72.0993 24.5665 72.0994 23.4118C72.0994 22.147 70.7761 21.5646 69.2527 20.8946C67.1876 19.9864 64.7556 18.9165 64.7555 15.7666C64.7555 13.2029 66.8801 11.0774 69.9751 11.0774Z" fill="#2845C1"/>
<path d="M79.5906 16.0669C79.7596 16.0669 79.8441 16.067 79.9123 16.0903C80.0389 16.1337 80.139 16.2328 80.1823 16.3594C80.2057 16.4276 80.2057 16.5128 80.2057 16.6821V22.6729C80.2059 24.3586 81.0831 25.3976 82.6995 25.3977C84.2931 25.3977 85.1708 24.3587 85.1709 22.6729V16.6821C85.1709 16.5128 85.171 16.4276 85.1943 16.3594C85.2377 16.2328 85.3377 16.1337 85.4644 16.0903C85.5325 16.067 85.617 16.0669 85.7861 16.0669H87.5126C87.682 16.0669 87.7671 16.067 87.8353 16.0903C87.9617 16.1338 88.0611 16.233 88.1044 16.3594C88.1278 16.4276 88.1278 16.5128 88.1278 16.6821V22.5335C88.1278 26.021 86.0953 28.1692 82.6771 28.1694C79.2588 28.1694 77.2489 26.0211 77.2489 22.5335V16.6821C77.2489 16.5128 77.2489 16.4276 77.2723 16.3594C77.3156 16.233 77.415 16.1338 77.5413 16.0903C77.6095 16.067 77.6947 16.0669 77.864 16.0669H79.5906Z" fill="#2845C1"/>
<path fill-rule="evenodd" clip-rule="evenodd" d="M56.6482 15.5951C60.0202 15.5951 61.7527 17.6047 61.7528 20.1683V27.0833C61.7528 27.2523 61.7526 27.3369 61.7294 27.405C61.686 27.5317 61.5859 27.6317 61.4593 27.6751C61.3912 27.6983 61.3065 27.6985 61.1376 27.6985H59.4344C59.2651 27.6985 59.18 27.6984 59.1118 27.6751C58.9852 27.6317 58.886 27.5316 58.8427 27.405C58.8194 27.3369 58.8193 27.2523 58.8193 27.0833V26.9624C58.8193 26.859 58.8191 26.8071 58.8076 26.785C58.7844 26.7413 58.7403 26.7222 58.6925 26.7353C58.6685 26.7422 58.628 26.78 58.5483 26.8552C57.7709 27.5884 56.5426 28.0445 55.3321 28.0446C52.9994 28.0446 51.4053 26.7051 51.4051 24.5574C51.4051 22.8021 52.7676 21.485 55.2619 21.0692L58.5229 20.5183C58.6938 20.4895 58.8193 20.3417 58.8193 20.1683C58.8192 18.9443 57.8951 18.1591 56.5556 18.1591C55.6524 18.1591 54.9113 18.4977 54.3318 19.0686C54.1786 19.2196 54.1014 19.2949 54.0432 19.325C53.9228 19.3873 53.8225 19.3932 53.6952 19.3465C53.6337 19.3239 53.5634 19.2703 53.4232 19.1632L52.2514 18.2692C52.1261 18.1736 52.0634 18.1254 52.0223 18.0616C51.9511 17.9507 51.936 17.7836 51.9862 17.6619C52.0152 17.5915 52.0617 17.5407 52.1539 17.4396C53.2072 16.2852 54.7643 15.5951 56.6482 15.5951ZM58.4615 22.5842L56.0476 22.9868C54.8238 23.1946 54.3154 23.7022 54.3152 24.4179C54.3152 25.2032 54.9394 25.7116 55.9326 25.7116C57.1046 25.7115 57.9936 25.2342 58.5843 24.4959C58.6245 24.4457 58.6448 24.4205 58.6808 24.3595C58.7357 24.2664 58.7943 24.0998 58.8095 23.9929C58.8195 23.923 58.8193 23.8678 58.8193 23.7579V22.8873C58.8193 22.7893 58.8188 22.7404 58.8047 22.7031C58.7782 22.6338 58.7185 22.5823 58.6458 22.5676C58.6067 22.5597 58.5582 22.568 58.4615 22.5842Z" fill="#2845C1"/>
<path d="M99.0584 13.1568C99.2277 13.1568 99.3129 13.1569 99.3811 13.1802C99.5075 13.2237 99.6069 13.3229 99.6502 13.4493C99.6735 13.5174 99.6736 13.602 99.6736 13.771V15.8544C99.6736 15.9127 99.6733 15.942 99.6814 15.9655C99.6964 16.0093 99.7312 16.0432 99.775 16.0581C99.7985 16.0662 99.8277 16.0669 99.8861 16.0669H102.616C102.785 16.0669 102.869 16.067 102.938 16.0903C103.064 16.1337 103.163 16.2329 103.207 16.3594C103.23 16.4276 103.23 16.5128 103.23 16.6821V18.085C103.23 18.2541 103.23 18.3385 103.207 18.4067C103.163 18.5333 103.064 18.6334 102.938 18.6767C102.869 18.7 102.785 18.7001 102.616 18.7001H99.8861C99.8278 18.7001 99.7985 18.6999 99.775 18.7079C99.7313 18.7229 99.6964 18.7569 99.6814 18.8006C99.6733 18.8241 99.6736 18.8541 99.6736 18.9127V23.4577C99.6736 24.751 100.366 25.2592 101.521 25.2593C101.974 25.2593 102.34 25.2303 102.643 25.1764C102.852 25.1393 102.956 25.121 103.011 25.1316C103.125 25.1537 103.192 25.2088 103.234 25.3178C103.254 25.3696 103.253 25.4602 103.253 25.6405V27.1681C103.253 27.2771 103.253 27.3316 103.238 27.3875C103.212 27.4818 103.136 27.5854 103.054 27.6381C103.005 27.6693 102.963 27.6828 102.878 27.7092C102.377 27.8658 101.782 27.9383 101.013 27.9383C98.1029 27.9383 96.7167 26.2986 96.7167 23.4577V18.9127C96.7167 18.8541 96.717 18.8241 96.7089 18.8006C96.6938 18.757 96.659 18.7229 96.6153 18.7079C96.5918 18.7 96.5624 18.7001 96.5042 18.7001H95.1608C94.9918 18.7001 94.9072 18.6999 94.839 18.6767C94.7124 18.6334 94.6123 18.5333 94.569 18.4067C94.5458 18.3386 94.5456 18.2539 94.5456 18.085V16.6821C94.5456 16.5128 94.5456 16.4276 94.569 16.3594C94.6123 16.2328 94.7124 16.1337 94.839 16.0903C94.9072 16.0671 94.9917 16.0669 95.1608 16.0669H96.5042C96.5625 16.0669 96.5918 16.0661 96.6153 16.0581C96.6591 16.0432 96.6939 16.0093 96.7089 15.9655C96.717 15.942 96.7167 15.9127 96.7167 15.8544V13.771C96.7167 13.6021 96.7168 13.5174 96.7401 13.4493C96.7835 13.3227 96.8835 13.2236 97.0101 13.1802C97.0783 13.157 97.1628 13.1568 97.3319 13.1568H99.0584Z" fill="#2845C1"/>
<path d="M43.5962 11.6019C43.8037 11.585 44 11.699 44.0885 11.8875C44.1358 11.9883 44.1363 12.1464 44.1363 12.4617V24.5281C44.1363 24.6126 44.1363 24.6549 44.148 24.689C44.1697 24.7522 44.2193 24.8019 44.2825 24.8235C44.3166 24.8351 44.3589 24.8352 44.4434 24.8352H49.5002C49.6692 24.8352 49.7538 24.8353 49.8219 24.8586C49.9484 24.9019 50.0475 25.0013 50.091 25.1277C50.1143 25.1959 50.1144 25.2811 50.1144 25.4504V27.1077C50.1144 27.2768 50.1143 27.3613 50.091 27.4294C50.0476 27.556 49.9485 27.6561 49.8219 27.6995C49.7538 27.7227 49.6691 27.7229 49.5002 27.7229H41.6152C41.4458 27.7229 41.3607 27.7228 41.2925 27.6995C41.1659 27.6561 41.0667 27.556 41.0234 27.4294C41.0001 27.3613 41 27.2767 41 27.1077V13.8568C41 13.6211 41.0002 13.5026 41.0244 13.3947C41.0691 13.1955 41.174 13.0148 41.3246 12.877C41.4062 12.8024 41.5083 12.7436 41.7127 12.6265L43.0746 11.8466C43.3483 11.6898 43.4851 11.6109 43.5962 11.6019Z" fill="#2845C1"/>
<path d="M92.7693 16.0669C92.9384 16.0669 93.0229 16.0671 93.091 16.0903C93.2177 16.1337 93.3177 16.2328 93.3611 16.3594C93.3844 16.4276 93.3845 16.5128 93.3845 16.6821V27.0931C93.3845 27.262 93.3844 27.3467 93.3611 27.4148C93.3177 27.5414 93.2177 27.6405 93.091 27.6839C93.0229 27.7071 92.9384 27.7073 92.7693 27.7073H91.0662C90.8968 27.7073 90.8117 27.7072 90.7435 27.6839C90.617 27.6405 90.5177 27.5413 90.4744 27.4148C90.4511 27.3467 90.451 27.2621 90.451 27.0931V16.6821C90.451 16.5128 90.451 16.4276 90.4744 16.3594C90.5177 16.2329 90.617 16.1337 90.7435 16.0903C90.8117 16.067 90.8968 16.0669 91.0662 16.0669H92.7693Z" fill="#2845C1"/>
<path d="M91.929 10.2C92.9683 10.2 93.8232 11.0782 93.8232 12.1176C93.8229 13.1567 92.9682 14.0342 91.929 14.0342C90.8898 14.0342 90.0126 13.1567 90.0123 12.1176C90.0123 11.0783 90.8896 10.2 91.929 10.2Z" fill="#2845C1"/>
</svg>
