<svg xmlns="http://www.w3.org/2000/svg" viewBox="0 200 500 100"><path d="M146.66,257.09V225.82c0-9,6-14.95,14.69-14.95s14.87,6,14.87,14.95v31.27c0,9-6.07,15-14.87,15S146.66,266.06,146.66,257.09Zm23.49.34V225.57c0-5.56-3.59-9.4-8.8-9.4s-8.63,3.84-8.63,9.4v31.86c0,5.47,3.51,9.32,8.63,9.32S170.15,262.9,170.15,257.43Z"/><path d="M209.79,250c0,3.16,0,6.07-.08,9.23-.26,7.52-4.62,12.81-11.54,12.81a10,10,0,0,1-8.45-4.1c-.26-.25-.43-.08-.43.17v19a.81.81,0,0,1-.86.85h-4.35a.81.81,0,0,1-.86-.85V229a.81.81,0,0,1,.86-.85h4.35a.81.81,0,0,1,.86.85v2.48c0,.26.17.43.43.17a10.06,10.06,0,0,1,8.45-4.19c6.84,0,11.2,5.47,11.54,13.08C209.79,243.68,209.79,246.84,209.79,250Zm-6.06,8.2c.08-3,0-6.23,0-8.46v-8.45c.08-5-2.91-8.55-7.35-8.55-4.1,0-7.09,3.42-7.09,8.55V258.2c0,5.13,3,8.55,7.09,8.55C200.74,266.75,203.81,263.33,203.73,258.2Z"/><path d="M240.81,252.05H221.33a.37.37,0,0,0-.34.34v6.24c0,4.78,3,8.12,7.26,8.12a7.18,7.18,0,0,0,7.17-6c.17-.52.43-.77.94-.77l4.28.17a.76.76,0,0,1,.76.94c-.94,6.66-5.63,10.93-13.15,10.93-8.12,0-13.33-5.21-13.33-13.07V240.52c0-7.69,5.21-13.08,13.33-13.08,8.28,0,13.41,5.39,13.41,13.08V251.2A.8.8,0,0,1,240.81,252.05ZM221,240.94v5.73a.37.37,0,0,0,.34.34h14a.37.37,0,0,0,.34-.34v-5.73c0-4.87-3-8.2-7.43-8.2C224,232.74,221,236.07,221,240.94Z"/><path d="M273.53,241.11V270.5a.81.81,0,0,1-.86.86h-4.35a.81.81,0,0,1-.86-.86V241.63c0-5.56-2.48-8.8-6.83-8.8-4.53,0-7.35,3.5-7.35,9.22V270.5a.81.81,0,0,1-.85.86h-4.36a.81.81,0,0,1-.86-.86V229a.81.81,0,0,1,.86-.85h4.36a.8.8,0,0,1,.85.85v2.82c0,.26.26.34.43.09a10.53,10.53,0,0,1,8.88-4.36C269.6,227.53,273.53,232.57,273.53,241.11Z"/><path d="M309.75,228c0,9.83-5.46,16.32-13.67,16.32h-8.8a.37.37,0,0,0-.34.34v25.8a.81.81,0,0,1-.85.86h-4.36a.81.81,0,0,1-.85-.86V212.32a.8.8,0,0,1,.85-.85h14.1C304.2,211.47,309.75,218.13,309.75,228Zm-6.06.09c0-6.92-3.51-11.36-8.63-11.36h-7.78a.37.37,0,0,0-.34.34v21.95a.37.37,0,0,0,.34.35h7.78C300.18,239.41,303.69,235.05,303.69,228.13Z"/><path d="M332.65,228.64a1,1,0,0,1,.43,1.11l-.94,4.36c-.09.6-.52.68-1.11.51a6.07,6.07,0,0,0-3.59-.34c-4.1.26-7,4.78-7,10.59V270.5a.81.81,0,0,1-.85.86h-4.36a.81.81,0,0,1-.85-.86V229a.8.8,0,0,1,.85-.85h4.36a.8.8,0,0,1,.85.85v5.13c0,.34.26.34.43.08,1.45-3.84,4-6.49,8.12-6.49A6.79,6.79,0,0,1,332.65,228.64Z"/><path d="M334.7,259V240.52c0-7.69,5.21-13.08,13.41-13.08s13.5,5.39,13.5,13.08V259c0,7.86-5.29,13.07-13.5,13.07S334.7,266.83,334.7,259Zm20.85-.34V240.94c0-4.87-3.08-8.2-7.44-8.2s-7.34,3.33-7.34,8.2v17.69c0,4.78,3,8.12,7.34,8.12S355.55,263.41,355.55,258.63Z"/><path d="M359.82,288.28v-3.59a.81.81,0,0,1,.85-.86c4.87-.17,6.92-3.5,6.92-8.71V229a.81.81,0,0,1,.86-.85h4.35a.81.81,0,0,1,.86.85v46.14c0,8.54-2.31,14-13,14A.8.8,0,0,1,359.82,288.28Zm6.58-72.37a4.23,4.23,0,1,1,8.45,0,4.23,4.23,0,1,1-8.45,0Z"/><path d="M405.61,252.05H386.13a.37.37,0,0,0-.34.34v6.24c0,4.78,3,8.12,7.26,8.12a7.19,7.19,0,0,0,7.18-6c.17-.52.43-.77.94-.77l4.27.17a.77.77,0,0,1,.77.94c-.94,6.66-5.64,10.93-13.16,10.93-8.11,0-13.33-5.21-13.33-13.07V240.52c0-7.69,5.22-13.08,13.33-13.08,8.29,0,13.42,5.39,13.42,13.08V251.2A.81.81,0,0,1,405.61,252.05Zm-19.82-11.11v5.73a.37.37,0,0,0,.34.34h14a.37.37,0,0,0,.34-.34v-5.73c0-4.87-3-8.2-7.43-8.2C388.78,232.74,385.79,236.07,385.79,240.94Z"/><path d="M411.08,259V240.52c0-7.61,5.21-13.08,13.33-13.08s13.5,5.47,13.5,11.88v.85a.81.81,0,0,1-.86.86l-4.36.17a.79.79,0,0,1-.85-.77v-.68a7.14,7.14,0,0,0-7.43-7c-4.28,0-7.27,3.33-7.27,8.2v17.6c0,4.87,3,8.21,7.27,8.21a7.14,7.14,0,0,0,7.43-7v-.6a.8.8,0,0,1,.85-.85l4.36.08a.81.81,0,0,1,.86.86v.94c0,6.66-5.3,11.87-13.5,11.87S411.08,266.83,411.08,259Z"/><path d="M457,232.66h-6.49a.37.37,0,0,0-.34.34v26.14c0,5.47,2,6.92,5.55,6.84h.86a.8.8,0,0,1,.85.85v3.67a.81.81,0,0,1-.85.86h-2.14c-6.07,0-10.25-1.79-10.25-10.42V233a.37.37,0,0,0-.34-.34h-3.34a.81.81,0,0,1-.85-.86V229a.8.8,0,0,1,.85-.85h3.34a.37.37,0,0,0,.34-.34v-9.57a.81.81,0,0,1,.85-.86h4.27a.81.81,0,0,1,.86.86v9.57a.37.37,0,0,0,.34.34H457a.81.81,0,0,1,.86.85v2.82A.81.81,0,0,1,457,232.66Z"/><path d="M84.21,270.12h0a.58.58,0,0,0,0,.1,4.58,4.58,0,0,0,9.15,0v-.11h0v-11H84.21Z" style="fill:#0770b8"/><path d="M105.57,210.93h-6.1a15.18,15.18,0,0,0-15.26,15.16v18.4H57.36A15.18,15.18,0,0,0,42.1,259.66v12.2a15.33,15.33,0,0,0,15.26,15.35h6.1a15.33,15.33,0,0,0,15.26-15.35v-12.2a4.55,4.55,0,0,0,0-.52H69.56v12.72a6.18,6.18,0,0,1-6.1,6.2h-6.1a6.18,6.18,0,0,1-6.1-6.2v-12.2a6,6,0,0,1,6.1-6h48.21a15.33,15.33,0,0,0,15.26-15.34V226.09A15.18,15.18,0,0,0,105.57,210.93Zm6.1,27.37a6.19,6.19,0,0,1-6.1,6.19H93.36v-18.4a6,6,0,0,1,6.11-6h6.1a6,6,0,0,1,6.1,6Z" style="fill:#0770b8"/></svg>