<svg xmlns:xlink="http://www.w3.org/1999/xlink" xmlns="http://www.w3.org/2000/svg" width="136" height="41" viewBox="0 0 136 41" fill="none">
  <g clip-path="url(#clip0_5196_6950)" fill="none">
    <path fill-rule="evenodd" clip-rule="evenodd" d="M25.732 13.4608C25.5078 13.4897 25.2836 13.5187 25.0594 13.5477L25.054 13.4984C24.9819 13.4984 24.9097 13.4989 24.8376 13.4994C24.6933 13.5003 24.5491 13.5012 24.405 13.4984C24.2749 13.4957 24.1448 13.4848 24.0161 13.4724C23.4383 13.4136 23.2932 13.2602 23.4355 12.7454C23.4639 12.6426 23.4923 12.5399 23.5206 12.4371C23.9755 10.7884 24.4307 9.1383 24.9322 7.50398C25.2622 6.42775 25.714 5.394 26.3136 4.43142C26.8463 3.57702 27.498 2.8226 28.284 2.20233C29.5299 1.21923 30.776 1.43556 31.7974 2.40224C32.3246 2.90064 32.6092 3.53047 32.649 4.24522C32.6711 4.64613 32.64 5.051 32.6091 5.45395C32.6036 5.52578 32.5981 5.59754 32.5929 5.66921C32.5788 5.8667 32.5526 6.06284 32.5264 6.25918C32.5067 6.40588 32.4871 6.55269 32.4725 6.70025C32.3943 7.46152 32.5834 7.81067 33.4803 7.88188C34.5249 7.96404 35.5682 7.79015 36.4488 7.15619C37.3673 6.49348 38.1889 5.19408 37.4633 3.59893C37.0607 2.71441 36.5555 1.91068 35.6942 1.41502C35.0603 1.04944 34.4154 0.679749 33.732 0.426443C32.4518 -0.0500478 31.1265 -0.0705863 29.7656 0.0909825C27.8171 0.321013 26.0837 1.00289 24.5405 2.19959C22.4771 3.80022 20.9093 5.78697 19.955 8.22418C19.471 9.46001 19.0333 10.7148 18.5958 11.9691C18.5346 12.1448 18.4733 12.3205 18.4119 12.4962C18.2873 12.8549 18.1148 13.0795 17.7136 13.1561C17.2121 13.2532 16.716 13.376 16.2197 13.4989C16.0017 13.5529 15.7838 13.6068 15.5653 13.6586C14.4972 13.912 13.5374 14.4062 12.6159 14.9813C12.3996 15.1155 12.2052 15.299 12.0368 15.492C11.9738 15.566 11.9888 15.7344 12.0162 15.8494C12.0299 15.9069 12.149 15.9822 12.2175 15.9795C12.6036 15.9603 12.9911 15.9357 13.3731 15.8823C13.6331 15.8459 13.8925 15.8037 14.1518 15.7615C15.0456 15.616 15.9392 15.4705 16.8551 15.566C17.3275 15.6153 17.4781 15.7727 17.3589 16.2506C17.2351 16.7465 17.0969 17.2389 16.9586 17.7311C16.8278 18.197 16.697 18.6628 16.5785 19.1314C16.212 20.577 15.8497 22.0235 15.4873 23.47C14.8193 26.1367 14.1513 28.8032 13.458 31.4628C13.1527 32.6307 12.7145 33.7684 12.2791 34.8968C11.8067 36.1236 11.0591 37.1916 10.1226 38.1102C9.72687 38.4991 9.25995 38.8318 8.78346 39.1179C8.23305 39.4479 7.63195 39.4357 7.03088 39.192C5.87797 38.7236 5.18789 37.9035 5.16462 36.6384C5.15394 36.0573 5.19345 35.4754 5.23298 34.8934C5.24923 34.654 5.26549 34.4145 5.27826 34.1751C5.31933 33.4084 5.12901 33.1167 4.36635 33.0633C3.81455 33.025 3.24221 33.092 2.69589 33.1961C1.44579 33.433 0.617414 34.1944 0.150508 35.3706C-0.0165377 35.7907 -0.050771 36.2002 0.0793055 36.6369C0.436674 37.835 1.04872 38.8484 2.09754 39.5727C2.96564 40.1737 3.91177 40.5734 4.94963 40.7652C7.19928 41.18 9.36814 40.8734 11.3918 39.8547C14.159 38.4636 16.1595 36.266 17.4425 33.4727C18.2352 31.7462 18.939 29.9605 19.4826 28.1424C20.1449 25.9297 20.7148 23.6892 21.2846 21.4488C21.4617 20.7528 21.6387 20.0567 21.8185 19.3615C21.9595 18.8191 22.0787 18.2711 22.1979 17.7232C22.2812 17.3402 22.3645 16.9573 22.4552 16.5765C22.5277 16.2684 22.6962 16.0589 23.059 15.9932C23.5924 15.8952 24.1207 15.7681 24.6486 15.6411C24.8362 15.596 25.0238 15.5509 25.2115 15.5071C26.4067 15.2278 27.4939 14.7034 28.5194 14.042C28.5483 14.0234 28.5786 14.0046 28.6095 13.9855C28.8437 13.8406 29.1111 13.6751 29.0383 13.3738C28.9608 13.0559 28.6746 13.0879 28.4215 13.1163C28.3705 13.122 28.3208 13.1276 28.2745 13.1301C28.0145 13.1439 27.7564 13.1842 27.498 13.2245C27.3713 13.2443 27.2445 13.2641 27.1173 13.2807C26.6556 13.3416 26.1938 13.4012 25.732 13.4608ZM13.2888 36.5938C14.6229 35.0787 15.667 33.365 16.5908 31.2574C18.0545 27.9192 19.1225 24.4496 19.9783 20.9128C20.8405 17.3516 21.6891 13.7869 22.5375 10.223C22.62 9.87624 22.7026 9.52944 22.7852 9.18265C22.8114 9.07394 22.8126 8.96009 22.8139 8.84595C22.8144 8.79333 22.815 8.74064 22.818 8.68837C22.5757 9.00875 22.4333 9.35105 22.3374 9.70569C22.1983 10.2145 22.0588 10.7232 21.9192 11.2319C21.361 13.2667 20.8028 15.3014 20.2726 17.3432C20.1032 17.9966 19.9368 18.6507 19.7703 19.3047C19.0622 22.087 18.3543 24.8686 17.4219 27.5892C16.3936 30.5864 15.1654 33.4878 13.4046 36.14C13.38 36.1777 13.3701 36.2252 13.35 36.3225C13.3366 36.3871 13.3186 36.4736 13.2888 36.5938ZM15.1568 29.8566C15.1345 29.8627 15.106 29.8703 15.071 29.8825C15.0769 29.8186 15.0798 29.7568 15.0826 29.6971C15.0882 29.5781 15.0933 29.4671 15.1216 29.3622C15.3824 28.3838 15.6401 27.4044 15.8979 26.4249C16.5647 23.8914 17.2316 21.3574 17.9504 18.8384C18.5855 16.6105 19.2764 14.3987 19.9673 12.187C20.2433 11.3036 20.5192 10.4203 20.7916 9.53591C20.8513 9.34386 20.9283 9.15674 21.0068 8.96586C21.0453 8.87232 21.0842 8.77788 21.1216 8.68152C21.1366 8.69806 21.1502 8.71115 21.1617 8.72231C21.1827 8.74255 21.1971 8.75647 21.2023 8.77325C21.2147 8.81295 21.2243 8.86087 21.2119 8.89784C20.155 12.199 19.2805 15.5511 18.4059 18.9032C17.4904 22.4124 16.5749 25.9216 15.4502 29.372C15.4103 29.495 15.3436 29.6108 15.2776 29.7255C15.2577 29.7601 15.2379 29.7946 15.2188 29.8292C15.2121 29.8417 15.1921 29.8471 15.1568 29.8566ZM4.29203 38.4798C4.27938 38.4975 4.26454 38.5183 4.24861 38.5442C3.3723 37.8036 3.01492 36.8163 2.84924 35.7373C2.81787 35.5301 2.81951 35.3174 2.82114 35.1059C2.82151 35.0589 2.82187 35.012 2.82187 34.9652C2.82323 34.0737 3.00124 33.9136 3.88165 33.9943C4.25819 34.0286 4.39511 34.2092 4.28831 34.6092C3.97202 35.7978 3.91589 36.9779 4.32938 38.1567C4.35204 38.2212 4.34355 38.2991 4.33555 38.3723C4.33437 38.3832 4.33319 38.394 4.33213 38.4046C4.32951 38.4272 4.31414 38.4488 4.29203 38.4798ZM33.2119 1.92188C33.2291 2.05071 33.2383 2.14238 33.2451 2.21035C33.2556 2.31506 33.2604 2.36353 33.2802 2.40498C33.8171 3.53869 33.9253 4.70938 33.6034 5.92253C33.5595 6.0882 33.5363 6.26071 33.5212 6.4305C33.5008 6.67286 33.6021 6.86317 33.8554 6.88781C34.1074 6.91248 34.3689 6.90563 34.6194 6.87275C34.8536 6.84263 35.0028 6.67013 35.0191 6.43599C35.0369 6.17994 35.0425 5.91704 35.0042 5.66511C34.8003 4.32113 34.2804 3.12215 33.2119 1.92188ZM35.6791 5.8431C35.45 4.5688 34.9584 3.32921 34.2046 2.12428C34.2152 2.11921 34.2287 2.1133 34.2411 2.10597C34.2687 2.08954 34.2968 2.07289 34.3072 2.08047C35.393 2.87052 36.0352 3.95084 36.3432 5.24063C36.3815 5.40358 36.3788 5.5802 36.3734 5.75C36.3666 6.00193 36.0393 6.34835 35.9106 6.24703C35.7956 6.15666 35.7052 5.9896 35.6791 5.8431ZM2.77031 38.1028C2.77503 38.1293 2.77975 38.1559 2.78626 38.1816C2.77937 38.1915 2.77154 38.2007 2.76508 38.2113C2.74845 38.2385 2.73188 38.2657 2.70822 38.2815C2.68358 38.2966 2.6288 38.2978 2.60416 38.2815C1.71279 37.6515 1.24041 36.7644 1.13361 35.7032C1.11272 35.5009 1.24981 35.2757 1.37837 35.0644C1.40994 35.0125 1.441 34.9615 1.46907 34.9119C1.5211 34.82 1.67172 34.7488 1.78536 34.7337C1.96022 34.7103 1.95302 34.8468 1.94739 34.9535C1.94646 34.9713 1.94556 34.9883 1.94556 35.0035C1.94282 36.0537 2.2016 37.03 2.7219 37.9405C2.74997 37.9882 2.76013 38.0454 2.77031 38.1028ZM55.8737 27.4425V26.6002C55.8737 25.6643 54.8131 25.29 53.9396 25.29H48.7923C48.6363 25.29 48.5739 25.3836 48.5427 25.446V30.1253C48.5427 31.4979 48.6051 33.0889 48.6051 33.0889C48.6051 33.5568 49.385 33.9312 49.8529 33.9312H51.3191C51.6311 33.9312 51.6311 34.6175 51.6311 35.179C50.4769 35.1166 48.4803 35.0854 46.9829 35.0854C45.8416 35.0854 44.5491 35.1232 43.4732 35.1547L42.6155 35.179C42.6155 34.5863 42.6155 33.9312 42.9275 33.9312H44.4249C44.8928 33.9312 45.5791 33.5568 45.5791 33.0889C45.5791 33.0889 45.6103 31.5603 45.6103 30.1253V15.4945C45.6103 15.0266 44.8616 14.6522 44.3937 14.6522H42.9275C42.6155 14.6522 42.6155 13.9971 42.6155 13.4044L43.4732 13.4287C44.5491 13.4602 45.8418 13.498 46.9829 13.498H57.9638L58.5253 14.0907C58.5253 14.0907 58.6189 14.1531 58.6189 14.4027L58.463 17.5534C58.463 17.647 58.4318 17.6782 58.307 17.6782L57.0592 17.7406C56.9656 17.7406 56.9344 17.7094 56.9344 17.6158C56.9032 15.9625 56.6848 14.9954 54.8443 14.9954H49.5098C48.8859 14.9954 48.6051 15.3386 48.5739 15.8377L48.5427 23.6678C48.5739 23.7302 48.6363 23.7926 48.7923 23.7926H53.9396C54.8131 23.7926 55.8737 23.4806 55.8737 22.4824L55.9985 21.4841C56.0297 21.1721 56.6848 20.985 57.2151 21.3281C57.028 22.5136 56.9656 22.9191 56.9656 24.3853C56.9656 25.6109 56.9865 26.3349 57.0112 27.1903L57.028 27.7856C56.4664 28.0664 55.8737 27.8792 55.8737 27.4425ZM70.9206 32.4962L70.9692 32.5392C71.2543 32.7905 71.6832 33.1686 71.3885 33.4633C70.0471 34.8047 68.1754 35.491 66.1477 35.491C61.1875 35.491 59.3782 32.0907 59.3782 28.16C59.4094 24.011 62.529 20.7354 66.366 20.7354C69.9223 20.7354 71.6693 23.0751 71.6693 27.2553L62.0922 27.7233C62.1234 31.2484 63.7768 33.6816 66.9276 33.6816C68.0194 33.6816 69.392 33.6504 70.9206 32.4962ZM65.8669 22.0144C64.0264 22.0144 62.373 22.9815 62.1234 26.6002L68.9241 26.0075C68.9241 24.2605 68.0506 22.0144 65.8669 22.0144ZM73.5757 34.056C73.2637 34.056 73.2637 34.5863 73.2637 35.179C73.2637 35.179 75.4474 35.0854 76.9136 35.0854C78.4422 35.0854 81.3122 35.179 81.3122 35.179C81.3122 34.6175 81.3122 34.056 81.0002 34.056H79.534C79.5028 34.056 78.5358 34.056 78.5046 33.4633C78.5046 33.4633 78.3486 31.7163 78.3486 30.3437V25.8203C78.3486 24.6349 80.1891 22.7943 81.5618 22.732C82.2481 22.732 82.6848 22.8567 82.8096 23.3871C82.872 23.6678 82.9344 24.0422 82.9967 24.6037C82.9967 24.6973 83.028 24.7285 83.1215 24.7285C83.0903 24.7285 83.9014 24.7597 84.2446 24.7285C84.307 24.7285 84.3694 24.6973 84.3694 24.6349L84.5565 22.1392C84.5877 21.8897 84.5253 21.7649 84.5253 21.7649C84.2134 20.9226 83.2463 20.7354 82.3416 20.7354C80.5323 20.7354 78.4422 23.1687 78.3486 23.5742V21.5465L77.7247 20.8602C77.7247 20.8602 77.6623 20.7666 77.4127 20.7666C77.3387 20.7666 75.0805 21.1567 74.0458 21.3354L73.5445 21.4217C73.3885 21.4529 73.3885 21.6089 73.3885 21.6713V22.3576C73.3885 22.4512 73.4197 22.4824 73.5445 22.4824H74.7923C75.4474 22.4824 75.6658 22.8567 75.6658 23.2311V30.3437C75.6658 31.7787 75.541 33.4633 75.541 33.4633C75.541 34.056 75.1042 34.056 75.073 34.056H73.5757ZM95.3356 34.056H96.8642C97.1137 34.056 97.2697 33.8376 97.3009 33.4633C97.3009 33.4633 97.4569 31.7787 97.4569 30.3437V26.1635C97.4569 24.6349 97.3633 22.8568 94.4933 22.8256C92.6527 22.8256 90.7498 24.167 90.6562 25.29V30.3437C90.6562 31.7163 90.8122 33.4633 90.8122 33.4633C90.8434 33.8376 90.9682 34.056 91.2489 34.056H92.7151C93.0271 34.056 93.0271 34.6175 93.0271 35.1791C91.8729 35.1167 90.7498 35.0855 89.2212 35.0855C88.2296 35.0855 87.452 35.114 86.6857 35.1421C86.3196 35.1556 85.9545 35.169 85.5713 35.1791C85.5713 34.5863 85.5713 34.056 85.8833 34.056H87.3807C87.6614 34.056 87.7862 33.8376 87.8486 33.4633C87.8486 33.4633 87.9734 31.7787 87.9734 30.3437V23.3559C87.9734 22.9815 87.755 22.6072 87.0999 22.6072H85.8521C85.7273 22.6072 85.6961 22.576 85.6961 22.4824V21.7961C85.6961 21.7337 85.6961 21.5777 85.8521 21.5465L86.3534 21.4602C87.3885 21.2814 89.6464 20.8914 89.7204 20.8914C89.9699 20.8914 90.0323 20.985 90.0323 20.985L90.6562 21.6713V23.3247C90.6804 23.315 90.7502 23.25 90.8607 23.147C91.464 22.5849 93.2817 20.8914 95.5227 20.8914C97.0825 20.8914 99.1415 21.8273 99.859 23.5743L99.9096 23.523C100.362 23.0628 102.497 20.8914 104.975 20.8914C106.909 20.8914 109.592 22.264 109.592 24.8845V30.3437C109.592 31.7163 109.748 33.4633 109.748 33.4633C109.779 33.8376 109.904 34.056 110.185 34.056L111.651 33.9624C111.963 33.9624 111.963 34.5239 111.963 35.0855C111.238 35.0452 110.501 35.0569 109.658 35.0703C109.195 35.0776 108.699 35.0855 108.157 35.0855C107.165 35.0855 106.388 35.114 105.622 35.1421C105.255 35.1556 104.89 35.169 104.507 35.1791C104.507 34.5863 104.507 34.056 104.819 34.056H106.316C106.597 34.056 106.722 33.8376 106.784 33.4633C106.784 33.4633 106.909 31.7787 106.909 30.3437V26.1635C106.909 24.6349 106.847 22.8568 103.977 22.8256C102.136 22.8256 100.233 24.2294 100.14 25.3524V30.3437C100.14 31.7163 100.264 33.4633 100.264 33.4633C100.296 33.8376 100.452 34.056 100.732 34.056H102.199C102.511 34.056 102.511 34.6175 102.511 35.1791C101.356 35.1167 100.202 35.0855 98.7047 35.0855C97.708 35.0855 96.9131 35.1143 96.1339 35.1426C95.7668 35.1559 95.4032 35.1691 95.0236 35.1791C95.0236 34.5863 95.0236 34.056 95.3356 34.056ZM121.71 28.6903V32.0283C120.587 32.8706 118.903 33.6192 117.686 33.6192C116.813 33.6192 116.033 32.9329 116.033 31.8099C116.033 30.874 116.657 30.3437 117.374 30.0317C118.404 29.5638 119.87 29.0959 121.71 28.6903ZM114.722 23.0439C114.566 23.1687 114.566 23.1999 114.566 23.4495L114.629 25.5396C114.629 25.6331 114.722 25.6331 114.722 25.6331C115.159 25.6955 116.126 25.6955 116.157 25.6955L116.181 25.6844C116.228 25.6627 116.251 25.6518 116.251 25.5708C116.345 24.2605 116.407 23.699 116.469 23.3871C116.594 22.6072 117.53 22.4824 118.123 22.4824C120.962 22.4824 121.679 24.1981 121.71 25.3836V27.6609C119.059 28.0664 117.78 28.4408 116.033 29.0647C114.941 29.439 113.537 30.3125 113.537 31.8411C113.537 34.056 115.097 35.491 117.156 35.491C118.871 35.491 120.462 34.3055 121.71 33.1201V34.7735L122.334 35.4598C122.334 35.4598 122.397 35.5534 122.646 35.5534C122.771 35.5534 124.424 35.3038 126.234 35.0231C126.39 34.9919 126.39 34.8983 126.39 34.7735V34.1184C126.39 34.056 126.327 33.9936 126.202 33.9936H125.61C124.83 33.9936 124.487 33.4945 124.424 32.8082C124.424 32.8082 124.362 31.9971 124.362 29.751V24.5413C124.362 21.5777 121.024 20.7354 119.339 20.7354C117.752 20.7354 115.872 22.1723 115.053 22.7986C114.906 22.9105 114.793 22.9966 114.722 23.0439ZM135.297 33.0576C135.796 33.8375 135.609 34.1495 135.297 34.3678C134.549 34.8982 133.145 35.3349 132.146 35.3349C129.807 35.3349 128.809 34.3366 128.809 31.685V23.3246C128.777 23.0438 128.684 22.8254 128.372 22.8254L127.062 22.7942C126.968 22.7942 126.937 22.763 126.937 22.6695V21.8896C126.937 21.796 126.937 21.6712 127.062 21.64L128.809 21.328V18.3645C128.809 18.2709 128.809 18.2085 128.933 18.1149L130.431 16.5239C130.431 16.5239 130.493 16.4303 130.743 16.4303C130.836 16.4303 131.148 16.5551 131.367 16.6487C131.491 16.6799 131.491 16.8047 131.491 16.8671V21.1097C131.523 21.2345 131.585 21.328 131.71 21.328L135.391 21.2968C135.391 22.2639 135.391 22.7942 134.736 22.7942H131.772C131.585 22.7942 131.523 22.9502 131.491 23.1062V31.685C131.491 33.3696 132.334 33.6815 132.989 33.6815C134.205 33.6815 135.297 33.0576 135.297 33.0576Z" fill="#101828" data-darkreader-inline-fill="" style="--darkreader-inline-fill: #0d1320;"></path>
  </g>
  <defs>
    <clipPath id="clip0_5196_6950">
      <rect width="135.75" height="40.9443" fill="white" data-darkreader-inline-fill="" style="--darkreader-inline-fill: #181a1b;"></rect>
    </clipPath>
  </defs>
</svg>