<svg width="136" height="41" xmlns="http://www.w3.org/2000/svg" fill="none">
 <defs>
  <clipPath id="clip0_5196_6950">
   <rect id="svg_1" fill="white" height="40.9443" width="135.75"/>
  </clipPath>
 </defs>
 <g>
  <title>Layer 1</title>
  <g id="svg_2" fill="none" clip-path="url(#clip0_5196_6950)">
   <path id="svg_3" fill="#ffffff" d="m25.732,13.4608c-0.2242,0.0289 -0.4484,0.0579 -0.6726,0.0869l-0.0054,-0.0493c-0.0721,0 -0.1443,0.0005 -0.2164,0.001c-0.1443,0.0009 -0.2885,0.0018 -0.4326,-0.001c-0.1301,-0.0027 -0.2602,-0.0136 -0.3889,-0.026c-0.5778,-0.0588 -0.7229,-0.2122 -0.5806,-0.727c0.0284,-0.1028 0.0568,-0.2055 0.0851,-0.3083c0.4549,-1.6487 0.9101,-3.2988 1.4116,-4.93312c0.33,-1.07623 0.7818,-2.10998 1.3814,-3.07256c0.5327,-0.8544 1.1844,-1.60882 1.9704,-2.22909c1.2459,-0.9831 2.492,-0.76677 3.5134,0.19991c0.5272,0.4984 0.8118,1.12823 0.8516,1.84298c0.0221,0.40091 -0.009,0.80578 -0.0399,1.20873c-0.0055,0.07183 -0.011,0.14359 -0.0162,0.21526c-0.0141,0.19749 -0.0403,0.39363 -0.0665,0.58997c-0.0197,0.1467 -0.0393,0.29351 -0.0539,0.44107c-0.0782,0.76127 0.1109,1.11042 1.0078,1.18163c1.0446,0.08216 2.0879,-0.09173 2.9685,-0.72569c0.9185,-0.66271 1.7401,-1.96211 1.0145,-3.55726c-0.4026,-0.88452 -0.9078,-1.68825 -1.7691,-2.18391c-0.6339,-0.36558 -1.2788,-0.73527 -1.9622,-0.98858c-1.2802,-0.47649 -2.6055,-0.49703 -3.9664,-0.33546c-1.9485,0.23003 -3.6819,0.91191 -5.2251,2.10861c-2.0634,1.60063 -3.6312,3.58738 -4.5855,6.02459c-0.484,1.23583 -0.9217,2.49062 -1.3592,3.74492c-0.0612,0.1757 -0.1225,0.3514 -0.1839,0.5271c-0.1246,0.3587 -0.2971,0.5833 -0.6983,0.6599c-0.5015,0.0971 -0.9976,0.2199 -1.4939,0.3428c-0.218,0.054 -0.4359,0.1079 -0.6544,0.1597c-1.0681,0.2534 -2.0279,0.7476 -2.9494,1.3227c-0.2163,0.1342 -0.4107,0.3177 -0.5791,0.5107c-0.063,0.074 -0.048,0.2424 -0.0206,0.3574c0.0137,0.0575 0.1328,0.1328 0.2013,0.1301c0.3861,-0.0192 0.7736,-0.0438 1.1556,-0.0972c0.26,-0.0364 0.5194,-0.0786 0.7787,-0.1208c0.8938,-0.1455 1.7874,-0.291 2.7033,-0.1955c0.4724,0.0493 0.623,0.2067 0.5038,0.6846c-0.1238,0.4959 -0.262,0.9883 -0.4003,1.4805c-0.1308,0.4659 -0.2616,0.9317 -0.3801,1.4003c-0.3665,1.4456 -0.7288,2.8921 -1.0912,4.3386c-0.668,2.6667 -1.336,5.3332 -2.0293,7.9928c-0.3053,1.1679 -0.7435,2.3056 -1.1789,3.434c-0.4724,1.2268 -1.22,2.2948 -2.1565,3.2134c-0.39573,0.3889 -0.86265,0.7216 -1.33914,1.0077c-0.55041,0.33 -1.15151,0.3178 -1.75258,0.0741c-1.15291,-0.4684 -1.84299,-1.2885 -1.86626,-2.5536c-0.01068,-0.5811 0.02883,-1.163 0.06836,-1.745c0.01625,-0.2394 0.03251,-0.4789 0.04528,-0.7183c0.04107,-0.7667 -0.14925,-1.0584 -0.91191,-1.1118c-0.5518,-0.0383 -1.12414,0.0287 -1.67046,0.1328c-1.2501,0.2369 -2.07848,0.9983 -2.54538,2.1745c-0.16705,0.4201 -0.20128,0.8296 -0.0712,1.2663c0.35736,1.1981 0.96941,2.2115 2.01823,2.9358c0.8681,0.601 1.81423,1.0007 2.85209,1.1925c2.24965,0.4148 4.41851,0.1082 6.44217,-0.9105c2.7672,-1.3911 4.7677,-3.5887 6.0507,-6.382c0.7927,-1.7265 1.4965,-3.5122 2.0401,-5.3303c0.6623,-2.2127 1.2322,-4.4532 1.802,-6.6936c0.1771,-0.696 0.3541,-1.3921 0.5339,-2.0873c0.141,-0.5424 0.2602,-1.0904 0.3794,-1.6383c0.0833,-0.383 0.1666,-0.7659 0.2573,-1.1467c0.0725,-0.3081 0.241,-0.5176 0.6038,-0.5833c0.5334,-0.098 1.0617,-0.2251 1.5896,-0.3521c0.1876,-0.0451 0.3752,-0.0902 0.5629,-0.134c1.1952,-0.2793 2.2824,-0.8037 3.3079,-1.4651c0.0289,-0.0186 0.0592,-0.0374 0.0901,-0.0565c0.2342,-0.1449 0.5016,-0.3104 0.4288,-0.6117c-0.0775,-0.3179 -0.3637,-0.2859 -0.6168,-0.2575c-0.051,0.0057 -0.1007,0.0113 -0.147,0.0138c-0.26,0.0138 -0.5181,0.0541 -0.7765,0.0944c-0.1267,0.0198 -0.2535,0.0396 -0.3807,0.0562c-0.4617,0.0609 -0.9235,0.1205 -1.3853,0.1801zm-12.4432,23.133c1.3341,-1.5151 2.3782,-3.2288 3.302,-5.3364c1.4637,-3.3382 2.5317,-6.8078 3.3875,-10.3446c0.8622,-3.5612 1.7108,-7.1259 2.5592,-10.6898c0.0825,-0.34676 0.1651,-0.69356 0.2477,-1.04035c0.0262,-0.10871 0.0274,-0.22256 0.0287,-0.3367c0.0005,-0.05262 0.0011,-0.10531 0.0041,-0.15758c-0.2423,0.32038 -0.3847,0.66268 -0.4806,1.01732c-0.1391,0.50881 -0.2786,1.01751 -0.4182,1.52621c-0.5582,2.0348 -1.1164,4.0695 -1.6466,6.1113c-0.1694,0.6534 -0.3358,1.3075 -0.5023,1.9615c-0.7081,2.7823 -1.416,5.5639 -2.3484,8.2845c-1.0283,2.9972 -2.2565,5.8986 -4.0173,8.5508c-0.0246,0.0377 -0.0345,0.0852 -0.0546,0.1825c-0.0134,0.0646 -0.0314,0.1511 -0.0612,0.2713zm1.868,-6.7372c-0.0223,0.0061 -0.0508,0.0137 -0.0858,0.0259c0.0059,-0.0639 0.0088,-0.1257 0.0116,-0.1854c0.0056,-0.119 0.0107,-0.23 0.039,-0.3349c0.2608,-0.9784 0.5185,-1.9578 0.7763,-2.9373c0.6668,-2.5335 1.3337,-5.0675 2.0525,-7.5865c0.6351,-2.2279 1.326,-4.4397 2.0169,-6.6514c0.276,-0.8834 0.5519,-1.7667 0.8243,-2.65109c0.0597,-0.19205 0.1367,-0.37917 0.2152,-0.57005c0.0385,-0.09354 0.0774,-0.18798 0.1148,-0.28434c0.015,0.01654 0.0286,0.02963 0.0401,0.04079c0.021,0.02024 0.0354,0.03416 0.0406,0.05094c0.0124,0.0397 0.022,0.08762 0.0096,0.12459c-1.0569,3.30116 -1.9314,6.65326 -2.806,10.00536c-0.9155,3.5092 -1.831,7.0184 -2.9557,10.4688c-0.0399,0.123 -0.1066,0.2388 -0.1726,0.3535c-0.0199,0.0346 -0.0397,0.0691 -0.0588,0.1037c-0.0067,0.0125 -0.0267,0.0179 -0.062,0.0274zm-10.86477,8.6232c-0.01265,0.0177 -0.02749,0.0385 -0.04342,0.0644c-0.87631,-0.7406 -1.23369,-1.7279 -1.39937,-2.8069c-0.03137,-0.2072 -0.02973,-0.4199 -0.0281,-0.6314c0.00037,-0.047 0.00073,-0.0939 0.00073,-0.1407c0.00136,-0.8915 0.17937,-1.0516 1.05978,-0.9709c0.37654,0.0343 0.51346,0.2149 0.40666,0.6149c-0.31629,1.1886 -0.37242,2.3687 0.04107,3.5475c0.02266,0.0645 0.01417,0.1424 0.00617,0.2156c-0.00118,0.0109 -0.00236,0.0217 -0.00342,0.0323c-0.00262,0.0226 -0.01799,0.0442 -0.0401,0.0752zm28.91987,-36.55792c0.0172,0.12883 0.0264,0.2205 0.0332,0.28847c0.0105,0.10471 0.0153,0.15318 0.0351,0.19463c0.5369,1.13371 0.6451,2.3044 0.3232,3.51755c-0.0439,0.16567 -0.0671,0.33818 -0.0822,0.50797c-0.0204,0.24236 0.0809,0.43267 0.3342,0.45731c0.252,0.02467 0.5135,0.01782 0.764,-0.01506c0.2342,-0.03012 0.3834,-0.20262 0.3997,-0.43676c0.0178,-0.25605 0.0234,-0.51895 -0.0149,-0.77088c-0.2039,-1.34398 -0.7238,-2.54296 -1.7923,-3.74323zm2.4672,3.92122c-0.2291,-1.2743 -0.7207,-2.51389 -1.4745,-3.71882c0.0106,-0.00507 0.0241,-0.01098 0.0365,-0.01831c0.0276,-0.01643 0.0557,-0.03308 0.0661,-0.0255c1.0858,0.79005 1.728,1.87037 2.036,3.16016c0.0383,0.16295 0.0356,0.33957 0.0302,0.50937c-0.0068,0.25193 -0.3341,0.59835 -0.4628,0.49703c-0.115,-0.09037 -0.2054,-0.25743 -0.2315,-0.40393zm-32.90879,32.2597c0.00472,0.0265 0.00944,0.0531 0.01595,0.0788c-0.00689,0.0099 -0.01472,0.0191 -0.02118,0.0297c-0.01663,0.0272 -0.0332,0.0544 -0.05686,0.0702c-0.02464,0.0151 -0.07942,0.0163 -0.10406,0c-0.89137,-0.63 -1.36375,-1.5171 -1.47055,-2.5783c-0.02089,-0.2023 0.1162,-0.4275 0.24476,-0.6388c0.03157,-0.0519 0.06263,-0.1029 0.0907,-0.1525c0.05203,-0.0919 0.20265,-0.1631 0.31629,-0.1782c0.17486,-0.0234 0.16766,0.1131 0.16203,0.2198c-0.00093,0.0178 -0.00183,0.0348 -0.00183,0.05c-0.00274,1.0502 0.25604,2.0265 0.77634,2.937c0.02807,0.0477 0.03823,0.1049 0.04841,0.1623zm53.10339,-10.6603l0,-0.8423c0,-0.9359 -1.0606,-1.3102 -1.9341,-1.3102l-5.1473,0c-0.156,0 -0.2184,0.0936 -0.2496,0.156l0,4.6793c0,1.3726 0.0624,2.9636 0.0624,2.9636c0,0.4679 0.7799,0.8423 1.2478,0.8423l1.4662,0c0.312,0 0.312,0.6863 0.312,1.2478c-1.1542,-0.0624 -3.1508,-0.0936 -4.6482,-0.0936c-1.1413,0 -2.4338,0.0378 -3.5097,0.0693l-0.8577,0.0243c0,-0.5927 0,-1.2478 0.312,-1.2478l1.4974,0c0.4679,0 1.1542,-0.3744 1.1542,-0.8423c0,0 0.0312,-1.5286 0.0312,-2.9636l0,-14.6308c0,-0.4679 -0.7487,-0.8423 -1.2166,-0.8423l-1.4662,0c-0.312,0 -0.312,-0.6551 -0.312,-1.2478l0.8577,0.0243c1.0759,0.0315 2.3686,0.0693 3.5097,0.0693l10.9809,0l0.5615,0.5927c0,0 0.0936,0.0624 0.0936,0.312l-0.1559,3.1507c0,0.0936 -0.0312,0.1248 -0.156,0.1248l-1.2478,0.0624c-0.0936,0 -0.1248,-0.0312 -0.1248,-0.1248c-0.0312,-1.6533 -0.2496,-2.6204 -2.0901,-2.6204l-5.3345,0c-0.6239,0 -0.9047,0.3432 -0.9359,0.8423l-0.0312,7.8301c0.0312,0.0624 0.0936,0.1248 0.2496,0.1248l5.1473,0c0.8735,0 1.9341,-0.312 1.9341,-1.3102l0.1248,-0.9983c0.0312,-0.312 0.6863,-0.4991 1.2166,-0.156c-0.1871,1.1855 -0.2495,1.591 -0.2495,3.0572c0,1.2256 0.0209,1.9496 0.0456,2.805l0.0168,0.5953c-0.5616,0.2808 -1.1543,0.0936 -1.1543,-0.3431zm15.0469,5.0537l0.0486,0.043c0.2851,0.2513 0.714,0.6294 0.4193,0.9241c-1.3414,1.3414 -3.2131,2.0277 -5.2408,2.0277c-4.9602,0 -6.7695,-3.4003 -6.7695,-7.331c0.0312,-4.149 3.1508,-7.4246 6.9878,-7.4246c3.5563,0 5.3033,2.3397 5.3033,6.5199l-9.5771,0.468c0.0312,3.5251 1.6846,5.9583 4.8354,5.9583c1.0918,0 2.4644,-0.0312 3.993,-1.1854zm-5.0537,-10.4818c-1.8405,0 -3.4939,0.9671 -3.7435,4.5858l6.8007,-0.5927c0,-1.747 -0.8735,-3.9931 -3.0572,-3.9931zm7.7088,12.0416c-0.312,0 -0.312,0.5303 -0.312,1.123c0,0 2.1837,-0.0936 3.6499,-0.0936c1.5286,0 4.3986,0.0936 4.3986,0.0936c0,-0.5615 0,-1.123 -0.312,-1.123l-1.4662,0c-0.0312,0 -0.9982,0 -1.0294,-0.5927c0,0 -0.156,-1.747 -0.156,-3.1196l0,-4.5234c0,-1.1854 1.8405,-3.026 3.2132,-3.0883c0.6863,0 1.123,0.1247 1.2478,0.6551c0.0624,0.2807 0.1248,0.6551 0.1871,1.2166c0,0.0936 0.0313,0.1248 0.1248,0.1248c-0.0312,0 0.7799,0.0312 1.1231,0c0.0624,0 0.1248,-0.0312 0.1248,-0.0936l0.1871,-2.4957c0.0312,-0.2495 -0.0312,-0.3743 -0.0312,-0.3743c-0.3119,-0.8423 -1.279,-1.0295 -2.1837,-1.0295c-1.8093,0 -3.8994,2.4333 -3.993,2.8388l0,-2.0277l-0.6239,-0.6863c0,0 -0.0624,-0.0936 -0.312,-0.0936c-0.074,0 -2.3322,0.3901 -3.3669,0.5688l-0.5013,0.0863c-0.156,0.0312 -0.156,0.1872 -0.156,0.2496l0,0.6863c0,0.0936 0.0312,0.1248 0.156,0.1248l1.2478,0c0.6551,0 0.8735,0.3743 0.8735,0.7487l0,7.1126c0,1.435 -0.1248,3.1196 -0.1248,3.1196c0,0.5927 -0.4368,0.5927 -0.468,0.5927l-1.4973,0zm21.7599,0l1.5286,0c0.2495,0 0.4055,-0.2184 0.4367,-0.5927c0,0 0.156,-1.6846 0.156,-3.1196l0,-4.1802c0,-1.5286 -0.0936,-3.3067 -2.9636,-3.3379c-1.8406,0 -3.7435,1.3414 -3.8371,2.4644l0,5.0537c0,1.3726 0.156,3.1196 0.156,3.1196c0.0312,0.3743 0.156,0.5927 0.4367,0.5927l1.4662,0c0.312,0 0.312,0.5615 0.312,1.1231c-1.1542,-0.0624 -2.2773,-0.0936 -3.8059,-0.0936c-0.9916,0 -1.7692,0.0285 -2.5355,0.0566c-0.3661,0.0135 -0.7312,0.0269 -1.1144,0.037c0,-0.5928 0,-1.1231 0.312,-1.1231l1.4974,0c0.2807,0 0.4055,-0.2184 0.4679,-0.5927c0,0 0.1248,-1.6846 0.1248,-3.1196l0,-6.9878c0,-0.3744 -0.2184,-0.7487 -0.8735,-0.7487l-1.2478,0c-0.1248,0 -0.156,-0.0312 -0.156,-0.1248l0,-0.6863c0,-0.0624 0,-0.2184 0.156,-0.2496l0.5013,-0.0863c1.0351,-0.1788 3.293,-0.5688 3.367,-0.5688c0.2495,0 0.3119,0.0936 0.3119,0.0936l0.6239,0.6863l0,1.6534c0.0242,-0.0097 0.094,-0.0747 0.2045,-0.1777c0.6033,-0.5621 2.421,-2.2556 4.662,-2.2556c1.5598,0 3.6188,0.9359 4.3363,2.6829l0.0506,-0.0513c0.4524,-0.4602 2.5874,-2.6316 5.0654,-2.6316c1.934,0 4.617,1.3726 4.617,3.9931l0,5.4592c0,1.3726 0.156,3.1196 0.156,3.1196c0.031,0.3743 0.156,0.5927 0.437,0.5927l1.466,-0.0936c0.312,0 0.312,0.5615 0.312,1.1231c-0.725,-0.0403 -1.462,-0.0286 -2.305,-0.0152c-0.463,0.0073 -0.959,0.0152 -1.501,0.0152c-0.992,0 -1.769,0.0285 -2.535,0.0566c-0.367,0.0135 -0.732,0.0269 -1.115,0.037c0,-0.5928 0,-1.1231 0.312,-1.1231l1.497,0c0.281,0 0.406,-0.2184 0.468,-0.5927c0,0 0.125,-1.6846 0.125,-3.1196l0,-4.1802c0,-1.5286 -0.062,-3.3067 -2.932,-3.3379c-1.841,0 -3.744,1.4038 -3.837,2.5268l0,4.9913c0,1.3726 0.124,3.1196 0.124,3.1196c0.032,0.3743 0.188,0.5927 0.468,0.5927l1.467,0c0.312,0 0.312,0.5615 0.312,1.1231c-1.155,-0.0624 -2.309,-0.0936 -3.8063,-0.0936c-0.9967,0 -1.7916,0.0288 -2.5708,0.0571c-0.3671,0.0133 -0.7307,0.0265 -1.1103,0.0365c0,-0.5928 0,-1.1231 0.312,-1.1231zm26.3744,-5.3657l0,3.338c-1.123,0.8423 -2.807,1.5909 -4.024,1.5909c-0.873,0 -1.653,-0.6863 -1.653,-1.8093c0,-0.9359 0.624,-1.4662 1.341,-1.7782c1.03,-0.4679 2.496,-0.9358 4.336,-1.3414zm-6.988,-5.6464c-0.156,0.1248 -0.156,0.156 -0.156,0.4056l0.063,2.0901c0,0.0935 0.093,0.0935 0.093,0.0935c0.437,0.0624 1.404,0.0624 1.435,0.0624l0.024,-0.0111c0.047,-0.0217 0.07,-0.0326 0.07,-0.1136c0.094,-1.3103 0.156,-1.8718 0.218,-2.1837c0.125,-0.7799 1.061,-0.9047 1.654,-0.9047c2.839,0 3.556,1.7157 3.587,2.9012l0,2.2773c-2.651,0.4055 -3.93,0.7799 -5.677,1.4038c-1.092,0.3743 -2.496,1.2478 -2.496,2.7764c0,2.2149 1.56,3.6499 3.619,3.6499c1.715,0 3.306,-1.1855 4.554,-2.3709l0,1.6534l0.624,0.6863c0,0 0.063,0.0936 0.312,0.0936c0.125,0 1.778,-0.2496 3.588,-0.5303c0.156,-0.0312 0.156,-0.1248 0.156,-0.2496l0,-0.6551c0,-0.0624 -0.063,-0.1248 -0.188,-0.1248l-0.592,0c-0.78,0 -1.123,-0.4991 -1.186,-1.1854c0,0 -0.062,-0.8111 -0.062,-3.0572l0,-5.2097c0,-2.9636 -3.338,-3.8059 -5.023,-3.8059c-1.587,0 -3.467,1.4369 -4.286,2.0632c-0.147,0.1119 -0.26,0.198 -0.331,0.2453zm20.575,10.0137c0.499,0.7799 0.312,1.0919 0,1.3102c-0.748,0.5304 -2.152,0.9671 -3.151,0.9671c-2.339,0 -3.337,-0.9983 -3.337,-3.6499l0,-8.3604c-0.032,-0.2808 -0.125,-0.4992 -0.437,-0.4992l-1.31,-0.0312c-0.094,0 -0.125,-0.0312 -0.125,-0.1247l0,-0.7799c0,-0.0936 0,-0.2184 0.125,-0.2496l1.747,-0.312l0,-2.9635c0,-0.0936 0,-0.156 0.124,-0.2496l1.498,-1.591c0,0 0.062,-0.0936 0.312,-0.0936c0.093,0 0.405,0.1248 0.624,0.2184c0.124,0.0312 0.124,0.156 0.124,0.2184l0,4.2426c0.032,0.1248 0.094,0.2183 0.219,0.2183l3.681,-0.0312c0,0.9671 0,1.4974 -0.655,1.4974l-2.964,0c-0.187,0 -0.249,0.156 -0.281,0.312l0,8.5788c0,1.6846 0.843,1.9965 1.498,1.9965c1.216,0 2.308,-0.6239 2.308,-0.6239z" clip-rule="evenodd" fill-rule="evenodd"/>
  </g>
 </g>
</svg>