<?xml version="1.0" encoding="UTF-8" standalone="no"?>
<!DOCTYPE svg PUBLIC "-//W3C//DTD SVG 1.1//EN" "http://www.w3.org/Graphics/SVG/1.1/DTD/svg11.dtd">
<svg width="190px" height="80px" version="1.1" xmlns="http://www.w3.org/2000/svg" xmlns:xlink="http://www.w3.org/1999/xlink" xml:space="preserve" xmlns:serif="http://www.serif.com/" style="fill-rule:evenodd;clip-rule:evenodd;stroke-linejoin:round;stroke-miterlimit:1.41421;">
    <g transform="matrix(0.47619,0,0,0.47619,0.0952381,0)">
        <g transform="matrix(0.869481,0,0,0.869481,4.11434,10.9736)">
            <path d="M446.603,73.881L449.102,60.236L436.207,60.236L439.955,40.144L424.512,46.192L422.013,60.236L412.616,60.236L410.117,73.881L419.364,73.881L416.215,91.174C416.065,92.124 415.815,93.523 415.565,95.322C415.315,97.122 415.165,98.721 415.165,100.07C415.215,106.318 416.715,111.466 419.664,115.514C422.612,119.663 427.41,122.112 434.108,122.861L440.555,109.567C437.107,109.117 434.508,107.767 432.658,105.468C430.809,103.119 429.909,100.17 429.909,96.572C429.909,95.872 430.009,94.873 430.159,93.523C430.309,92.174 430.459,91.074 430.609,90.224L433.608,73.881L446.603,73.881Z" style="fill:rgb(152,192,0);fill-rule:nonzero;"/>
        </g>
        <g transform="matrix(0.869481,0,0,0.869481,4.11434,10.9736)">
            <path d="M310.707,72.332C313.106,71.482 315.205,71.032 316.955,71.032C318.854,71.032 320.453,71.582 321.753,72.681C323.002,73.731 323.602,75.28 323.602,77.43C323.602,78.029 323.502,78.929 323.302,80.178C323.102,81.328 322.952,82.378 322.802,83.277L319.204,100.17C318.954,101.47 318.704,102.819 318.454,104.219C318.204,105.668 318.104,106.918 318.104,107.967C318.104,112.016 319.204,115.414 321.453,118.113C323.602,120.812 327.451,122.412 332.998,122.861L339.346,110.016C337.197,109.667 335.647,108.867 334.698,107.617C333.698,106.418 333.198,104.719 333.198,102.569C333.198,102.07 333.248,101.47 333.348,100.82C333.398,100.17 333.498,99.621 333.548,99.221L337.197,82.028C337.497,80.578 337.747,79.129 337.947,77.679C338.146,76.28 338.246,74.881 338.246,73.531C338.246,68.583 336.797,64.585 333.898,61.636C330.949,58.687 326.851,57.188 321.603,57.188C318.554,57.188 315.655,57.687 312.807,58.687C310.008,59.637 306.609,61.236 302.661,63.585C302.511,62.636 302.161,61.486 301.661,60.186C301.111,58.937 300.512,57.837 299.862,56.838L286.467,62.586C287.617,64.335 288.516,66.184 289.066,68.083C289.566,69.983 289.816,71.782 289.816,73.431C289.816,74.281 289.766,75.33 289.616,76.48C289.516,77.63 289.366,78.529 289.216,79.179L281.269,121.512L295.664,121.512L304.11,75.83C306.159,74.281 308.358,73.131 310.708,72.332L310.707,72.332Z" style="fill:rgb(152,192,0);fill-rule:nonzero;"/>
        </g>
        <g transform="matrix(0.869481,0,0,0.869481,4.11434,10.9736)">
            <path d="M350.741,80.078C349.192,84.677 348.442,89.575 348.442,94.723C348.442,99.221 349.042,103.219 350.191,106.718C351.341,110.216 352.99,113.165 355.089,115.514C357.139,117.913 359.688,119.713 362.636,120.962C365.585,122.212 368.884,122.861 372.483,122.861C376.831,122.861 381.129,122.062 385.427,120.462C389.776,118.863 393.574,116.364 396.823,113.015L391.425,100.52C388.926,103.319 386.177,105.418 383.128,106.868C380.079,108.317 377.031,109.017 374.032,109.017C370.533,109.017 367.784,107.917 365.785,105.718C363.836,103.469 362.836,100.67 362.836,97.372L362.836,96.422C362.836,96.022 362.886,95.622 362.986,95.222C365.635,94.873 368.634,94.423 371.983,93.823C375.331,93.223 378.73,92.523 382.179,91.724C385.627,90.874 388.976,89.925 392.275,88.925C395.523,87.925 398.422,86.876 400.871,85.826L400.871,80.079C400.871,76.53 400.321,73.331 399.222,70.482C398.072,67.733 396.573,65.334 394.624,63.285C392.674,61.286 390.325,59.787 387.676,58.787C385.077,57.737 382.229,57.188 379.18,57.188C374.732,57.188 370.583,58.187 366.835,60.137C363.036,62.086 359.788,64.785 357.139,68.233C354.39,71.632 352.291,75.58 350.741,80.079L350.741,80.078ZM372.382,69.982C373.932,69.133 375.681,68.733 377.63,68.733C380.279,68.733 382.478,69.583 384.228,71.332C385.977,73.031 386.877,75.58 386.877,79.029C385.427,79.479 383.728,80.028 381.729,80.578C379.68,81.078 377.63,81.578 375.531,82.028C373.382,82.478 371.333,82.927 369.284,83.327C367.235,83.677 365.485,83.977 363.986,84.227C364.236,82.128 364.686,80.128 365.385,78.279C366.135,76.43 367.085,74.781 368.234,73.381C369.484,71.982 370.833,70.832 372.383,69.983L372.382,69.982Z" style="fill:rgb(152,192,0);fill-rule:nonzero;"/>
        </g>
        <g transform="matrix(0.869481,0,0,0.869481,4.11434,10.9736)">
            <path d="M404.17,140.454C404.17,139.205 403.97,138.055 403.57,137.056C403.17,136.056 402.62,135.206 401.971,134.457C401.271,133.757 400.471,133.207 399.522,132.857C398.572,132.507 397.522,132.308 396.423,132.308C394.973,132.308 393.624,132.607 392.374,133.157C391.125,133.707 390.025,134.507 389.076,135.506C388.126,136.506 387.376,137.655 386.827,139.005C386.277,140.354 385.977,141.804 385.977,143.403C385.977,144.653 386.177,145.752 386.577,146.802C386.927,147.801 387.476,148.651 388.176,149.351C388.826,150.1 389.676,150.65 390.625,151.05C391.575,151.4 392.624,151.6 393.774,151.6C395.173,151.6 396.523,151.3 397.772,150.75C399.022,150.2 400.121,149.401 401.071,148.401C402.021,147.451 402.77,146.252 403.32,144.902C403.87,143.553 404.17,142.054 404.17,140.454ZM390.275,140.404C390.575,139.505 390.975,138.705 391.475,138.005C392.025,137.306 392.674,136.756 393.424,136.306C394.174,135.856 394.973,135.656 395.923,135.656C397.372,135.656 398.422,136.106 399.172,137.006C399.921,137.855 400.321,139.105 400.321,140.654C400.321,141.604 400.171,142.553 399.871,143.503C399.622,144.403 399.222,145.202 398.672,145.902C398.122,146.602 397.472,147.152 396.723,147.601C395.973,148.001 395.123,148.201 394.224,148.201C392.774,148.201 391.725,147.751 390.975,146.902C390.225,146.002 389.826,144.803 389.826,143.253C389.826,142.304 389.975,141.354 390.275,140.404Z" style="fill-rule:nonzero;"/>
        </g>
        <g transform="matrix(0.869481,0,0,0.869481,4.11434,10.9736)">
            <path d="M434.558,132.557L431.009,132.557L429.11,143.603C429.06,143.753 429.01,144.003 429.01,144.353C429.01,144.703 429.01,144.952 429.01,145.202L428.86,145.202L422.463,132.557L419.114,132.557L415.765,151.3L419.364,151.3L421.363,140.004C421.413,139.855 421.413,139.605 421.413,139.355C421.413,139.105 421.413,138.805 421.413,138.505L421.563,138.505L428.11,151.45L431.309,151.15L434.558,132.557Z" style="fill-rule:nonzero;"/>
        </g>
        <g transform="matrix(0.869481,0,0,0.869481,4.11434,10.9736)">
            <path d="M374.382,132.557L370.733,132.557L367.384,151.3L371.083,151.3L374.382,132.557Z" style="fill-rule:nonzero;"/>
        </g>
        <g transform="matrix(0.869481,0,0,0.869481,4.11434,10.9736)">
            <path d="M328.95,132.557L324.702,132.557C323.902,133.907 323.052,135.456 322.103,137.106C321.153,138.755 320.253,140.454 319.354,142.154C318.454,143.853 317.654,145.502 316.905,147.102C316.155,148.701 315.555,150.1 315.105,151.3L318.954,151.3C319.104,150.95 319.254,150.5 319.454,150.05C319.654,149.601 319.854,149.101 320.104,148.651C320.303,148.201 320.503,147.751 320.703,147.302C320.903,146.852 321.103,146.452 321.253,146.102L327.75,146.102C327.8,146.552 327.8,147.002 327.85,147.501L328,148.951C328.05,149.401 328.1,149.851 328.15,150.3C328.2,150.75 328.2,151.1 328.2,151.45L331.899,151.15C331.899,150.45 331.849,149.651 331.749,148.701C331.699,147.751 331.549,146.752 331.399,145.702C331.249,144.653 331.099,143.503 330.899,142.354C330.749,141.204 330.549,140.054 330.3,138.905C330.1,137.755 329.9,136.656 329.65,135.556C329.4,134.507 329.2,133.507 328.95,132.557ZM326.601,138.105C326.701,138.655 326.801,139.255 326.901,139.904C327.001,140.504 327.101,141.104 327.151,141.654C327.251,142.204 327.301,142.603 327.351,142.953L322.702,142.953C322.952,142.503 323.202,142.004 323.452,141.454C323.752,140.904 324.052,140.304 324.352,139.705C324.702,139.105 325.002,138.555 325.301,138.005C325.601,137.455 325.851,136.956 326.101,136.606L326.301,136.606C326.401,137.006 326.501,137.505 326.601,138.105Z" style="fill-rule:nonzero;"/>
        </g>
        <g transform="matrix(0.869481,0,0,0.869481,4.11434,10.9736)">
            <path d="M357.638,135.956L358.188,132.557L345.393,132.557L344.844,135.956L349.392,135.956L346.743,151.3L350.391,151.3L353.09,135.956L357.638,135.956Z" style="fill-rule:nonzero;"/>
        </g>
        <g transform="matrix(0.869481,0,0,0.869481,4.11434,10.9736)">
            <path d="M297.462,132.308C296.413,132.308 295.363,132.358 294.314,132.457C293.264,132.607 292.265,132.757 291.315,133.007L288.166,150.85C289.116,151.1 290.215,151.25 291.415,151.4C292.565,151.55 293.664,151.6 294.714,151.6C296.263,151.6 297.662,151.35 299.012,150.85C300.361,150.3 301.561,149.601 302.561,148.651C303.56,147.701 304.36,146.552 304.96,145.202C305.509,143.853 305.809,142.304 305.809,140.604C305.809,139.255 305.609,138.105 305.21,137.056C304.76,136.006 304.21,135.156 303.46,134.457C302.711,133.757 301.811,133.207 300.811,132.857C299.762,132.507 298.662,132.308 297.463,132.308L297.462,132.308ZM296.663,135.706C297.413,135.706 298.112,135.806 298.762,135.956C299.412,136.106 299.962,136.406 300.411,136.806C300.911,137.206 301.311,137.705 301.561,138.355C301.811,138.955 301.961,139.705 301.961,140.654C301.961,141.854 301.811,142.903 301.461,143.853C301.161,144.803 300.711,145.602 300.112,146.252C299.512,146.902 298.812,147.352 297.962,147.701C297.113,148.051 296.213,148.201 295.164,148.201C294.714,148.201 294.264,148.201 293.714,148.151C293.164,148.101 292.665,148.051 292.315,148.001L294.464,135.906C294.764,135.856 295.164,135.806 295.613,135.756C296.063,135.706 296.413,135.706 296.663,135.706Z" style="fill-rule:nonzero;"/>
        </g>
        <g transform="matrix(0.869481,0,0,0.869481,4.11434,10.9736)">
            <path d="M185.807,62.585C186.957,64.335 187.856,66.184 188.406,68.083C188.906,69.982 189.156,71.782 189.156,73.431C189.156,74.281 189.106,75.33 188.956,76.48C188.856,77.629 188.706,78.529 188.556,79.179L180.609,121.512L195.003,121.512L203.45,75.83C205.499,74.281 207.698,73.131 210.047,72.332C212.446,71.482 214.546,71.032 216.295,71.032C218.194,71.032 219.794,71.582 221.093,72.681C222.343,73.731 222.942,75.28 222.942,77.43C222.942,78.029 222.842,78.929 222.642,80.178C222.443,81.328 222.293,82.378 222.143,83.277L218.544,100.17C218.294,101.47 218.044,102.819 217.794,104.219C217.545,105.668 217.445,106.918 217.445,107.967C217.445,112.016 218.544,115.414 220.793,118.113C222.942,120.812 226.791,122.412 232.339,122.861L238.686,110.016C236.537,109.667 234.988,108.867 234.038,107.617C233.038,106.418 232.539,104.719 232.539,102.569C232.539,102.07 232.589,101.47 232.689,100.82C232.739,100.17 232.839,99.621 232.889,99.221L236.537,82.028C236.837,80.578 237.087,79.129 237.287,77.679C237.487,76.28 237.587,74.881 237.587,73.531C237.587,68.583 236.137,64.585 233.238,61.636C230.29,58.687 226.191,57.188 220.943,57.188C217.895,57.188 214.996,57.687 212.147,58.687C209.348,59.637 205.949,61.236 202.001,63.585C201.851,62.636 201.501,61.486 201.001,60.186C200.452,58.937 199.852,57.837 199.202,56.838L185.807,62.586L185.807,62.585Z" style="fill-rule:nonzero;"/>
        </g>
        <g transform="matrix(0.869481,0,0,0.869481,4.11434,10.9736)">
            <path d="M276.821,31.548L262.676,31.548L251.881,90.024C251.431,91.974 251.081,94.023 250.831,96.172C250.581,98.271 250.431,100.22 250.431,102.02C250.431,107.817 251.531,112.565 253.78,116.264C256.029,119.963 259.828,122.162 265.175,122.861L271.673,109.567C270.623,109.067 269.724,108.517 268.874,107.917C268.024,107.368 267.325,106.618 266.775,105.768C266.175,104.919 265.725,103.919 265.475,102.719C265.225,101.52 265.076,100.02 265.076,98.271C265.076,97.422 265.126,96.472 265.225,95.472C265.375,94.423 265.525,93.373 265.675,92.274L276.821,31.548Z" style="fill-rule:nonzero;"/>
        </g>
        <g transform="matrix(0.869481,0,0,0.869481,4.11434,10.9736)">
            <path d="M246.433,132.557L242.784,132.557L240.385,146.252C239.886,146.802 239.286,147.252 238.536,147.651C237.786,148.001 236.987,148.201 236.087,148.201C235.187,148.201 234.488,148.001 233.988,147.601C233.438,147.152 233.188,146.452 233.188,145.402C233.188,145.202 233.238,144.902 233.288,144.503C233.338,144.153 233.338,143.803 233.388,143.503L235.387,132.557L231.689,132.557L229.74,143.453C229.69,143.903 229.64,144.353 229.59,144.803C229.54,145.252 229.54,145.602 229.54,145.952C229.54,146.952 229.69,147.801 229.99,148.551C230.289,149.301 230.689,149.851 231.189,150.3C231.739,150.75 232.339,151.1 232.988,151.3C233.688,151.5 234.388,151.6 235.138,151.6C236.987,151.6 238.636,151.05 240.136,149.9C240.136,150.15 240.136,150.45 240.186,150.75C240.186,151 240.186,151.25 240.236,151.5L243.884,151.25C243.834,151 243.834,150.75 243.834,150.45C243.784,150.2 243.784,149.9 243.784,149.551C243.784,148.951 243.834,148.301 243.884,147.651C243.934,146.952 243.984,146.302 244.134,145.702L246.433,132.557Z" style="fill-rule:nonzero;"/>
        </g>
        <g transform="matrix(0.869481,0,0,0.869481,4.11434,10.9736)">
            <path d="M276.621,132.557L273.072,132.557L271.173,143.603C271.123,143.753 271.073,144.003 271.073,144.353C271.073,144.703 271.073,144.952 271.073,145.202L270.923,145.202L264.526,132.557L261.177,132.557L257.828,151.3L261.427,151.3L263.426,140.004C263.476,139.855 263.476,139.605 263.476,139.355C263.476,139.105 263.476,138.805 263.476,138.505L263.626,138.505L270.174,151.45L273.372,151.15L276.621,132.557Z" style="fill-rule:nonzero;"/>
        </g>
        <g transform="matrix(0.869481,0,0,0.869481,4.11434,10.9736)">
            <path d="M214.796,134.457C214.096,133.757 213.296,133.207 212.347,132.857C211.397,132.507 210.347,132.308 209.248,132.308C207.798,132.308 206.449,132.607 205.199,133.157C203.95,133.707 202.85,134.507 201.901,135.506C200.951,136.506 200.201,137.655 199.652,139.005C199.102,140.354 198.802,141.804 198.802,143.403C198.802,144.653 199.002,145.752 199.402,146.802C199.752,147.801 200.301,148.651 201.001,149.351C201.651,150.1 202.5,150.65 203.45,151.05C204.4,151.4 205.449,151.6 206.599,151.6C207.998,151.6 209.348,151.3 210.597,150.75C211.847,150.2 212.946,149.401 213.896,148.401C214.846,147.451 215.595,146.252 216.145,144.902C216.695,143.553 216.995,142.054 216.995,140.454C216.995,139.205 216.795,138.055 216.395,137.056C215.995,136.056 215.445,135.206 214.796,134.457ZM204.3,138.005C204.85,137.306 205.499,136.756 206.249,136.306C206.999,135.856 207.798,135.656 208.748,135.656C210.197,135.656 211.247,136.106 211.997,137.006C212.746,137.855 213.146,139.105 213.146,140.654C213.146,141.604 212.996,142.553 212.696,143.503C212.447,144.403 212.047,145.202 211.497,145.902C210.947,146.602 210.297,147.152 209.548,147.601C208.798,148.001 207.948,148.201 207.049,148.201C205.599,148.201 204.55,147.751 203.8,146.902C203.05,146.002 202.65,144.803 202.65,143.253C202.65,142.304 202.8,141.354 203.1,140.404C203.4,139.505 203.8,138.705 204.3,138.005Z" style="fill-rule:nonzero;"/>
        </g>
        <g transform="matrix(0.869481,0,0,0.869481,4.11434,10.9736)">
            <path d="M188.256,132.557L177.96,132.557L174.612,151.3L178.31,151.3L179.56,144.153L186.307,144.153L186.907,140.754L180.159,140.754L181.009,135.956L187.656,135.956L188.256,132.557Z" style="fill-rule:nonzero;"/>
        </g>
        <g transform="matrix(0.869481,0,0,0.869481,4.11434,10.9736)">
            <path d="M127.081,44.893C128.43,33.947 125.681,24.101 118.884,15.404C112.087,6.708 103.19,1.66 92.245,0.31C81.299,-1.039 71.453,1.71 62.756,8.507C54.71,14.755 49.812,22.801 48.062,32.647C47.912,33.497 47.762,34.297 47.662,35.146C47.562,35.996 47.512,36.796 47.463,37.595C47.113,42.194 47.562,46.592 48.762,50.79C50.111,55.688 52.461,60.286 55.859,64.635C59.258,68.983 63.156,72.382 67.604,74.931C71.353,77.08 75.501,78.529 80.049,79.329C80.849,79.479 81.649,79.579 82.498,79.729C82.948,79.779 83.398,79.829 83.848,79.879C84.948,75.43 86.647,71.282 88.996,67.533C87.447,67.583 85.847,67.533 84.248,67.384C84.148,67.334 84.098,67.334 84.048,67.334C82.199,67.084 80.399,66.734 78.75,66.184C73.602,64.535 69.254,61.486 65.705,56.938C62.157,52.39 60.257,47.442 59.908,42.044C59.808,40.294 59.858,38.545 60.107,36.696C60.107,36.646 60.107,36.546 60.107,36.496C61.057,29.049 64.506,23.001 70.453,18.353C76.451,13.705 83.198,11.806 90.745,12.755C98.292,13.655 104.39,17.104 109.038,23.101C113.686,29.099 115.585,35.846 114.686,43.393C114.436,45.093 114.136,46.692 113.686,48.241C117.884,46.892 122.283,46.192 126.881,46.242C126.931,45.792 127.031,45.342 127.081,44.893Z" style="fill:rgb(152,192,0);fill-rule:nonzero;"/>
        </g>
        <g transform="matrix(0.869481,0,0,0.869481,4.11434,10.9736)">
            <path d="M132.329,51.49C131.479,51.39 130.679,51.29 129.83,51.24C125.231,50.94 120.833,51.39 116.635,52.539C111.737,53.889 107.139,56.288 102.79,59.687C98.442,63.035 95.043,66.934 92.544,71.382C90.395,75.13 88.946,79.279 88.096,83.827C92.445,84.577 96.443,85.826 100.141,87.675C100.391,85.876 100.741,84.177 101.241,82.577C102.89,77.43 105.939,73.081 110.487,69.533C115.035,65.984 119.983,64.035 125.431,63.685C127.181,63.585 128.93,63.635 130.779,63.885C130.829,63.885 130.879,63.885 130.929,63.885C138.376,64.835 144.424,68.333 149.072,74.281C153.77,80.228 155.669,86.976 154.72,94.523C153.77,102.07 150.321,108.167 144.374,112.865C138.426,117.514 131.679,119.363 124.232,118.463C125.081,122.512 125.331,126.76 125.031,131.158C134.977,131.808 143.974,128.959 152.021,122.711C160.717,115.914 165.765,107.018 167.115,96.072C168.464,85.127 165.715,75.28 158.918,66.584C152.62,58.537 144.574,53.639 134.778,51.89C133.928,51.74 133.128,51.59 132.329,51.49Z" style="fill:rgb(152,192,0);fill-rule:nonzero;"/>
        </g>
        <g transform="matrix(0.869481,0,0,0.869481,4.11434,10.9736)">
            <path d="M128.93,78.729C125.481,78.329 122.432,79.179 119.684,81.328C116.935,83.477 115.385,86.226 114.985,89.625C114.536,93.073 115.385,96.122 117.534,98.871C119.684,101.62 122.432,103.169 125.881,103.569C129.28,104.019 132.329,103.169 135.077,101.02C137.826,98.871 139.376,96.122 139.826,92.673C140.225,89.275 139.376,86.226 137.227,83.477C135.077,80.728 132.329,79.179 128.93,78.729Z" style="fill-rule:nonzero;"/>
        </g>
        <g transform="matrix(0.869481,0,0,0.869481,4.11434,10.9736)">
            <path d="M12.826,73.631C13.776,66.084 17.225,59.936 23.222,55.288C29.17,50.64 35.867,48.741 43.314,49.691C42.465,45.642 42.165,41.394 42.514,36.996C32.568,36.346 23.572,39.145 15.525,45.442C6.779,52.24 1.781,61.136 0.431,72.082C-0.917,83.027 1.781,92.823 8.628,101.57C14.876,109.617 22.922,114.515 32.768,116.264C33.568,116.414 34.368,116.514 35.217,116.664C36.067,116.764 36.867,116.864 37.716,116.914C42.315,117.214 46.713,116.764 50.911,115.614C55.759,114.215 60.407,111.816 64.756,108.467C69.054,105.068 72.453,101.17 75.001,96.772C77.151,93.023 78.6,88.875 79.45,84.327C75.101,83.577 71.103,82.278 67.405,80.478C67.155,82.228 66.805,83.927 66.305,85.576C64.656,90.724 61.607,95.073 57.059,98.621C52.51,102.17 47.562,104.119 42.165,104.469C40.415,104.569 38.616,104.519 36.767,104.269C36.717,104.269 36.667,104.269 36.617,104.219C29.17,103.269 23.122,99.821 18.474,93.873C13.776,87.875 11.877,81.128 12.826,73.631Z" style="fill:rgb(152,192,0);fill-rule:nonzero;"/>
        </g>
        <g transform="matrix(0.869481,0,0,0.869481,4.11434,10.9736)">
            <path d="M32.469,67.134C29.72,69.233 28.17,72.032 27.72,75.48C27.321,78.829 28.17,81.878 30.319,84.627C32.419,87.376 35.167,88.975 38.616,89.425C42.065,89.775 45.113,88.925 47.862,86.826C50.561,84.677 52.111,81.878 52.56,78.529C53.01,75.08 52.161,71.982 50.011,69.283C47.862,66.534 45.113,64.984 41.665,64.585C38.216,64.135 35.167,64.984 32.469,67.134Z" style="fill-rule:nonzero;"/>
        </g>
        <g transform="matrix(0.869481,0,0,0.869481,4.11434,10.9736)">
            <path d="M97.293,32.348C95.143,29.599 92.345,28.049 88.946,27.649C85.497,27.2 82.449,28.049 79.75,30.198C77.001,32.298 75.401,35.096 75.001,38.545C74.552,41.944 75.451,44.992 77.6,47.741C79.7,50.44 82.449,52.04 85.897,52.49C89.296,52.839 92.345,51.99 95.093,49.891C97.842,47.741 99.392,44.943 99.842,41.594C100.241,38.145 99.392,35.047 97.293,32.348Z" style="fill-rule:nonzero;"/>
        </g>
        <g transform="matrix(0.869481,0,0,0.869481,4.11434,10.9736)">
            <path d="M85.047,88.425C84.598,88.375 84.148,88.325 83.698,88.275C82.598,92.723 80.899,96.872 78.55,100.62C80.099,100.52 81.699,100.57 83.348,100.77C83.398,100.77 83.448,100.77 83.498,100.82C85.347,101.02 87.097,101.37 88.796,101.92C93.944,103.569 98.292,106.668 101.841,111.216C105.389,115.714 107.289,120.662 107.638,126.11C107.738,127.859 107.688,129.609 107.439,131.458C107.439,131.508 107.439,131.558 107.439,131.658C106.489,139.105 103.04,145.152 97.093,149.801C91.095,154.449 84.348,156.348 76.801,155.398C69.254,154.449 63.156,151 58.508,145.052C53.81,139.055 51.911,132.308 52.86,124.761C53.06,123.061 53.41,121.462 53.91,119.912C49.662,121.262 45.263,121.912 40.665,121.912C40.615,122.362 40.515,122.811 40.465,123.261C39.116,134.207 41.815,144.003 48.662,152.749C55.459,161.446 64.356,166.494 75.301,167.843C86.247,169.192 96.043,166.444 104.79,159.647C112.836,153.349 117.734,145.302 119.484,135.456C119.634,134.657 119.734,133.857 119.884,133.007C119.933,132.158 120.033,131.358 120.083,130.558C120.383,125.91 119.933,121.512 118.784,117.364C117.434,112.465 115.035,107.867 111.687,103.519C108.288,99.171 104.39,95.722 99.991,93.223C96.193,91.074 92.045,89.625 87.496,88.825C86.697,88.675 85.897,88.525 85.047,88.425Z" style="fill:rgb(152,192,0);fill-rule:nonzero;"/>
        </g>
        <g transform="matrix(0.869481,0,0,0.869481,4.11434,10.9736)">
            <path d="M89.995,120.412C87.846,117.663 85.097,116.114 81.649,115.664C78.2,115.264 75.151,116.114 72.453,118.263C69.704,120.412 68.154,123.161 67.704,126.56C67.255,130.008 68.154,133.057 70.303,135.806C72.403,138.555 75.151,140.104 78.6,140.504C82.049,140.954 85.097,140.104 87.846,137.955C90.545,135.806 92.095,133.057 92.544,129.609C92.944,126.21 92.095,123.161 89.995,120.412Z" style="fill-rule:nonzero;"/>
        </g>
    </g>
</svg>
