<svg width="400" height="100" viewBox="0 0 400 100" fill="none" xmlns="http://www.w3.org/2000/svg">
<path fill-rule="evenodd" clip-rule="evenodd" d="M52.5966 0.0666023C22.9266 -1.44351 -1.4434 22.9284 0.0665972 52.6006C1.3566 78.0026 21.9966 98.6442 47.3966 99.9343C77.0666 101.434 101.437 77.0625 99.9366 47.3902C98.6466 21.9883 78.0066 1.3467 52.5966 0.0666023ZM75.8666 37.8795C73.6466 35.8693 71.0166 34.3692 68.1566 33.4692C65.2866 32.5691 62.2566 32.2891 59.2766 32.6691C56.2966 33.0491 53.4266 34.0592 50.8766 35.6493C48.3266 37.2295 46.1566 39.3496 44.4966 41.8498C40.5266 47.7403 36.3766 53.6907 32.5866 58.2711C32.2766 58.6511 32.0166 58.9511 31.7966 59.2111C31.4766 59.6112 31.1466 60.0012 30.7866 60.3612C30.6966 60.4612 30.6566 60.4912 30.6566 60.4912H30.6466C28.4566 62.5914 25.4866 63.8915 22.2066 63.8915C19.7766 63.8915 17.5166 62.7514 15.6166 61.1313C14.2566 59.9712 13.1366 58.5511 12.3066 56.961C10.3166 53.1807 10.0166 49.1404 10.1966 46.1001C10.3166 44.88 10.4866 43.6799 10.7066 42.4899C14.2166 23.9884 30.4666 9.99736 49.9966 9.99736C72.0866 9.99736 89.9966 27.9087 89.9966 50.0004V50.1704C89.8966 50.1104 75.8666 37.8795 75.8666 37.8795Z" fill="black"/>
<path fill-rule="evenodd" clip-rule="evenodd" d="M24.7666 51.3105C26.4866 51.3105 28.0366 50.6305 29.1866 49.5304C29.1866 49.5304 29.2066 49.5104 29.2566 49.4604C29.4466 49.2704 29.6266 49.0704 29.7866 48.8603C29.9066 48.7203 30.0366 48.5703 30.1966 48.3703C30.7466 47.7103 31.3066 46.9802 31.8766 46.2301C34.1666 43.0999 36.4966 39.6996 38.7066 36.4294C40.9966 32.9791 43.9466 30.1289 47.4566 27.9387C48.4166 27.3387 49.4166 26.8087 50.4466 26.3286C47.2166 24.2985 43.4066 23.0984 39.3166 23.0984C29.0966 23.0984 20.5866 30.4189 18.7466 40.1097C18.6266 40.7297 18.5366 41.3598 18.4766 41.9998C18.3666 43.94 18.6166 46.6402 20.3866 48.9504C21.5266 50.2505 23.0666 51.3105 24.7666 51.3105Z" fill="black"/>
<path d="M400 57.8032C400 71.0875 391.466 80.3962 379 80.3962C366.534 80.3962 358 71.0875 358 57.8032C358 44.4219 366.534 35.1132 379 35.1132C391.466 35.1132 400 44.4219 400 57.8032ZM388.206 57.8032C388.206 50.5308 384.945 45.2946 379 45.2946C373.055 45.2946 369.795 50.5308 369.795 57.8032C369.795 64.9787 373.055 70.2148 379 70.2148C384.945 70.2148 388.206 64.9787 388.206 57.8032Z" fill="black"/>
<path d="M349.69 36.597V80.3962H338.302V36.597H349.69ZM350.7 23.9569C350.7 28.0723 347.578 30.9139 343.996 30.9139C340.322 30.9139 337.2 28.0723 337.2 23.9569C337.2 19.9395 340.322 17 343.996 17C347.578 17 350.7 19.9395 350.7 23.9569Z" fill="black"/>
<path d="M314.751 76.926V74.38C312.825 76.7301 308.875 78.8844 304.155 78.8844C291.728 78.8844 284.6 68.7005 284.6 56.9499C284.6 45.2971 291.728 35.1132 304.155 35.1132C308.875 35.1132 312.825 37.2675 314.751 39.5197V36.0924H326.6V75.0655C326.6 90.0475 317.641 97 305.504 97C294.329 97 286.719 91.2226 285.467 81.4304H297.027C297.99 85.5431 300.88 87.5995 305.504 87.5995C311.572 87.5995 314.751 83.9764 314.751 76.926ZM314.751 64.0982V49.8015C313.306 47.3535 310.224 45.2971 306.66 45.2971C300.302 45.2971 296.545 50.1932 296.545 56.9499C296.545 63.8044 300.302 68.7005 306.66 68.7005C310.224 68.7005 313.306 66.6441 314.751 64.0982Z" fill="black"/>
<path d="M265.351 76.926V74.38C263.425 76.7301 259.475 78.8844 254.755 78.8844C242.328 78.8844 235.2 68.7005 235.2 56.9499C235.2 45.2971 242.328 35.1132 254.755 35.1132C259.475 35.1132 263.425 37.2675 265.351 39.5197V36.0924H277.2V75.0655C277.2 90.0475 268.241 97 256.104 97C244.929 97 237.319 91.2226 236.067 81.4304H247.627C248.59 85.5431 251.48 87.5995 256.104 87.5995C262.172 87.5995 265.351 83.9764 265.351 76.926ZM265.351 64.0982V49.8015C263.906 47.3535 260.824 45.2971 257.26 45.2971C250.902 45.2971 247.145 50.1932 247.145 56.9499C247.145 63.8044 250.902 68.7005 257.26 68.7005C260.824 68.7005 263.906 66.6441 265.351 64.0982Z" fill="black"/>
<path d="M228.2 57.8032C228.2 71.0875 219.666 80.3962 207.2 80.3962C194.734 80.3962 185.2 71.0875 185.2 57.8032C185.2 44.4219 194.734 35.1132 207.2 35.1132C219.666 35.1132 228.2 44.4219 228.2 57.8032ZM216.405 57.8032C216.405 50.5308 213.145 45.2946 207.2 45.2946C201.255 45.2946 197.995 50.5308 197.995 57.8032C197.995 64.9787 201.255 70.2148 207.2 70.2148C213.145 70.2148 216.405 64.9787 216.405 57.8032Z" fill="black"/>
<path d="M160.142 59.451H148.264V80.3962H136V20.0189H160.142C172.695 20.0189 181 26.9023 181 39.7841C181 52.5676 172.695 59.451 160.142 59.451ZM168.833 39.7841C168.833 34.3757 165.742 30.7373 159.369 30.7373H148.264V48.7325H159.369C165.742 48.7325 168.833 44.9958 168.833 39.7841Z" fill="black"/>
</svg>
