<svg width="365" height="88" viewBox="0 0 365 88" fill="none" xmlns="http://www.w3.org/2000/svg">
<path d="M128.963 69.2259V24.6842H137.833V69.2259H128.963ZM114.461 31.5467V23.713H152.335V31.5467H114.461ZM160.331 69.4849L147.253 37.956H156.446L165.122 62.0397H162.014L171.013 37.956H180.271L166.352 69.4201L160.331 69.4849ZM151.656 82.3035L161.172 62.1691L166.352 69.4201L160.655 82.3035H151.656ZM201.16 69.8733C198.915 69.8733 196.887 69.4201 195.074 68.5137C193.261 67.5642 191.815 66.291 190.736 64.694C189.657 63.0971 189.075 61.2628 188.988 59.1911V48.1204C189.075 46.0487 189.657 44.2143 190.736 42.6174C191.858 40.9773 193.304 39.6825 195.074 38.7329C196.887 37.7834 198.915 37.3086 201.16 37.3086C204.051 37.3086 206.641 38.0208 208.928 39.4451C211.216 40.8694 213.007 42.8116 214.302 45.2718C215.64 47.7319 216.309 50.5158 216.309 53.6233C216.309 56.6877 215.64 59.45 214.302 61.9102C213.007 64.3703 211.216 66.3126 208.928 67.7369C206.641 69.1612 204.051 69.8733 201.16 69.8733ZM199.671 62.0397C201.224 62.0397 202.605 61.6944 203.814 61.0038C205.022 60.2701 205.95 59.2774 206.598 58.0257C207.288 56.7309 207.634 55.2419 207.634 53.5586C207.634 51.9185 207.288 50.4726 206.598 49.221C205.95 47.9261 205.022 46.9334 203.814 46.2429C202.605 45.5091 201.224 45.1423 199.671 45.1423C198.16 45.1423 196.8 45.5091 195.592 46.2429C194.383 46.9334 193.434 47.9261 192.743 49.221C192.096 50.4726 191.772 51.9185 191.772 53.5586C191.772 55.2419 192.096 56.7309 192.743 58.0257C193.434 59.2774 194.362 60.2701 195.527 61.0038C196.736 61.6944 198.117 62.0397 199.671 62.0397ZM183.809 82.3035V37.956H192.29V46.1781L190.866 53.7528L192.225 61.3275V82.3035H183.809ZM236.825 69.8733C233.545 69.8733 230.631 69.1827 228.085 67.8016C225.538 66.3773 223.51 64.4351 221.999 61.9749C220.532 59.5148 219.798 56.7093 219.798 53.5586C219.798 50.451 220.51 47.6888 221.934 45.2718C223.402 42.8116 225.387 40.8694 227.89 39.4451C230.394 37.9776 233.178 37.2439 236.242 37.2439C239.263 37.2439 241.918 37.9345 244.205 39.3156C246.536 40.6536 248.349 42.5095 249.643 44.8833C250.981 47.214 251.65 49.8684 251.65 52.8464C251.65 53.4075 251.607 53.9902 251.521 54.5945C251.478 55.1555 251.37 55.8029 251.197 56.5367L224.912 56.6014V50.2568L247.248 50.1921L243.817 52.8464C243.73 50.9905 243.385 49.4368 242.781 48.1851C242.22 46.9334 241.378 45.9839 240.256 45.3365C239.177 44.6459 237.839 44.3006 236.242 44.3006C234.559 44.3006 233.091 44.6891 231.84 45.466C230.588 46.1997 229.617 47.2572 228.926 48.6383C228.279 49.9763 227.955 51.5732 227.955 53.4291C227.955 55.3282 228.3 56.9899 228.991 58.4142C229.725 59.7953 230.761 60.8743 232.099 61.6512C233.437 62.3849 234.99 62.7518 236.76 62.7518C238.357 62.7518 239.803 62.4928 241.098 61.9749C242.392 61.4138 243.515 60.5938 244.464 59.5148L249.449 64.4998C247.939 66.2694 246.083 67.6074 243.881 68.5137C241.723 69.4201 239.371 69.8733 236.825 69.8733ZM278.907 69.8733C275.584 69.8733 272.498 69.2906 269.649 68.1253C266.801 66.9168 264.297 65.2551 262.139 63.1402C260.025 60.9822 258.384 58.4789 257.219 55.6303C256.097 52.7817 255.536 49.7173 255.536 46.4371C255.536 43.1569 256.097 40.0925 257.219 37.2439C258.384 34.3953 260.025 31.9136 262.139 29.7987C264.297 27.6838 266.779 26.0221 269.585 24.8136C272.433 23.6051 275.541 23.0009 278.907 23.0009C282.533 23.0009 285.727 23.6051 288.489 24.8136C291.251 25.979 293.69 27.5975 295.805 29.6692L289.849 35.6254C288.597 34.2442 287.065 33.1652 285.252 32.3883C283.439 31.6114 281.324 31.223 278.907 31.223C276.792 31.223 274.85 31.5899 273.081 32.3236C271.354 33.0142 269.844 34.05 268.549 35.4311C267.254 36.7691 266.261 38.3876 265.571 40.2867C264.88 42.1426 264.535 44.1927 264.535 46.4371C264.535 48.7246 264.88 50.7963 265.571 52.6522C266.261 54.5081 267.254 56.1267 268.549 57.5078C269.844 58.8458 271.354 59.8816 273.081 60.6154C274.85 61.3491 276.792 61.7159 278.907 61.7159C281.454 61.7159 283.633 61.3275 285.446 60.5506C287.302 59.7737 288.856 58.6731 290.107 57.2488L296.064 63.205C293.949 65.3199 291.489 66.96 288.683 68.1253C285.878 69.2906 282.619 69.8733 278.907 69.8733ZM315.412 69.8733C312.131 69.8733 309.218 69.1827 306.672 67.8016C304.125 66.3773 302.097 64.4351 300.586 61.9749C299.118 59.5148 298.385 56.7093 298.385 53.5586C298.385 50.451 299.097 47.6888 300.521 45.2718C301.989 42.8116 303.974 40.8694 306.477 39.4451C308.981 37.9776 311.764 37.2439 314.829 37.2439C317.85 37.2439 320.504 37.9345 322.792 39.3156C325.123 40.6536 326.935 42.5095 328.23 44.8833C329.568 47.214 330.237 49.8684 330.237 52.8464C330.237 53.4075 330.194 53.9902 330.108 54.5945C330.065 55.1555 329.957 55.8029 329.784 56.5367L303.499 56.6014V50.2568L325.835 50.1921L322.404 52.8464C322.317 50.9905 321.972 49.4368 321.368 48.1851C320.807 46.9334 319.965 45.9839 318.843 45.3365C317.764 44.6459 316.426 44.3006 314.829 44.3006C313.146 44.3006 311.678 44.6891 310.426 45.466C309.175 46.1997 308.204 47.2572 307.513 48.6383C306.866 49.9763 306.542 51.5732 306.542 53.4291C306.542 55.3282 306.887 56.9899 307.578 58.4142C308.312 59.7953 309.347 60.8743 310.685 61.6512C312.023 62.3849 313.577 62.7518 315.347 62.7518C316.944 62.7518 318.39 62.4928 319.684 61.9749C320.979 61.4138 322.101 60.5938 323.051 59.5148L328.036 64.4998C326.525 66.2694 324.669 67.6074 322.468 68.5137C320.31 69.4201 317.958 69.8733 315.412 69.8733ZM335.482 69.2259V22.4182H343.963V69.2259H335.482ZM351.478 69.2259V22.4182H359.959V69.2259H351.478Z" fill="#2B3D69"/>
<path d="M86.2096 50.3913L71.0426 41.6346C70.0478 41.0603 69.7097 41.2555 69.7097 42.4042V47.0617C69.7097 48.3465 70.3951 49.5336 71.5077 50.1759L82.6274 56.5959C83.2532 56.9572 83.6418 57.6305 83.6419 58.3533V68.7914L65.8319 58.5088L65.8318 40.6944L65.8317 15.9917C65.8317 12.7173 64.0703 9.66666 61.235 8.02988L49.6276 1.32835C46.7922 -0.308372 43.2693 -0.3088 40.434 1.32835L28.8264 8.02988C25.9819 9.67216 24.2296 12.7072 24.2296 15.9918V32.6096C24.2296 33.7583 24.5677 33.9535 25.5625 33.3791L29.5961 31.0503C30.7086 30.408 31.394 29.2209 31.394 27.9361V15.9917C31.394 15.2691 31.7828 14.5959 32.4088 14.2345L41.4485 9.01536L41.4486 28.685L26.0208 37.5921L5.4032 49.4959C2.5675 51.1331 0.806213 54.1839 0.806396 57.4577V70.8608C0.80658 74.1346 2.56769 77.1858 5.4032 78.8227L17.0106 85.5243C19.8552 87.1667 23.3597 87.1667 26.2043 85.5244L39.8201 77.6632C40.8149 77.0889 40.8149 76.6985 39.8201 76.1242L35.7866 73.7954C34.674 73.1531 33.3032 73.1531 32.1906 73.7954L22.622 79.3198C21.9962 79.6811 21.2188 79.6811 20.5928 79.3197L11.553 74.1005L27.812 64.7134L43.2397 73.6206L65.4086 86.4198C68.2443 88.057 71.767 88.0569 74.6021 86.4198L86.2095 79.7183C89.0446 78.0812 90.8065 75.0304 90.8063 71.7564L90.8064 58.3532C90.8064 55.0687 89.0541 52.0336 86.2096 50.3913ZM71.0195 80.2154C70.3941 80.5765 69.6166 80.5766 68.9908 80.2152L46.8219 67.416L31.3942 58.5088V48.7795C31.3942 47.6309 31.0561 47.4357 30.0613 48.01L26.0278 50.3388C24.9152 50.9812 24.2298 52.1683 24.2298 53.453V58.5088L7.97083 67.8959L7.97095 57.4574C7.97095 56.7352 8.35962 56.0618 8.98541 55.7005L31.1543 42.9013L45.0308 34.8896L53.4567 39.7542C54.4514 40.3285 54.7896 40.1333 54.7896 38.9847V34.3271C54.7896 33.0423 54.1041 31.8552 52.9915 31.2129L48.613 28.6849L48.613 9.01536L57.653 14.2347C58.2784 14.5958 58.6673 15.2691 58.6673 15.9917V41.5902L58.6675 58.5089L50.2417 63.3735C49.2469 63.9479 49.2469 64.3382 50.2417 64.9126L54.2753 67.2414C55.3879 67.8837 56.7586 67.8837 57.8712 67.2413L62.2497 64.7134L80.0598 74.9961L71.0195 80.2154Z" fill="url(#paint0_linear_1_42)"/>
<defs>
<linearGradient id="paint0_linear_1_42" x1="76.5099" y1="11.1618" x2="28.624" y2="93.632" gradientUnits="userSpaceOnUse">
<stop stop-color="#B1FC7C"/>
<stop offset="0.485366" stop-color="#5AD172"/>
<stop offset="1" stop-color="#1FB597"/>
</linearGradient>
</defs>
</svg>
