<svg xmlns:xlink="http://www.w3.org/1999/xlink" data-v-65e17373="" xmlns="http://www.w3.org/2000/svg" id="Logo" version="1.1" viewBox="0 0 47.023 45.786" aria-hidden="true" focusable="false" class="icon pr-5" icon="true" style="height: 140px;" width="164"  height="140" ><defs><style>.cls-1{fill:#000;stroke-width:0}</style><style class="darkreader darkreader--sync" media="screen"></style></defs><path d="M26.44.357C10.426-2.566-3.322 12.988.71 28.177c4.287 16.143 29.847 24.147 41.824 11.07 5.72-6.246 5.639-16.4 1.643-24.116C40.455 7.942 34.781 1.88 26.441.357" style="" fill="#00E6CC" stroke-width="0px"></path><path d="m12.485 17.664 7.02-3.666-1.078-.013h-5.942v-1.82h7.62v3.679l-7.009 3.653h7.008v1.833h-7.619zM24.33 14.648c2.183 0 3.484 1.222 3.484 3.276v.546H22.9c.066.923.599 1.495 1.509 1.495.793 0 1.312-.35 1.456-.949h1.963c-.195 1.404-1.39 2.444-3.406 2.444-2.198 0-3.51-1.417-3.51-3.445 0-2.119 1.417-3.367 3.419-3.367m1.56 2.756c-.065-.845-.664-1.3-1.521-1.3-.832 0-1.404.455-1.483 1.3zM28.902 14.778h1.977v1.586c.325-1.001 1.209-1.716 2.626-1.716 1.65 0 2.652 1.105 2.652 3.107v3.575h-1.99v-3.289c0-1.209-.364-1.664-1.377-1.664-1.17 0-1.911.663-1.911 2.496v2.457h-1.977zM12.535 24.209h3.367c2.457 0 5.005.637 5.005 4.576 0 3.952-2.548 4.59-5.005 4.59h-3.367zm3.367 7.332c1.586 0 2.912-.09 2.912-2.756s-1.339-2.756-2.912-2.756h-1.287v5.512zM21.878 31.645h1.833v-3.094h-1.56v-1.73h2.327c.663 0 1.053.326 1.053 1.015v3.81h1.846v1.728h-5.5zm2.587-7.644c.728 0 1.248.377 1.248 1.066 0 .702-.52 1.053-1.248 1.053s-1.21-.351-1.21-1.053c0-.689.482-1.066 1.21-1.066M32.53 33.543c-3.133 0-4.51-1.352-4.51-3.705h2.144c0 1.391.638 1.963 2.418 1.963 1.262 0 1.794-.299 1.794-.975 0-.416-.3-.728-.948-.897l-2.952-.78c-1.548-.403-2.067-1.313-2.067-2.457 0-1.729 1.287-2.652 3.614-2.652 2.782 0 4.173 1.313 4.173 3.289h-2.144c0-1.092-.638-1.573-2.002-1.573-.976 0-1.496.273-1.496.897 0 .351.208.624.87.806l2.887.715c1.495.377 2.21 1.248 2.21 2.561 0 1.716-1.157 2.808-3.991 2.808" class="cls-1" fill="#E8E6E3" stroke-width="0px"></path></svg>