<svg width="400" height="400" viewBox="0 0 400 400" fill="none" xmlns="http://www.w3.org/2000/svg">
<path d="M263.83 0H136.169C90.0736 0 77.1395 0 57.2949 6.67277C33.8334 15.2468 15.247 33.8338 6.67236 57.2951C0 77.1397 0 90.0743 0 136.17C0 263.83 0 263.83 0 263.83C0 309.926 0 322.86 6.67236 342.705C15.247 366.166 33.8334 384.753 57.2949 393.327C77.1399 400 90.0736 400 136.17 400C263.83 400 263.83 400 263.83 400C309.926 400 322.861 400 342.705 393.327C366.166 384.753 384.753 366.166 393.327 342.705C400 322.86 400 309.926 400 263.83C400 136.17 400 136.17 400 136.17C400 90.0741 400 77.1397 393.327 57.2951C384.753 33.8338 366.166 15.2468 342.705 6.67277C322.861 0 309.926 0 263.83 0Z" fill="url(#paint0_linear_1_51)"/>
<path d="M309.303 208.935L268.272 185.246C265.581 183.692 264.666 184.22 264.666 187.328V199.928C264.666 203.403 266.52 206.615 269.53 208.353L299.612 225.721C301.305 226.698 302.357 228.52 302.357 230.475V258.713L254.175 230.896V182.702L254.175 115.874C254.175 107.015 249.41 98.7625 241.739 94.3344L210.337 76.2047C202.667 71.7768 193.136 71.7756 185.466 76.2047L154.064 94.3344C146.368 98.7773 141.628 106.988 141.628 115.874V160.83C141.628 163.938 142.543 164.466 145.234 162.912L156.146 156.612C159.156 154.874 161.01 151.663 161.01 148.187V115.874C161.01 113.919 162.062 112.098 163.755 111.12L188.21 97.0004L188.211 150.213L146.474 174.309L90.6966 206.513C83.0253 210.942 78.2605 219.195 78.2609 228.052V264.312C78.2613 273.168 83.0257 281.423 90.6966 285.851L122.098 303.981C129.794 308.424 139.274 308.424 146.97 303.981L183.805 282.714C186.497 281.161 186.497 280.104 183.805 278.551L172.893 272.251C169.883 270.513 166.175 270.513 163.165 272.251L137.279 287.196C135.586 288.173 133.483 288.173 131.789 287.196L107.334 273.076L151.32 247.681L193.056 271.778L253.03 306.404C260.701 310.833 270.232 310.833 277.901 306.404L309.303 288.274C316.973 283.845 321.739 275.592 321.739 266.735V230.475C321.739 221.589 316.999 213.378 309.303 208.935ZM268.209 289.619C266.517 290.596 264.414 290.596 262.721 289.618L202.747 254.993L161.01 230.896V204.575C161.01 201.468 160.096 200.94 157.405 202.493L146.492 208.793C143.483 210.531 141.628 213.743 141.628 217.218V230.896L97.6428 256.291L97.6432 228.051C97.6432 226.098 98.6946 224.276 100.388 223.298L160.361 188.673L197.902 166.998L220.696 180.159C223.387 181.712 224.302 181.184 224.302 178.077V165.477C224.302 162.001 222.448 158.789 219.438 157.052L207.593 150.213V97.0004L232.049 111.12C233.741 112.097 234.793 113.919 234.793 115.874V185.126L234.793 230.896L211.999 244.056C209.307 245.61 209.307 246.666 211.999 248.22L222.911 254.52C225.921 256.258 229.629 256.258 232.639 254.52L244.484 247.681L292.666 275.499L268.209 289.619Z" fill="url(#paint1_linear_1_51)"/>
<defs>
<linearGradient id="paint0_linear_1_51" x1="200" y1="-11.3239" x2="200" y2="369.807" gradientUnits="userSpaceOnUse">
<stop stop-color="#F7F6FE"/>
<stop offset="1" stop-color="#DCDBF9"/>
</linearGradient>
<linearGradient id="paint1_linear_1_51" x1="283.062" y1="102.807" x2="153.516" y2="325.915" gradientUnits="userSpaceOnUse">
<stop stop-color="#00EBE7"/>
<stop offset="1" stop-color="#6923BA"/>
</linearGradient>
</defs>
</svg>
